  0
SECTION
  2
HEADER
  9
$ACADVER
  1
AC1024
  9
$ACADMAINTVER
 70
6
  9
$DWGCODEPAGE
  3
ANSI_1252
  9
$LASTSAVEDBY
  1
ezdxf
  9
$INSBASE
 10
0.0
 20
0.0
 30
0.0
  9
$EXTMIN
 10
1e+20
 20
1e+20
 30
1e+20
  9
$EXTMAX
 10
-1e+20
 20
-1e+20
 30
-1e+20
  9
$LIMMIN
 10
0.0
 20
0.0
  9
$LIMMAX
 10
420.0
 20
297.0
  9
$ORTHOMODE
 70
0
  9
$REGENMODE
 70
1
  9
$FILLMODE
 70
1
  9
$QTEXTMODE
 70
0
  9
$MIRRTEXT
 70
1
  9
$LTSCALE
 40
1.0
  9
$ATTMODE
 70
1
  9
$TEXTSIZE
 40
2.5
  9
$TRACEWID
 40
1.0
  9
$TEXTSTYLE
  7
Standard
  9
$CLAYER
  8
0
  9
$CELTYPE
  6
ByLayer
  9
$CECOLOR
 62
256
  9
$CELTSCALE
 40
1.0
  9
$DISPSILH
 70
0
  9
$DIMSCALE
 40
1.0
  9
$DIMASZ
 40
2.5
  9
$DIMEXO
 40
0.625
  9
$DIMDLI
 40
3.75
  9
$DIMRND
 40
0.0
  9
$DIMDLE
 40
0.0
  9
$DIMEXE
 40
1.25
  9
$DIMTP
 40
0.0
  9
$DIMTM
 40
0.0
  9
$DIMTXT
 40
2.5
  9
$DIMCEN
 40
2.5
  9
$DIMTSZ
 40
0.0
  9
$DIMTOL
 70
0
  9
$DIMLIM
 70
0
  9
$DIMTIH
 70
0
  9
$DIMTOH
 70
0
  9
$DIMSE1
 70
0
  9
$DIMSE2
 70
0
  9
$DIMTAD
 70
1
  9
$DIMZIN
 70
8
  9
$DIMBLK
  1

  9
$DIMASO
 70
1
  9
$DIMSHO
 70
1
  9
$DIMPOST
  1

  9
$DIMAPOST
  1

  9
$DIMALT
 70
0
  9
$DIMALTD
 70
3
  9
$DIMALTF
 40
0.03937007874
  9
$DIMLFAC
 40
1.0
  9
$DIMTOFL
 70
1
  9
$DIMTVP
 40
0.0
  9
$DIMTIX
 70
0
  9
$DIMSOXD
 70
0
  9
$DIMSAH
 70
0
  9
$DIMBLK1
  1

  9
$DIMBLK2
  1

  9
$DIMSTYLE
  2
ISO-25
  9
$DIMCLRD
 70
0
  9
$DIMCLRE
 70
0
  9
$DIMCLRT
 70
0
  9
$DIMTFAC
 40
1.0
  9
$DIMGAP
 40
0.625
  9
$DIMJUST
 70
0
  9
$DIMSD1
 70
0
  9
$DIMSD2
 70
0
  9
$DIMTOLJ
 70
0
  9
$DIMTZIN
 70
8
  9
$DIMALTZ
 70
0
  9
$DIMALTTZ
 70
0
  9
$DIMUPT
 70
0
  9
$DIMDEC
 70
2
  9
$DIMTDEC
 70
2
  9
$DIMALTU
 70
2
  9
$DIMALTTD
 70
3
  9
$DIMTXSTY
  7
Standard
  9
$DIMAUNIT
 70
0
  9
$DIMADEC
 70
0
  9
$DIMALTRND
 40
0.0
  9
$DIMAZIN
 70
0
  9
$DIMDSEP
 70
44
  9
$DIMATFIT
 70
3
  9
$DIMFRAC
 70
0
  9
$DIMLDRBLK
  1

  9
$DIMLUNIT
 70
2
  9
$DIMLWD
 70
-2
  9
$DIMLWE
 70
-2
  9
$DIMTMOVE
 70
0
  9
$DIMFXL
 40
1.0
  9
$DIMFXLON
 70
0
  9
$DIMJOGANG
 40
0.785398163397
  9
$DIMTFILL
 70
0
  9
$DIMTFILLCLR
 70
0
  9
$DIMARCSYM
 70
0
  9
$DIMLTYPE
  6

  9
$DIMLTEX1
  6

  9
$DIMLTEX2
  6

  9
$DIMTXTDIRECTION
 70
0
  9
$LUNITS
 70
2
  9
$LUPREC
 70
4
  9
$SKETCHINC
 40
1.0
  9
$FILLETRAD
 40
10.0
  9
$AUNITS
 70
0
  9
$AUPREC
 70
2
  9
$MENU
  1
.
  9
$ELEVATION
 40
0.0
  9
$PELEVATION
 40
0.0
  9
$THICKNESS
 40
0.0
  9
$LIMCHECK
 70
0
  9
$CHAMFERA
 40
0.0
  9
$CHAMFERB
 40
0.0
  9
$CHAMFERC
 40
0.0
  9
$CHAMFERD
 40
0.0
  9
$SKPOLY
 70
0
  9
$TDCREATE
 40
2461028.734722222
  9
$TDUCREATE
 40
2458532.153996898
  9
$TDUPDATE
 40
2461028.734722222
  9
$TDUUPDATE
 40
2458532.1544311
  9
$TDINDWG
 40
0.0
  9
$TDUSRTIMER
 40
0.0
  9
$USRTIMER
 70
1
  9
$ANGBASE
 50
0.0
  9
$ANGDIR
 70
0
  9
$PDMODE
 70
0
  9
$PDSIZE
 40
0.0
  9
$PLINEWID
 40
0.0
  9
$SPLFRAME
 70
0
  9
$SPLINETYPE
 70
6
  9
$SPLINESEGS
 70
8
  9
$HANDSEED
  5
3B6
  9
$SURFTAB1
 70
6
  9
$SURFTAB2
 70
6
  9
$SURFTYPE
 70
6
  9
$SURFU
 70
6
  9
$SURFV
 70
6
  9
$UCSBASE
  2

  9
$UCSNAME
  2

  9
$UCSORG
 10
0.0
 20
0.0
 30
0.0
  9
$UCSXDIR
 10
1.0
 20
0.0
 30
0.0
  9
$UCSYDIR
 10
0.0
 20
1.0
 30
0.0
  9
$UCSORTHOREF
  2

  9
$UCSORTHOVIEW
 70
0
  9
$UCSORGTOP
 10
0.0
 20
0.0
 30
0.0
  9
$UCSORGBOTTOM
 10
0.0
 20
0.0
 30
0.0
  9
$UCSORGLEFT
 10
0.0
 20
0.0
 30
0.0
  9
$UCSORGRIGHT
 10
0.0
 20
0.0
 30
0.0
  9
$UCSORGFRONT
 10
0.0
 20
0.0
 30
0.0
  9
$UCSORGBACK
 10
0.0
 20
0.0
 30
0.0
  9
$PUCSBASE
  2

  9
$PUCSNAME
  2

  9
$PUCSORG
 10
0.0
 20
0.0
 30
0.0
  9
$PUCSXDIR
 10
1.0
 20
0.0
 30
0.0
  9
$PUCSYDIR
 10
0.0
 20
1.0
 30
0.0
  9
$PUCSORTHOREF
  2

  9
$PUCSORTHOVIEW
 70
0
  9
$PUCSORGTOP
 10
0.0
 20
0.0
 30
0.0
  9
$PUCSORGBOTTOM
 10
0.0
 20
0.0
 30
0.0
  9
$PUCSORGLEFT
 10
0.0
 20
0.0
 30
0.0
  9
$PUCSORGRIGHT
 10
0.0
 20
0.0
 30
0.0
  9
$PUCSORGFRONT
 10
0.0
 20
0.0
 30
0.0
  9
$PUCSORGBACK
 10
0.0
 20
0.0
 30
0.0
  9
$USERI1
 70
0
  9
$USERI2
 70
0
  9
$USERI3
 70
0
  9
$USERI4
 70
0
  9
$USERI5
 70
0
  9
$USERR1
 40
0.0
  9
$USERR2
 40
0.0
  9
$USERR3
 40
0.0
  9
$USERR4
 40
0.0
  9
$USERR5
 40
0.0
  9
$WORLDVIEW
 70
1
  9
$SHADEDGE
 70
3
  9
$SHADEDIF
 70
70
  9
$TILEMODE
 70
1
  9
$MAXACTVP
 70
64
  9
$PINSBASE
 10
0.0
 20
0.0
 30
0.0
  9
$PLIMCHECK
 70
0
  9
$PEXTMIN
 10
1e+20
 20
1e+20
 30
1e+20
  9
$PEXTMAX
 10
-1e+20
 20
-1e+20
 30
-1e+20
  9
$PLIMMIN
 10
0.0
 20
0.0
  9
$PLIMMAX
 10
420.0
 20
297.0
  9
$UNITMODE
 70
0
  9
$VISRETAIN
 70
1
  9
$PLINEGEN
 70
0
  9
$PSLTSCALE
 70
1
  9
$TREEDEPTH
 70
3020
  9
$CMLSTYLE
  2
Standard
  9
$CMLJUST
 70
0
  9
$CMLSCALE
 40
20.0
  9
$PROXYGRAPHICS
 70
1
  9
$MEASUREMENT
 70
1
  9
$CELWEIGHT
370
-1
  9
$ENDCAPS
280
0
  9
$JOINSTYLE
280
0
  9
$LWDISPLAY
290
0
  9
$INSUNITS
 70
6
  9
$HYPERLINKBASE
  1

  9
$STYLESHEET
  1

  9
$XEDIT
290
1
  9
$CEPSNTYPE
380
0
  9
$PSTYLEMODE
290
1
  9
$FINGERPRINTGUID
  2
{6B936383-7952-44E9-A1A0-E4072FC91786}
  9
$VERSIONGUID
  2
{AB389984-FF07-4DFF-8498-CD02BA1897EC}
  9
$EXTNAMES
290
1
  9
$PSVPSCALE
 40
0.0
  9
$OLESTARTUP
290
0
  9
$SORTENTS
280
127
  9
$INDEXCTL
280
0
  9
$HIDETEXT
280
1
  9
$XCLIPFRAME
280
1
  9
$HALOGAP
280
0
  9
$OBSCOLOR
 70
257
  9
$OBSLTYPE
280
0
  9
$INTERSECTIONDISPLAY
280
0
  9
$INTERSECTIONCOLOR
 70
257
  9
$DIMASSOC
280
2
  9
$PROJECTNAME
  1

  9
$CAMERADISPLAY
290
0
  9
$LENSLENGTH
 40
50.0
  9
$CAMERAHEIGHT
 40
0.0
  9
$STEPSPERSEC
 40
24.0
  9
$STEPSIZE
 40
100.0
  9
$3DDWFPREC
 40
2.0
  9
$PSOLWIDTH
 40
0.005
  9
$PSOLHEIGHT
 40
0.08
  9
$LOFTANG1
 40
1.570796326795
  9
$LOFTANG2
 40
1.570796326795
  9
$LOFTMAG1
 40
0.0
  9
$LOFTMAG2
 40
0.0
  9
$LOFTPARAM
 70
7
  9
$LOFTNORMALS
280
1
  9
$LATITUDE
 40
37.795
  9
$LONGITUDE
 40
-122.394
  9
$NORTHDIRECTION
 40
0.0
  9
$TIMEZONE
 70
-8000
  9
$LIGHTGLYPHDISPLAY
280
1
  9
$TILEMODELIGHTSYNCH
280
1
  9
$CMATERIAL
347
20
  9
$SOLIDHIST
280
0
  9
$SHOWHIST
280
1
  9
$DWFFRAME
280
2
  9
$DGNFRAME
280
2
  9
$REALWORLDSCALE
290
1
  9
$INTERFERECOLOR
 62
256
  9
$CSHADOW
280
0
  9
$SHADOWPLANELOCATION
 40
0.0
  0
ENDSEC
  0
SECTION
  2
CLASSES
  0
CLASS
  1
ACDBDICTIONARYWDFLT
  2
AcDbDictionaryWithDefault
  3
ObjectDBX Classes
 90
0
 91
0
280
0
281
0
  0
CLASS
  1
SUN
  2
AcDbSun
  3
SCENEOE
 90
1153
 91
0
280
0
281
0
  0
CLASS
  1
VISUALSTYLE
  2
AcDbVisualStyle
  3
ObjectDBX Classes
 90
4095
 91
0
280
0
281
0
  0
CLASS
  1
MATERIAL
  2
AcDbMaterial
  3
ObjectDBX Classes
 90
1153
 91
0
280
0
281
0
  0
CLASS
  1
SCALE
  2
AcDbScale
  3
ObjectDBX Classes
 90
1153
 91
0
280
0
281
0
  0
CLASS
  1
TABLESTYLE
  2
AcDbTableStyle
  3
ObjectDBX Classes
 90
4095
 91
0
280
0
281
0
  0
CLASS
  1
MLEADERSTYLE
  2
AcDbMLeaderStyle
  3
ACDB_MLEADERSTYLE_CLASS
 90
4095
 91
0
280
0
281
0
  0
CLASS
  1
DICTIONARYVAR
  2
AcDbDictionaryVar
  3
ObjectDBX Classes
 90
0
 91
0
280
0
281
0
  0
CLASS
  1
CELLSTYLEMAP
  2
AcDbCellStyleMap
  3
ObjectDBX Classes
 90
1152
 91
0
280
0
281
0
  0
CLASS
  1
MENTALRAYRENDERSETTINGS
  2
AcDbMentalRayRenderSettings
  3
SCENEOE
 90
1024
 91
0
280
0
281
0
  0
CLASS
  1
ACDBDETAILVIEWSTYLE
  2
AcDbDetailViewStyle
  3
ObjectDBX Classes
 90
1025
 91
0
280
0
281
0
  0
CLASS
  1
ACDBSECTIONVIEWSTYLE
  2
AcDbSectionViewStyle
  3
ObjectDBX Classes
 90
1025
 91
0
280
0
281
0
  0
CLASS
  1
RASTERVARIABLES
  2
AcDbRasterVariables
  3
ISM
 90
0
 91
0
280
0
281
0
  0
CLASS
  1
ACDBPLACEHOLDER
  2
AcDbPlaceHolder
  3
ObjectDBX Classes
 90
0
 91
0
280
0
281
0
  0
CLASS
  1
LAYOUT
  2
AcDbLayout
  3
ObjectDBX Classes
 90
0
 91
0
280
0
281
0
  0
ENDSEC
  0
SECTION
  2
TABLES
  0
TABLE
  2
VPORT
  5
8
330
0
100
AcDbSymbolTable
 70
1
  0
VPORT
  5
23
330
8
100
AcDbSymbolTableRecord
100
AcDbViewportTableRecord
  2
*Active
 70
0
 10
0.0
 20
0.0
 11
1.0
 21
1.0
 12
0.0
 22
0.0
 13
0.0
 23
0.0
 14
0.5
 24
0.5
 15
0.5
 25
0.5
 16
0.0
 26
0.0
 36
1.0
 17
0.0
 27
0.0
 37
0.0
 40
1000.0
 41
1.34
 42
50.0
 43
0.0
 44
0.0
 50
0.0
 51
0.0
 71
0
 72
1000
 73
1
 74
3
 75
0
 76
0
 77
0
 78
0
281
0
 65
0
146
0.0
  0
ENDTAB
  0
TABLE
  2
LTYPE
  5
2
330
0
100
AcDbSymbolTable
 70
3
  0
LTYPE
  5
24
330
2
100
AcDbSymbolTableRecord
100
AcDbLinetypeTableRecord
  2
ByBlock
 70
0
  3

 72
65
 73
0
 40
0.0
  0
LTYPE
  5
25
330
2
100
AcDbSymbolTableRecord
100
AcDbLinetypeTableRecord
  2
ByLayer
 70
0
  3

 72
65
 73
0
 40
0.0
  0
LTYPE
  5
26
330
2
100
AcDbSymbolTableRecord
100
AcDbLinetypeTableRecord
  2
Continuous
 70
0
  3

 72
65
 73
0
 40
0.0
  0
ENDTAB
  0
TABLE
  2
LAYER
  5
1
330
0
100
AcDbSymbolTable
 70
5
  0
LAYER
  5
27
330
1
100
AcDbSymbolTableRecord
100
AcDbLayerTableRecord
  2
0
 70
0
 62
7
  6
Continuous
370
-3
390
13
347
21
  0
LAYER
  5
28
330
1
100
AcDbSymbolTableRecord
100
AcDbLayerTableRecord
  2
Defpoints
 70
0
 62
7
  6
Continuous
290
0
370
-3
390
13
347
21
  0
LAYER
  5
2F
330
1
100
AcDbSymbolTableRecord
100
AcDbLayerTableRecord
  2
CUT
 70
0
 62
4
  6
Continuous
370
-3
390
13
347
21
  0
LAYER
  5
30
330
1
100
AcDbSymbolTableRecord
100
AcDbLayerTableRecord
  2
DIMENSIONS
 70
0
 62
1
  6
Continuous
370
-3
390
13
347
21
  0
LAYER
  5
31
330
1
100
AcDbSymbolTableRecord
100
AcDbLayerTableRecord
  2
BIN
 70
0
 62
2
  6
Continuous
370
-3
390
13
347
21
  0
ENDTAB
  0
TABLE
  2
STYLE
  5
5
330
0
100
AcDbSymbolTable
 70
1
  0
STYLE
  5
29
330
5
100
AcDbSymbolTableRecord
100
AcDbTextStyleTableRecord
  2
Standard
 70
0
 40
0.0
 41
1.0
 50
0.0
 71
0
 42
2.5
  3
txt
  4

  0
ENDTAB
  0
TABLE
  2
VIEW
  5
7
330
0
100
AcDbSymbolTable
 70
0
  0
ENDTAB
  0
TABLE
  2
UCS
  5
6
330
0
100
AcDbSymbolTable
 70
0
  0
ENDTAB
  0
TABLE
  2
APPID
  5
3
330
0
100
AcDbSymbolTable
 70
3
  0
APPID
  5
2A
330
3
100
AcDbSymbolTableRecord
100
AcDbRegAppTableRecord
  2
ACAD
 70
0
  0
APPID
  5
3B3
330
3
100
AcDbSymbolTableRecord
100
AcDbRegAppTableRecord
  2
HATCHBACKGROUNDCOLOR
 70
0
  0
APPID
  5
3B4
330
3
100
AcDbSymbolTableRecord
100
AcDbRegAppTableRecord
  2
EZDXF
 70
0
  0
ENDTAB
  0
TABLE
  2
DIMSTYLE
  5
4
330
0
100
AcDbSymbolTable
 70
2
100
AcDbDimStyleTable
  0
DIMSTYLE
105
2B
330
4
100
AcDbSymbolTableRecord
100
AcDbDimStyleTableRecord
  2
Standard
 70
0
 40
1.0
 41
2.5
 42
0.625
 43
3.75
 44
1.25
 45
0.0
 46
0.0
 47
0.0
 48
0.0
 49
2.5
140
2.5
141
2.5
142
0.0
143
0.03937007874
144
1.0
145
0.0
146
1.0
147
0.625
148
0.0
 69
0
 70
0
 71
0
 72
0
 73
0
 74
0
 75
0
 76
0
 77
1
 78
8
 79
3
170
0
171
3
172
1
173
0
174
0
175
0
176
0
177
0
178
0
179
2
271
2
272
2
273
2
274
3
275
0
276
0
277
2
278
44
279
0
280
0
281
0
282
0
283
0
284
8
285
0
286
0
288
0
289
3
290
0
371
-2
372
-2
  0
DIMSTYLE
105
32
330
4
100
AcDbSymbolTableRecord
100
AcDbDimStyleTableRecord
  2
DoorDimStyle
 70
0
 40
1.0
 41
2.5
 42
0.625
 43
3.75
 44
1.25
 45
0.0
 46
0.0
 47
0.0
 48
0.0
 49
2.5
140
2.5
141
2.5
142
0.0
143
0.03937007874
144
1.0
145
0.0
146
1.0
147
0.625
148
0.0
 69
0
 70
0
 71
0
 72
0
 73
0
 74
0
 75
0
 76
0
 77
1
 78
8
 79
3
170
0
171
3
172
1
173
0
174
0
175
0
176
7
177
7
178
7
179
2
271
2
272
2
273
2
274
3
275
0
276
0
277
2
278
44
279
0
280
0
281
0
282
0
283
0
284
8
285
0
286
0
288
0
289
3
290
0
340
29
371
-2
372
-2
  0
ENDTAB
  0
TABLE
  2
BLOCK_RECORD
  5
9
330
0
100
AcDbSymbolTable
 70
61
  0
BLOCK_RECORD
  5
17
330
9
100
AcDbSymbolTableRecord
100
AcDbBlockTableRecord
  2
*Model_Space
340
1A
 70
0
280
1
281
0
  0
BLOCK_RECORD
  5
1B
330
9
100
AcDbSymbolTableRecord
100
AcDbBlockTableRecord
  2
*Paper_Space
340
1E
 70
0
280
1
281
0
  0
BLOCK_RECORD
  5
41
330
9
100
AcDbSymbolTableRecord
100
AcDbBlockTableRecord
  2
*D1
340
0
 70
0
280
1
281
0
  0
BLOCK_RECORD
  5
46
330
9
100
AcDbSymbolTableRecord
100
AcDbBlockTableRecord
  2
_CLOSEDFILLED
340
0
 70
0
280
1
281
0
  0
BLOCK_RECORD
  5
54
330
9
100
AcDbSymbolTableRecord
100
AcDbBlockTableRecord
  2
*D2
340
0
 70
0
280
1
281
0
  0
BLOCK_RECORD
  5
63
330
9
100
AcDbSymbolTableRecord
100
AcDbBlockTableRecord
  2
*D3
340
0
 70
0
280
1
281
0
  0
BLOCK_RECORD
  5
72
330
9
100
AcDbSymbolTableRecord
100
AcDbBlockTableRecord
  2
*D4
340
0
 70
0
280
1
281
0
  0
BLOCK_RECORD
  5
81
330
9
100
AcDbSymbolTableRecord
100
AcDbBlockTableRecord
  2
*D5
340
0
 70
0
280
1
281
0
  0
BLOCK_RECORD
  5
90
330
9
100
AcDbSymbolTableRecord
100
AcDbBlockTableRecord
  2
*D6
340
0
 70
0
280
1
281
0
  0
BLOCK_RECORD
  5
9F
330
9
100
AcDbSymbolTableRecord
100
AcDbBlockTableRecord
  2
*D7
340
0
 70
0
280
1
281
0
  0
BLOCK_RECORD
  5
AE
330
9
100
AcDbSymbolTableRecord
100
AcDbBlockTableRecord
  2
*D8
340
0
 70
0
280
1
281
0
  0
BLOCK_RECORD
  5
BD
330
9
100
AcDbSymbolTableRecord
100
AcDbBlockTableRecord
  2
*D9
340
0
 70
0
280
1
281
0
  0
BLOCK_RECORD
  5
CC
330
9
100
AcDbSymbolTableRecord
100
AcDbBlockTableRecord
  2
*D10
340
0
 70
0
280
1
281
0
  0
BLOCK_RECORD
  5
DB
330
9
100
AcDbSymbolTableRecord
100
AcDbBlockTableRecord
  2
*D11
340
0
 70
0
280
1
281
0
  0
BLOCK_RECORD
  5
EA
330
9
100
AcDbSymbolTableRecord
100
AcDbBlockTableRecord
  2
*D12
340
0
 70
0
280
1
281
0
  0
BLOCK_RECORD
  5
F9
330
9
100
AcDbSymbolTableRecord
100
AcDbBlockTableRecord
  2
*D13
340
0
 70
0
280
1
281
0
  0
BLOCK_RECORD
  5
108
330
9
100
AcDbSymbolTableRecord
100
AcDbBlockTableRecord
  2
*D14
340
0
 70
0
280
1
281
0
  0
BLOCK_RECORD
  5
117
330
9
100
AcDbSymbolTableRecord
100
AcDbBlockTableRecord
  2
*D15
340
0
 70
0
280
1
281
0
  0
BLOCK_RECORD
  5
126
330
9
100
AcDbSymbolTableRecord
100
AcDbBlockTableRecord
  2
*D16
340
0
 70
0
280
1
281
0
  0
BLOCK_RECORD
  5
135
330
9
100
AcDbSymbolTableRecord
100
AcDbBlockTableRecord
  2
*D17
340
0
 70
0
280
1
281
0
  0
BLOCK_RECORD
  5
144
330
9
100
AcDbSymbolTableRecord
100
AcDbBlockTableRecord
  2
*D18
340
0
 70
0
280
1
281
0
  0
BLOCK_RECORD
  5
153
330
9
100
AcDbSymbolTableRecord
100
AcDbBlockTableRecord
  2
*D19
340
0
 70
0
280
1
281
0
  0
BLOCK_RECORD
  5
162
330
9
100
AcDbSymbolTableRecord
100
AcDbBlockTableRecord
  2
*D20
340
0
 70
0
280
1
281
0
  0
BLOCK_RECORD
  5
171
330
9
100
AcDbSymbolTableRecord
100
AcDbBlockTableRecord
  2
*D21
340
0
 70
0
280
1
281
0
  0
BLOCK_RECORD
  5
180
330
9
100
AcDbSymbolTableRecord
100
AcDbBlockTableRecord
  2
*D22
340
0
 70
0
280
1
281
0
  0
BLOCK_RECORD
  5
18F
330
9
100
AcDbSymbolTableRecord
100
AcDbBlockTableRecord
  2
*D23
340
0
 70
0
280
1
281
0
  0
BLOCK_RECORD
  5
19E
330
9
100
AcDbSymbolTableRecord
100
AcDbBlockTableRecord
  2
*D24
340
0
 70
0
280
1
281
0
  0
BLOCK_RECORD
  5
1AD
330
9
100
AcDbSymbolTableRecord
100
AcDbBlockTableRecord
  2
*D25
340
0
 70
0
280
1
281
0
  0
BLOCK_RECORD
  5
1BC
330
9
100
AcDbSymbolTableRecord
100
AcDbBlockTableRecord
  2
*D26
340
0
 70
0
280
1
281
0
  0
BLOCK_RECORD
  5
1CB
330
9
100
AcDbSymbolTableRecord
100
AcDbBlockTableRecord
  2
*D27
340
0
 70
0
280
1
281
0
  0
BLOCK_RECORD
  5
1DA
330
9
100
AcDbSymbolTableRecord
100
AcDbBlockTableRecord
  2
*D28
340
0
 70
0
280
1
281
0
  0
BLOCK_RECORD
  5
1E9
330
9
100
AcDbSymbolTableRecord
100
AcDbBlockTableRecord
  2
*D29
340
0
 70
0
280
1
281
0
  0
BLOCK_RECORD
  5
1F8
330
9
100
AcDbSymbolTableRecord
100
AcDbBlockTableRecord
  2
*D30
340
0
 70
0
280
1
281
0
  0
BLOCK_RECORD
  5
207
330
9
100
AcDbSymbolTableRecord
100
AcDbBlockTableRecord
  2
*D31
340
0
 70
0
280
1
281
0
  0
BLOCK_RECORD
  5
216
330
9
100
AcDbSymbolTableRecord
100
AcDbBlockTableRecord
  2
*D32
340
0
 70
0
280
1
281
0
  0
BLOCK_RECORD
  5
225
330
9
100
AcDbSymbolTableRecord
100
AcDbBlockTableRecord
  2
*D33
340
0
 70
0
280
1
281
0
  0
BLOCK_RECORD
  5
234
330
9
100
AcDbSymbolTableRecord
100
AcDbBlockTableRecord
  2
*D34
340
0
 70
0
280
1
281
0
  0
BLOCK_RECORD
  5
243
330
9
100
AcDbSymbolTableRecord
100
AcDbBlockTableRecord
  2
*D35
340
0
 70
0
280
1
281
0
  0
BLOCK_RECORD
  5
252
330
9
100
AcDbSymbolTableRecord
100
AcDbBlockTableRecord
  2
*D36
340
0
 70
0
280
1
281
0
  0
BLOCK_RECORD
  5
261
330
9
100
AcDbSymbolTableRecord
100
AcDbBlockTableRecord
  2
*D37
340
0
 70
0
280
1
281
0
  0
BLOCK_RECORD
  5
270
330
9
100
AcDbSymbolTableRecord
100
AcDbBlockTableRecord
  2
*D38
340
0
 70
0
280
1
281
0
  0
BLOCK_RECORD
  5
27F
330
9
100
AcDbSymbolTableRecord
100
AcDbBlockTableRecord
  2
*D39
340
0
 70
0
280
1
281
0
  0
BLOCK_RECORD
  5
28E
330
9
100
AcDbSymbolTableRecord
100
AcDbBlockTableRecord
  2
*D40
340
0
 70
0
280
1
281
0
  0
BLOCK_RECORD
  5
29D
330
9
100
AcDbSymbolTableRecord
100
AcDbBlockTableRecord
  2
*D41
340
0
 70
0
280
1
281
0
  0
BLOCK_RECORD
  5
2AC
330
9
100
AcDbSymbolTableRecord
100
AcDbBlockTableRecord
  2
*D42
340
0
 70
0
280
1
281
0
  0
BLOCK_RECORD
  5
2BB
330
9
100
AcDbSymbolTableRecord
100
AcDbBlockTableRecord
  2
*D43
340
0
 70
0
280
1
281
0
  0
BLOCK_RECORD
  5
2CA
330
9
100
AcDbSymbolTableRecord
100
AcDbBlockTableRecord
  2
*D44
340
0
 70
0
280
1
281
0
  0
BLOCK_RECORD
  5
2D9
330
9
100
AcDbSymbolTableRecord
100
AcDbBlockTableRecord
  2
*D45
340
0
 70
0
280
1
281
0
  0
BLOCK_RECORD
  5
2E6
330
9
100
AcDbSymbolTableRecord
100
AcDbBlockTableRecord
  2
*D46
340
0
 70
0
280
1
281
0
  0
BLOCK_RECORD
  5
2F5
330
9
100
AcDbSymbolTableRecord
100
AcDbBlockTableRecord
  2
*D47
340
0
 70
0
280
1
281
0
  0
BLOCK_RECORD
  5
304
330
9
100
AcDbSymbolTableRecord
100
AcDbBlockTableRecord
  2
*D48
340
0
 70
0
280
1
281
0
  0
BLOCK_RECORD
  5
311
330
9
100
AcDbSymbolTableRecord
100
AcDbBlockTableRecord
  2
*D49
340
0
 70
0
280
1
281
0
  0
BLOCK_RECORD
  5
320
330
9
100
AcDbSymbolTableRecord
100
AcDbBlockTableRecord
  2
*D50
340
0
 70
0
280
1
281
0
  0
BLOCK_RECORD
  5
32F
330
9
100
AcDbSymbolTableRecord
100
AcDbBlockTableRecord
  2
*D51
340
0
 70
0
280
1
281
0
  0
BLOCK_RECORD
  5
33E
330
9
100
AcDbSymbolTableRecord
100
AcDbBlockTableRecord
  2
*D52
340
0
 70
0
280
1
281
0
  0
BLOCK_RECORD
  5
34F
330
9
100
AcDbSymbolTableRecord
100
AcDbBlockTableRecord
  2
*D53
340
0
 70
0
280
1
281
0
  0
BLOCK_RECORD
  5
360
330
9
100
AcDbSymbolTableRecord
100
AcDbBlockTableRecord
  2
*D54
340
0
 70
0
280
1
281
0
  0
BLOCK_RECORD
  5
371
330
9
100
AcDbSymbolTableRecord
100
AcDbBlockTableRecord
  2
*D55
340
0
 70
0
280
1
281
0
  0
BLOCK_RECORD
  5
382
330
9
100
AcDbSymbolTableRecord
100
AcDbBlockTableRecord
  2
*D56
340
0
 70
0
280
1
281
0
  0
BLOCK_RECORD
  5
391
330
9
100
AcDbSymbolTableRecord
100
AcDbBlockTableRecord
  2
*D57
340
0
 70
0
280
1
281
0
  0
BLOCK_RECORD
  5
3A2
330
9
100
AcDbSymbolTableRecord
100
AcDbBlockTableRecord
  2
*D58
340
0
 70
0
280
1
281
0
  0
ENDTAB
  0
ENDSEC
  0
SECTION
  2
BLOCKS
  0
BLOCK
  5
18
330
17
100
AcDbEntity
  8
0
100
AcDbBlockBegin
  2
*Model_Space
 70
0
 10
0.0
 20
0.0
 30
0.0
  3
*Model_Space
  1

  0
ENDBLK
  5
19
330
17
100
AcDbEntity
  8
0
100
AcDbBlockEnd
  0
BLOCK
  5
1C
330
1B
100
AcDbEntity
  8
0
100
AcDbBlockBegin
  2
*Paper_Space
 70
0
 10
0.0
 20
0.0
 30
0.0
  3
*Paper_Space
  1

  0
ENDBLK
  5
1D
330
1B
100
AcDbEntity
  8
0
100
AcDbBlockEnd
  0
BLOCK
  5
42
330
41
100
AcDbEntity
  8
0
100
AcDbBlockBegin
  2
*D1
 70
1
 10
0.0
 20
0.0
 30
0.0
  3
*D1
  1

  0
LINE
  5
44
330
41
100
AcDbEntity
  8
0
 62
7
100
AcDbLine
 10
655.5
 20
9.0
 30
0.0
 11
655.5
 21
4.0
 31
0.0
  0
LINE
  5
45
330
41
100
AcDbEntity
  8
0
 62
7
100
AcDbLine
 10
1296.0
 20
9.0
 30
0.0
 11
1296.0
 21
4.0
 31
0.0
  0
INSERT
  5
4A
330
41
100
AcDbEntity
  8
0
 62
7
100
AcDbBlockReference
  2
_CLOSEDFILLED
 10
655.5
 20
7.0
 30
0.0
 41
6.0
 42
6.0
 50
180.0
  0
INSERT
  5
4C
330
41
100
AcDbEntity
  8
0
 62
7
100
AcDbBlockReference
  2
_CLOSEDFILLED
 10
1296.0
 20
7.0
 30
0.0
 41
6.0
 42
6.0
  0
LINE
  5
4E
330
41
100
AcDbEntity
  8
0
 62
7
100
AcDbLine
 10
661.5
 20
6.999999999999999
 30
0.0
 11
1290.0
 21
7.0
 31
0.0
  0
MTEXT
  5
4F
330
41
100
AcDbEntity
  8
0
 62
7
100
AcDbMText
 10
975.75
 20
12.625
 30
0.0
 40
10.0
 71
5
  1
640,5
  0
POINT
  5
50
330
41
100
AcDbEntity
  8
Defpoints
100
AcDbPoint
 10
655.5
 20
7.0
 30
0.0
  0
POINT
  5
51
330
41
100
AcDbEntity
  8
Defpoints
100
AcDbPoint
 10
655.5
 20
12.0
 30
0.0
  0
POINT
  5
52
330
41
100
AcDbEntity
  8
Defpoints
100
AcDbPoint
 10
1296.0
 20
12.0
 30
0.0
  0
ENDBLK
  5
43
330
41
100
AcDbEntity
  8
0
100
AcDbBlockEnd
  0
BLOCK
  5
47
330
46
100
AcDbEntity
  8
0
100
AcDbBlockBegin
  2
_CLOSEDFILLED
 70
0
 10
0.0
 20
0.0
 30
0.0
  3
_CLOSEDFILLED
  1

  0
SOLID
  5
49
330
46
100
AcDbEntity
  8
0
  6
BYBLOCK
 62
0
100
AcDbTrace
 10
-1.0
 20
0.16439898372402537
 30
0.0
 11
0.0
 21
0.0
 31
0.0
 12
-1.0
 22
-0.16439898372402537
 32
0.0
 13
-1.0
 23
-0.16439898372402537
 33
0.0
  0
ENDBLK
  5
48
330
46
100
AcDbEntity
  8
0
100
AcDbBlockEnd
  0
BLOCK
  5
55
330
54
100
AcDbEntity
  8
0
100
AcDbBlockBegin
  2
*D2
 70
1
 10
0.0
 20
0.0
 30
0.0
  3
*D2
  1

  0
LINE
  5
57
330
54
100
AcDbEntity
  8
0
 62
7
100
AcDbLine
 10
652.5
 20
12.0
 30
0.0
 11
647.5
 21
12.0
 31
0.0
  0
LINE
  5
58
330
54
100
AcDbEntity
  8
0
 62
7
100
AcDbLine
 10
652.5
 20
1607.0
 30
0.0
 11
647.5
 21
1607.0
 31
0.0
  0
INSERT
  5
59
330
54
100
AcDbEntity
  8
0
 62
7
100
AcDbBlockReference
  2
_CLOSEDFILLED
 10
650.5
 20
12.0
 30
0.0
 41
6.0
 42
6.0
 50
270.0
  0
INSERT
  5
5B
330
54
100
AcDbEntity
  8
0
 62
7
100
AcDbBlockReference
  2
_CLOSEDFILLED
 10
650.5
 20
1607.0
 30
0.0
 41
6.0
 42
6.0
 50
90.0
  0
LINE
  5
5D
330
54
100
AcDbEntity
  8
0
 62
7
100
AcDbLine
 10
650.5
 20
18.0
 30
0.0
 11
650.5
 21
1601.0
 31
0.0
  0
MTEXT
  5
5E
330
54
100
AcDbEntity
  8
0
 62
7
100
AcDbMText
 10
644.875
 20
809.5
 30
0.0
 40
10.0
 71
5
  1
1595
 50
90.0
  0
POINT
  5
5F
330
54
100
AcDbEntity
  8
Defpoints
100
AcDbPoint
 10
650.5
 20
12.0
 30
0.0
  0
POINT
  5
60
330
54
100
AcDbEntity
  8
Defpoints
100
AcDbPoint
 10
655.5
 20
12.0
 30
0.0
  0
POINT
  5
61
330
54
100
AcDbEntity
  8
Defpoints
100
AcDbPoint
 10
655.5
 20
1607.0
 30
0.0
  0
ENDBLK
  5
56
330
54
100
AcDbEntity
  8
0
100
AcDbBlockEnd
  0
BLOCK
  5
64
330
63
100
AcDbEntity
  8
0
100
AcDbBlockBegin
  2
*D3
 70
1
 10
0.0
 20
0.0
 30
0.0
  3
*D3
  1

  0
LINE
  5
66
330
63
100
AcDbEntity
  8
0
 62
7
100
AcDbLine
 10
674.5
 20
1622.0
 30
0.0
 11
674.5
 21
1627.0
 31
0.0
  0
LINE
  5
67
330
63
100
AcDbEntity
  8
0
 62
7
100
AcDbLine
 10
1284.0
 20
1622.0
 30
0.0
 11
1284.0
 21
1627.0
 31
0.0
  0
INSERT
  5
68
330
63
100
AcDbEntity
  8
0
 62
7
100
AcDbBlockReference
  2
_CLOSEDFILLED
 10
674.5
 20
1624.0
 30
0.0
 41
6.0
 42
6.0
 50
180.0
  0
INSERT
  5
6A
330
63
100
AcDbEntity
  8
0
 62
7
100
AcDbBlockReference
  2
_CLOSEDFILLED
 10
1284.0
 20
1624.0
 30
0.0
 41
6.0
 42
6.0
  0
LINE
  5
6C
330
63
100
AcDbEntity
  8
0
 62
7
100
AcDbLine
 10
680.5
 20
1624.0
 30
0.0
 11
1278.0
 21
1624.0
 31
0.0
  0
MTEXT
  5
6D
330
63
100
AcDbEntity
  8
0
 62
7
100
AcDbMText
 10
979.25
 20
1629.625
 30
0.0
 40
10.0
 71
5
  1
609,5
  0
POINT
  5
6E
330
63
100
AcDbEntity
  8
Defpoints
100
AcDbPoint
 10
674.5
 20
1624.0
 30
0.0
  0
POINT
  5
6F
330
63
100
AcDbEntity
  8
Defpoints
100
AcDbPoint
 10
674.5
 20
1619.0
 30
0.0
  0
POINT
  5
70
330
63
100
AcDbEntity
  8
Defpoints
100
AcDbPoint
 10
1284.0
 20
1619.0
 30
0.0
  0
ENDBLK
  5
65
330
63
100
AcDbEntity
  8
0
100
AcDbBlockEnd
  0
BLOCK
  5
73
330
72
100
AcDbEntity
  8
0
100
AcDbBlockBegin
  2
*D4
 70
1
 10
0.0
 20
0.0
 30
0.0
  3
*D4
  1

  0
LINE
  5
75
330
72
100
AcDbEntity
  8
0
 62
7
100
AcDbLine
 10
1287.0
 20
0.0
 30
0.0
 11
1292.0
 21
0.0
 31
0.0
  0
LINE
  5
76
330
72
100
AcDbEntity
  8
0
 62
7
100
AcDbLine
 10
1287.0
 20
1619.0
 30
0.0
 11
1292.0
 21
1619.0
 31
0.0
  0
INSERT
  5
77
330
72
100
AcDbEntity
  8
0
 62
7
100
AcDbBlockReference
  2
_CLOSEDFILLED
 10
1289.0
 20
0.0
 30
0.0
 41
6.0
 42
6.0
 50
270.0
  0
INSERT
  5
79
330
72
100
AcDbEntity
  8
0
 62
7
100
AcDbBlockReference
  2
_CLOSEDFILLED
 10
1289.0
 20
1619.0
 30
0.0
 41
6.0
 42
6.0
 50
90.0
  0
LINE
  5
7B
330
72
100
AcDbEntity
  8
0
 62
7
100
AcDbLine
 10
1289.0
 20
6.0
 30
0.0
 11
1289.0
 21
1613.0
 31
0.0
  0
MTEXT
  5
7C
330
72
100
AcDbEntity
  8
0
 62
7
100
AcDbMText
 10
1283.375
 20
809.5
 30
0.0
 40
10.0
 71
5
  1
1619
 50
90.0
  0
POINT
  5
7D
330
72
100
AcDbEntity
  8
Defpoints
100
AcDbPoint
 10
1289.0
 20
0.0
 30
0.0
  0
POINT
  5
7E
330
72
100
AcDbEntity
  8
Defpoints
100
AcDbPoint
 10
1284.0
 20
0.0
 30
0.0
  0
POINT
  5
7F
330
72
100
AcDbEntity
  8
Defpoints
100
AcDbPoint
 10
1284.0
 20
1619.0
 30
0.0
  0
ENDBLK
  5
74
330
72
100
AcDbEntity
  8
0
100
AcDbBlockEnd
  0
BLOCK
  5
82
330
81
100
AcDbEntity
  8
0
100
AcDbBlockBegin
  2
*D5
 70
1
 10
0.0
 20
0.0
 30
0.0
  3
*D5
  1

  0
LINE
  5
84
330
81
100
AcDbEntity
  8
0
 62
7
100
AcDbLine
 10
0.0
 20
9.0
 30
0.0
 11
0.0
 21
4.0
 31
0.0
  0
LINE
  5
85
330
81
100
AcDbEntity
  8
0
 62
7
100
AcDbLine
 10
652.5
 20
9.0
 30
0.0
 11
652.5
 21
4.0
 31
0.0
  0
INSERT
  5
86
330
81
100
AcDbEntity
  8
0
 62
7
100
AcDbBlockReference
  2
_CLOSEDFILLED
 10
0.0
 20
7.0
 30
0.0
 41
6.0
 42
6.0
 50
180.0
  0
INSERT
  5
88
330
81
100
AcDbEntity
  8
0
 62
7
100
AcDbBlockReference
  2
_CLOSEDFILLED
 10
652.5
 20
7.0
 30
0.0
 41
6.0
 42
6.0
  0
LINE
  5
8A
330
81
100
AcDbEntity
  8
0
 62
7
100
AcDbLine
 10
6.0
 20
6.999999999999999
 30
0.0
 11
646.5
 21
7.0
 31
0.0
  0
MTEXT
  5
8B
330
81
100
AcDbEntity
  8
0
 62
7
100
AcDbMText
 10
326.25
 20
12.625
 30
0.0
 40
10.0
 71
5
  1
652,5
  0
POINT
  5
8C
330
81
100
AcDbEntity
  8
Defpoints
100
AcDbPoint
 10
0.0
 20
7.0
 30
0.0
  0
POINT
  5
8D
330
81
100
AcDbEntity
  8
Defpoints
100
AcDbPoint
 10
0.0
 20
12.0
 30
0.0
  0
POINT
  5
8E
330
81
100
AcDbEntity
  8
Defpoints
100
AcDbPoint
 10
652.5
 20
12.0
 30
0.0
  0
ENDBLK
  5
83
330
81
100
AcDbEntity
  8
0
100
AcDbBlockEnd
  0
BLOCK
  5
91
330
90
100
AcDbEntity
  8
0
100
AcDbBlockBegin
  2
*D6
 70
1
 10
0.0
 20
0.0
 30
0.0
  3
*D6
  1

  0
LINE
  5
93
330
90
100
AcDbEntity
  8
0
 62
7
100
AcDbLine
 10
-3.0
 20
12.0
 30
0.0
 11
-8.0
 21
12.0
 31
0.0
  0
LINE
  5
94
330
90
100
AcDbEntity
  8
0
 62
7
100
AcDbLine
 10
-3.0
 20
1607.0
 30
0.0
 11
-8.0
 21
1607.0
 31
0.0
  0
INSERT
  5
95
330
90
100
AcDbEntity
  8
0
 62
7
100
AcDbBlockReference
  2
_CLOSEDFILLED
 10
-5.0
 20
12.0
 30
0.0
 41
6.0
 42
6.0
 50
270.0
  0
INSERT
  5
97
330
90
100
AcDbEntity
  8
0
 62
7
100
AcDbBlockReference
  2
_CLOSEDFILLED
 10
-5.0
 20
1607.0
 30
0.0
 41
6.0
 42
6.0
 50
90.0
  0
LINE
  5
99
330
90
100
AcDbEntity
  8
0
 62
7
100
AcDbLine
 10
-4.999999999999999
 20
18.0
 30
0.0
 11
-5.0
 21
1601.0
 31
0.0
  0
MTEXT
  5
9A
330
90
100
AcDbEntity
  8
0
 62
7
100
AcDbMText
 10
-10.625
 20
809.5
 30
0.0
 40
10.0
 71
5
  1
1595
 50
90.0
  0
POINT
  5
9B
330
90
100
AcDbEntity
  8
Defpoints
100
AcDbPoint
 10
-5.0
 20
12.0
 30
0.0
  0
POINT
  5
9C
330
90
100
AcDbEntity
  8
Defpoints
100
AcDbPoint
 10
0.0
 20
12.0
 30
0.0
  0
POINT
  5
9D
330
90
100
AcDbEntity
  8
Defpoints
100
AcDbPoint
 10
0.0
 20
1607.0
 30
0.0
  0
ENDBLK
  5
92
330
90
100
AcDbEntity
  8
0
100
AcDbBlockEnd
  0
BLOCK
  5
A0
330
9F
100
AcDbEntity
  8
0
100
AcDbBlockBegin
  2
*D7
 70
1
 10
0.0
 20
0.0
 30
0.0
  3
*D7
  1

  0
LINE
  5
A2
330
9F
100
AcDbEntity
  8
0
 62
7
100
AcDbLine
 10
12.0
 20
1622.0
 30
0.0
 11
12.0
 21
1627.0
 31
0.0
  0
LINE
  5
A3
330
9F
100
AcDbEntity
  8
0
 62
7
100
AcDbLine
 10
621.5
 20
1622.0
 30
0.0
 11
621.5
 21
1627.0
 31
0.0
  0
INSERT
  5
A4
330
9F
100
AcDbEntity
  8
0
 62
7
100
AcDbBlockReference
  2
_CLOSEDFILLED
 10
12.0
 20
1624.0
 30
0.0
 41
6.0
 42
6.0
 50
180.0
  0
INSERT
  5
A6
330
9F
100
AcDbEntity
  8
0
 62
7
100
AcDbBlockReference
  2
_CLOSEDFILLED
 10
621.5
 20
1624.0
 30
0.0
 41
6.0
 42
6.0
  0
LINE
  5
A8
330
9F
100
AcDbEntity
  8
0
 62
7
100
AcDbLine
 10
18.0
 20
1624.0
 30
0.0
 11
615.5
 21
1624.0
 31
0.0
  0
MTEXT
  5
A9
330
9F
100
AcDbEntity
  8
0
 62
7
100
AcDbMText
 10
316.75
 20
1629.625
 30
0.0
 40
10.0
 71
5
  1
609,5
  0
POINT
  5
AA
330
9F
100
AcDbEntity
  8
Defpoints
100
AcDbPoint
 10
12.0
 20
1624.0
 30
0.0
  0
POINT
  5
AB
330
9F
100
AcDbEntity
  8
Defpoints
100
AcDbPoint
 10
12.0
 20
1619.0
 30
0.0
  0
POINT
  5
AC
330
9F
100
AcDbEntity
  8
Defpoints
100
AcDbPoint
 10
621.5
 20
1619.0
 30
0.0
  0
ENDBLK
  5
A1
330
9F
100
AcDbEntity
  8
0
100
AcDbBlockEnd
  0
BLOCK
  5
AF
330
AE
100
AcDbEntity
  8
0
100
AcDbBlockBegin
  2
*D8
 70
1
 10
0.0
 20
0.0
 30
0.0
  3
*D8
  1

  0
LINE
  5
B1
330
AE
100
AcDbEntity
  8
0
 62
7
100
AcDbLine
 10
624.5
 20
0.0
 30
0.0
 11
629.5
 21
0.0
 31
0.0
  0
LINE
  5
B2
330
AE
100
AcDbEntity
  8
0
 62
7
100
AcDbLine
 10
624.5
 20
1619.0
 30
0.0
 11
629.5
 21
1619.0
 31
0.0
  0
INSERT
  5
B3
330
AE
100
AcDbEntity
  8
0
 62
7
100
AcDbBlockReference
  2
_CLOSEDFILLED
 10
626.5
 20
0.0
 30
0.0
 41
6.0
 42
6.0
 50
270.0
  0
INSERT
  5
B5
330
AE
100
AcDbEntity
  8
0
 62
7
100
AcDbBlockReference
  2
_CLOSEDFILLED
 10
626.5
 20
1619.0
 30
0.0
 41
6.0
 42
6.0
 50
90.0
  0
LINE
  5
B7
330
AE
100
AcDbEntity
  8
0
 62
7
100
AcDbLine
 10
626.5
 20
6.0
 30
0.0
 11
626.5
 21
1613.0
 31
0.0
  0
MTEXT
  5
B8
330
AE
100
AcDbEntity
  8
0
 62
7
100
AcDbMText
 10
620.875
 20
809.5
 30
0.0
 40
10.0
 71
5
  1
1619
 50
90.0
  0
POINT
  5
B9
330
AE
100
AcDbEntity
  8
Defpoints
100
AcDbPoint
 10
626.5
 20
0.0
 30
0.0
  0
POINT
  5
BA
330
AE
100
AcDbEntity
  8
Defpoints
100
AcDbPoint
 10
621.5
 20
0.0
 30
0.0
  0
POINT
  5
BB
330
AE
100
AcDbEntity
  8
Defpoints
100
AcDbPoint
 10
621.5
 20
1619.0
 30
0.0
  0
ENDBLK
  5
B0
330
AE
100
AcDbEntity
  8
0
100
AcDbBlockEnd
  0
BLOCK
  5
BE
330
BD
100
AcDbEntity
  8
0
100
AcDbBlockBegin
  2
*D9
 70
1
 10
0.0
 20
0.0
 30
0.0
  3
*D9
  1

  0
LINE
  5
C0
330
BD
100
AcDbEntity
  8
0
 62
7
100
AcDbLine
 10
566.5
 20
756.5
 30
0.0
 11
566.5
 21
762.5
 31
0.0
  0
LINE
  5
C1
330
BD
100
AcDbEntity
  8
0
 62
7
100
AcDbLine
 10
591.5
 20
756.5
 30
0.0
 11
591.5
 21
762.5
 31
0.0
  0
INSERT
  5
C2
330
BD
100
AcDbEntity
  8
0
 62
7
100
AcDbBlockReference
  2
_CLOSEDFILLED
 10
566.5
 20
759.5
 30
0.0
 41
6.0
 42
6.0
 50
180.0
  0
INSERT
  5
C4
330
BD
100
AcDbEntity
  8
0
 62
7
100
AcDbBlockReference
  2
_CLOSEDFILLED
 10
591.5
 20
759.5
 30
0.0
 41
6.0
 42
6.0
  0
LINE
  5
C6
330
BD
100
AcDbEntity
  8
0
 62
7
100
AcDbLine
 10
572.5
 20
759.5
 30
0.0
 11
585.5
 21
759.5
 31
0.0
  0
MTEXT
  5
C7
330
BD
100
AcDbEntity
  8
0
 62
7
100
AcDbMText
 10
579.0
 20
765.125
 30
0.0
 40
10.0
 71
5
  1
25
  0
POINT
  5
C8
330
BD
100
AcDbEntity
  8
Defpoints
100
AcDbPoint
 10
566.5
 20
759.5
 30
0.0
  0
POINT
  5
C9
330
BD
100
AcDbEntity
  8
Defpoints
100
AcDbPoint
 10
566.5
 20
753.5
 30
0.0
  0
POINT
  5
CA
330
BD
100
AcDbEntity
  8
Defpoints
100
AcDbPoint
 10
591.5
 20
753.5
 30
0.0
  0
ENDBLK
  5
BF
330
BD
100
AcDbEntity
  8
0
100
AcDbBlockEnd
  0
BLOCK
  5
CD
330
CC
100
AcDbEntity
  8
0
100
AcDbBlockBegin
  2
*D10
 70
1
 10
0.0
 20
0.0
 30
0.0
  3
*D10
  1

  0
LINE
  5
CF
330
CC
100
AcDbEntity
  8
0
 62
7
100
AcDbLine
 10
594.5
 20
753.5
 30
0.0
 11
600.5
 21
753.5
 31
0.0
  0
LINE
  5
D0
330
CC
100
AcDbEntity
  8
0
 62
7
100
AcDbLine
 10
594.5
 20
865.5
 30
0.0
 11
600.5
 21
865.5
 31
0.0
  0
INSERT
  5
D1
330
CC
100
AcDbEntity
  8
0
 62
7
100
AcDbBlockReference
  2
_CLOSEDFILLED
 10
597.5
 20
753.5
 30
0.0
 41
6.0
 42
6.0
 50
270.0
  0
INSERT
  5
D3
330
CC
100
AcDbEntity
  8
0
 62
7
100
AcDbBlockReference
  2
_CLOSEDFILLED
 10
597.5
 20
865.5
 30
0.0
 41
6.0
 42
6.0
 50
90.0
  0
LINE
  5
D5
330
CC
100
AcDbEntity
  8
0
 62
7
100
AcDbLine
 10
597.5
 20
759.5
 30
0.0
 11
597.5
 21
859.5
 31
0.0
  0
MTEXT
  5
D6
330
CC
100
AcDbEntity
  8
0
 62
7
100
AcDbMText
 10
591.875
 20
809.5
 30
0.0
 40
10.0
 71
5
  1
112
 50
90.0
  0
POINT
  5
D7
330
CC
100
AcDbEntity
  8
Defpoints
100
AcDbPoint
 10
597.5
 20
753.5
 30
0.0
  0
POINT
  5
D8
330
CC
100
AcDbEntity
  8
Defpoints
100
AcDbPoint
 10
591.5
 20
753.5
 30
0.0
  0
POINT
  5
D9
330
CC
100
AcDbEntity
  8
Defpoints
100
AcDbPoint
 10
591.5
 20
865.5
 30
0.0
  0
ENDBLK
  5
CE
330
CC
100
AcDbEntity
  8
0
100
AcDbBlockEnd
  0
BLOCK
  5
DC
330
DB
100
AcDbEntity
  8
0
100
AcDbBlockBegin
  2
*D11
 70
1
 10
0.0
 20
0.0
 30
0.0
  3
*D11
  1

  0
LINE
  5
DE
330
DB
100
AcDbEntity
  8
0
 62
7
100
AcDbLine
 10
704.5
 20
756.5
 30
0.0
 11
704.5
 21
765.5
 31
0.0
  0
LINE
  5
DF
330
DB
100
AcDbEntity
  8
0
 62
7
100
AcDbLine
 10
729.5
 20
756.5
 30
0.0
 11
729.5
 21
765.5
 31
0.0
  0
INSERT
  5
E0
330
DB
100
AcDbEntity
  8
0
 62
7
100
AcDbBlockReference
  2
_CLOSEDFILLED
 10
704.5
 20
762.5
 30
0.0
 41
6.0
 42
6.0
 50
180.0
  0
INSERT
  5
E2
330
DB
100
AcDbEntity
  8
0
 62
7
100
AcDbBlockReference
  2
_CLOSEDFILLED
 10
729.5
 20
762.5
 30
0.0
 41
6.0
 42
6.0
  0
LINE
  5
E4
330
DB
100
AcDbEntity
  8
0
 62
7
100
AcDbLine
 10
710.5
 20
762.5
 30
0.0
 11
723.5
 21
762.5
 31
0.0
  0
MTEXT
  5
E5
330
DB
100
AcDbEntity
  8
0
 62
7
100
AcDbMText
 10
717.0
 20
768.125
 30
0.0
 40
10.0
 71
5
  1
25
  0
POINT
  5
E6
330
DB
100
AcDbEntity
  8
Defpoints
100
AcDbPoint
 10
704.5
 20
762.5
 30
0.0
  0
POINT
  5
E7
330
DB
100
AcDbEntity
  8
Defpoints
100
AcDbPoint
 10
704.5
 20
753.5
 30
0.0
  0
POINT
  5
E8
330
DB
100
AcDbEntity
  8
Defpoints
100
AcDbPoint
 10
729.5
 20
753.5
 30
0.0
  0
ENDBLK
  5
DD
330
DB
100
AcDbEntity
  8
0
100
AcDbBlockEnd
  0
BLOCK
  5
EB
330
EA
100
AcDbEntity
  8
0
100
AcDbBlockBegin
  2
*D12
 70
1
 10
0.0
 20
0.0
 30
0.0
  3
*D12
  1

  0
LINE
  5
ED
330
EA
100
AcDbEntity
  8
0
 62
7
100
AcDbLine
 10
732.5
 20
753.5
 30
0.0
 11
741.5
 21
753.5
 31
0.0
  0
LINE
  5
EE
330
EA
100
AcDbEntity
  8
0
 62
7
100
AcDbLine
 10
732.5
 20
865.5
 30
0.0
 11
741.5
 21
865.5
 31
0.0
  0
INSERT
  5
EF
330
EA
100
AcDbEntity
  8
0
 62
7
100
AcDbBlockReference
  2
_CLOSEDFILLED
 10
738.5
 20
753.5
 30
0.0
 41
6.0
 42
6.0
 50
270.0
  0
INSERT
  5
F1
330
EA
100
AcDbEntity
  8
0
 62
7
100
AcDbBlockReference
  2
_CLOSEDFILLED
 10
738.5
 20
865.5
 30
0.0
 41
6.0
 42
6.0
 50
90.0
  0
LINE
  5
F3
330
EA
100
AcDbEntity
  8
0
 62
7
100
AcDbLine
 10
738.5
 20
759.5
 30
0.0
 11
738.5
 21
859.5
 31
0.0
  0
MTEXT
  5
F4
330
EA
100
AcDbEntity
  8
0
 62
7
100
AcDbMText
 10
732.875
 20
809.5
 30
0.0
 40
10.0
 71
5
  1
112
 50
90.0
  0
POINT
  5
F5
330
EA
100
AcDbEntity
  8
Defpoints
100
AcDbPoint
 10
738.5
 20
753.5
 30
0.0
  0
POINT
  5
F6
330
EA
100
AcDbEntity
  8
Defpoints
100
AcDbPoint
 10
729.5
 20
753.5
 30
0.0
  0
POINT
  5
F7
330
EA
100
AcDbEntity
  8
Defpoints
100
AcDbPoint
 10
729.5
 20
865.5
 30
0.0
  0
ENDBLK
  5
EC
330
EA
100
AcDbEntity
  8
0
100
AcDbBlockEnd
  0
BLOCK
  5
FA
330
F9
100
AcDbEntity
  8
0
100
AcDbBlockBegin
  2
*D13
 70
1
 10
0.0
 20
0.0
 30
0.0
  3
*D13
  1

  0
LINE
  5
FC
330
F9
100
AcDbEntity
  8
0
 62
7
100
AcDbLine
 10
864.5
 20
255.0
 30
0.0
 11
864.5
 21
267.0
 31
0.0
  0
LINE
  5
FD
330
F9
100
AcDbEntity
  8
0
 62
7
100
AcDbLine
 10
1094.0
 20
255.0
 30
0.0
 11
1094.0
 21
267.0
 31
0.0
  0
INSERT
  5
FE
330
F9
100
AcDbEntity
  8
0
 62
7
100
AcDbBlockReference
  2
_CLOSEDFILLED
 10
864.5
 20
264.0
 30
0.0
 41
6.0
 42
6.0
 50
180.0
  0
INSERT
  5
100
330
F9
100
AcDbEntity
  8
0
 62
7
100
AcDbBlockReference
  2
_CLOSEDFILLED
 10
1094.0
 20
264.0
 30
0.0
 41
6.0
 42
6.0
  0
LINE
  5
102
330
F9
100
AcDbEntity
  8
0
 62
7
100
AcDbLine
 10
870.5
 20
264.0
 30
0.0
 11
1088.0
 21
264.0
 31
0.0
  0
MTEXT
  5
103
330
F9
100
AcDbEntity
  8
0
 62
7
100
AcDbMText
 10
979.25
 20
269.625
 30
0.0
 40
10.0
 71
5
  1
229,5
  0
POINT
  5
104
330
F9
100
AcDbEntity
  8
Defpoints
100
AcDbPoint
 10
864.5
 20
264.0
 30
0.0
  0
POINT
  5
105
330
F9
100
AcDbEntity
  8
Defpoints
100
AcDbPoint
 10
864.5
 20
252.0
 30
0.0
  0
POINT
  5
106
330
F9
100
AcDbEntity
  8
Defpoints
100
AcDbPoint
 10
1094.0
 20
252.0
 30
0.0
  0
ENDBLK
  5
FB
330
F9
100
AcDbEntity
  8
0
100
AcDbBlockEnd
  0
BLOCK
  5
109
330
108
100
AcDbEntity
  8
0
100
AcDbBlockBegin
  2
*D14
 70
1
 10
0.0
 20
0.0
 30
0.0
  3
*D14
  1

  0
LINE
  5
10B
330
108
100
AcDbEntity
  8
0
 62
7
100
AcDbLine
 10
1097.0
 20
252.0
 30
0.0
 11
1109.0
 21
252.0
 31
0.0
  0
LINE
  5
10C
330
108
100
AcDbEntity
  8
0
 62
7
100
AcDbLine
 10
1097.0
 20
759.5
 30
0.0
 11
1109.0
 21
759.5
 31
0.0
  0
INSERT
  5
10D
330
108
100
AcDbEntity
  8
0
 62
7
100
AcDbBlockReference
  2
_CLOSEDFILLED
 10
1106.0
 20
252.0
 30
0.0
 41
6.0
 42
6.0
 50
270.0
  0
INSERT
  5
10F
330
108
100
AcDbEntity
  8
0
 62
7
100
AcDbBlockReference
  2
_CLOSEDFILLED
 10
1106.0
 20
759.5
 30
0.0
 41
6.0
 42
6.0
 50
90.0
  0
LINE
  5
111
330
108
100
AcDbEntity
  8
0
 62
7
100
AcDbLine
 10
1106.0
 20
258.0
 30
0.0
 11
1106.0
 21
753.5
 31
0.0
  0
MTEXT
  5
112
330
108
100
AcDbEntity
  8
0
 62
7
100
AcDbMText
 10
1100.375
 20
505.75
 30
0.0
 40
10.0
 71
5
  1
507,5
 50
90.0
  0
POINT
  5
113
330
108
100
AcDbEntity
  8
Defpoints
100
AcDbPoint
 10
1106.0
 20
252.0
 30
0.0
  0
POINT
  5
114
330
108
100
AcDbEntity
  8
Defpoints
100
AcDbPoint
 10
1094.0
 20
252.0
 30
0.0
  0
POINT
  5
115
330
108
100
AcDbEntity
  8
Defpoints
100
AcDbPoint
 10
1094.0
 20
759.5
 30
0.0
  0
ENDBLK
  5
10A
330
108
100
AcDbEntity
  8
0
100
AcDbBlockEnd
  0
BLOCK
  5
118
330
117
100
AcDbEntity
  8
0
100
AcDbBlockBegin
  2
*D15
 70
1
 10
0.0
 20
0.0
 30
0.0
  3
*D15
  1

  0
LINE
  5
11A
330
117
100
AcDbEntity
  8
0
 62
7
100
AcDbLine
 10
864.5
 20
862.5
 30
0.0
 11
864.5
 21
877.5
 31
0.0
  0
LINE
  5
11B
330
117
100
AcDbEntity
  8
0
 62
7
100
AcDbLine
 10
1094.0
 20
862.5
 30
0.0
 11
1094.0
 21
877.5
 31
0.0
  0
INSERT
  5
11C
330
117
100
AcDbEntity
  8
0
 62
7
100
AcDbBlockReference
  2
_CLOSEDFILLED
 10
864.5
 20
874.5
 30
0.0
 41
6.0
 42
6.0
 50
180.0
  0
INSERT
  5
11E
330
117
100
AcDbEntity
  8
0
 62
7
100
AcDbBlockReference
  2
_CLOSEDFILLED
 10
1094.0
 20
874.5
 30
0.0
 41
6.0
 42
6.0
  0
LINE
  5
120
330
117
100
AcDbEntity
  8
0
 62
7
100
AcDbLine
 10
870.5
 20
874.5
 30
0.0
 11
1088.0
 21
874.5
 31
0.0
  0
MTEXT
  5
121
330
117
100
AcDbEntity
  8
0
 62
7
100
AcDbMText
 10
979.25
 20
880.125
 30
0.0
 40
10.0
 71
5
  1
229,5
  0
POINT
  5
122
330
117
100
AcDbEntity
  8
Defpoints
100
AcDbPoint
 10
864.5
 20
874.5
 30
0.0
  0
POINT
  5
123
330
117
100
AcDbEntity
  8
Defpoints
100
AcDbPoint
 10
864.5
 20
859.5
 30
0.0
  0
POINT
  5
124
330
117
100
AcDbEntity
  8
Defpoints
100
AcDbPoint
 10
1094.0
 20
859.5
 30
0.0
  0
ENDBLK
  5
119
330
117
100
AcDbEntity
  8
0
100
AcDbBlockEnd
  0
BLOCK
  5
127
330
126
100
AcDbEntity
  8
0
100
AcDbBlockBegin
  2
*D16
 70
1
 10
0.0
 20
0.0
 30
0.0
  3
*D16
  1

  0
LINE
  5
129
330
126
100
AcDbEntity
  8
0
 62
7
100
AcDbLine
 10
1097.0
 20
859.5
 30
0.0
 11
1112.0
 21
859.5
 31
0.0
  0
LINE
  5
12A
330
126
100
AcDbEntity
  8
0
 62
7
100
AcDbLine
 10
1097.0
 20
1367.0
 30
0.0
 11
1112.0
 21
1367.0
 31
0.0
  0
INSERT
  5
12B
330
126
100
AcDbEntity
  8
0
 62
7
100
AcDbBlockReference
  2
_CLOSEDFILLED
 10
1109.0
 20
859.5
 30
0.0
 41
6.0
 42
6.0
 50
270.0
  0
INSERT
  5
12D
330
126
100
AcDbEntity
  8
0
 62
7
100
AcDbBlockReference
  2
_CLOSEDFILLED
 10
1109.0
 20
1367.0
 30
0.0
 41
6.0
 42
6.0
 50
90.0
  0
LINE
  5
12F
330
126
100
AcDbEntity
  8
0
 62
7
100
AcDbLine
 10
1109.0
 20
865.5
 30
0.0
 11
1109.0
 21
1361.0
 31
0.0
  0
MTEXT
  5
130
330
126
100
AcDbEntity
  8
0
 62
7
100
AcDbMText
 10
1103.375
 20
1113.25
 30
0.0
 40
10.0
 71
5
  1
507,5
 50
90.0
  0
POINT
  5
131
330
126
100
AcDbEntity
  8
Defpoints
100
AcDbPoint
 10
1109.0
 20
859.5
 30
0.0
  0
POINT
  5
132
330
126
100
AcDbEntity
  8
Defpoints
100
AcDbPoint
 10
1094.0
 20
859.5
 30
0.0
  0
POINT
  5
133
330
126
100
AcDbEntity
  8
Defpoints
100
AcDbPoint
 10
1094.0
 20
1367.0
 30
0.0
  0
ENDBLK
  5
128
330
126
100
AcDbEntity
  8
0
100
AcDbBlockEnd
  0
BLOCK
  5
136
330
135
100
AcDbEntity
  8
0
100
AcDbBlockBegin
  2
*D17
 70
1
 10
0.0
 20
0.0
 30
0.0
  3
*D17
  1

  0
LINE
  5
138
330
135
100
AcDbEntity
  8
0
 62
7
100
AcDbLine
 10
202.0
 20
255.0
 30
0.0
 11
202.0
 21
273.0
 31
0.0
  0
LINE
  5
139
330
135
100
AcDbEntity
  8
0
 62
7
100
AcDbLine
 10
431.5
 20
255.0
 30
0.0
 11
431.5
 21
273.0
 31
0.0
  0
INSERT
  5
13A
330
135
100
AcDbEntity
  8
0
 62
7
100
AcDbBlockReference
  2
_CLOSEDFILLED
 10
202.0
 20
270.0
 30
0.0
 41
6.0
 42
6.0
 50
180.0
  0
INSERT
  5
13C
330
135
100
AcDbEntity
  8
0
 62
7
100
AcDbBlockReference
  2
_CLOSEDFILLED
 10
431.5
 20
270.0
 30
0.0
 41
6.0
 42
6.0
  0
LINE
  5
13E
330
135
100
AcDbEntity
  8
0
 62
7
100
AcDbLine
 10
208.0
 20
270.0
 30
0.0
 11
425.5
 21
270.0
 31
0.0
  0
MTEXT
  5
13F
330
135
100
AcDbEntity
  8
0
 62
7
100
AcDbMText
 10
316.75
 20
275.625
 30
0.0
 40
10.0
 71
5
  1
229,5
  0
POINT
  5
140
330
135
100
AcDbEntity
  8
Defpoints
100
AcDbPoint
 10
202.0
 20
270.0
 30
0.0
  0
POINT
  5
141
330
135
100
AcDbEntity
  8
Defpoints
100
AcDbPoint
 10
202.0
 20
252.0
 30
0.0
  0
POINT
  5
142
330
135
100
AcDbEntity
  8
Defpoints
100
AcDbPoint
 10
431.5
 20
252.0
 30
0.0
  0
ENDBLK
  5
137
330
135
100
AcDbEntity
  8
0
100
AcDbBlockEnd
  0
BLOCK
  5
145
330
144
100
AcDbEntity
  8
0
100
AcDbBlockBegin
  2
*D18
 70
1
 10
0.0
 20
0.0
 30
0.0
  3
*D18
  1

  0
LINE
  5
147
330
144
100
AcDbEntity
  8
0
 62
7
100
AcDbLine
 10
434.5
 20
252.0
 30
0.0
 11
452.5
 21
252.0
 31
0.0
  0
LINE
  5
148
330
144
100
AcDbEntity
  8
0
 62
7
100
AcDbLine
 10
434.5
 20
759.5
 30
0.0
 11
452.5
 21
759.5
 31
0.0
  0
INSERT
  5
149
330
144
100
AcDbEntity
  8
0
 62
7
100
AcDbBlockReference
  2
_CLOSEDFILLED
 10
449.5
 20
252.0
 30
0.0
 41
6.0
 42
6.0
 50
270.0
  0
INSERT
  5
14B
330
144
100
AcDbEntity
  8
0
 62
7
100
AcDbBlockReference
  2
_CLOSEDFILLED
 10
449.5
 20
759.5
 30
0.0
 41
6.0
 42
6.0
 50
90.0
  0
LINE
  5
14D
330
144
100
AcDbEntity
  8
0
 62
7
100
AcDbLine
 10
449.5
 20
258.0
 30
0.0
 11
449.5
 21
753.5
 31
0.0
  0
MTEXT
  5
14E
330
144
100
AcDbEntity
  8
0
 62
7
100
AcDbMText
 10
443.875
 20
505.75
 30
0.0
 40
10.0
 71
5
  1
507,5
 50
90.0
  0
POINT
  5
14F
330
144
100
AcDbEntity
  8
Defpoints
100
AcDbPoint
 10
449.5
 20
252.0
 30
0.0
  0
POINT
  5
150
330
144
100
AcDbEntity
  8
Defpoints
100
AcDbPoint
 10
431.5
 20
252.0
 30
0.0
  0
POINT
  5
151
330
144
100
AcDbEntity
  8
Defpoints
100
AcDbPoint
 10
431.5
 20
759.5
 30
0.0
  0
ENDBLK
  5
146
330
144
100
AcDbEntity
  8
0
100
AcDbBlockEnd
  0
BLOCK
  5
154
330
153
100
AcDbEntity
  8
0
100
AcDbBlockBegin
  2
*D19
 70
1
 10
0.0
 20
0.0
 30
0.0
  3
*D19
  1

  0
LINE
  5
156
330
153
100
AcDbEntity
  8
0
 62
7
100
AcDbLine
 10
202.0
 20
862.5
 30
0.0
 11
202.0
 21
883.5
 31
0.0
  0
LINE
  5
157
330
153
100
AcDbEntity
  8
0
 62
7
100
AcDbLine
 10
431.5
 20
862.5
 30
0.0
 11
431.5
 21
883.5
 31
0.0
  0
INSERT
  5
158
330
153
100
AcDbEntity
  8
0
 62
7
100
AcDbBlockReference
  2
_CLOSEDFILLED
 10
202.0
 20
880.5
 30
0.0
 41
6.0
 42
6.0
 50
180.0
  0
INSERT
  5
15A
330
153
100
AcDbEntity
  8
0
 62
7
100
AcDbBlockReference
  2
_CLOSEDFILLED
 10
431.5
 20
880.5
 30
0.0
 41
6.0
 42
6.0
  0
LINE
  5
15C
330
153
100
AcDbEntity
  8
0
 62
7
100
AcDbLine
 10
208.0
 20
880.5
 30
0.0
 11
425.5
 21
880.5
 31
0.0
  0
MTEXT
  5
15D
330
153
100
AcDbEntity
  8
0
 62
7
100
AcDbMText
 10
316.75
 20
886.125
 30
0.0
 40
10.0
 71
5
  1
229,5
  0
POINT
  5
15E
330
153
100
AcDbEntity
  8
Defpoints
100
AcDbPoint
 10
202.0
 20
880.5
 30
0.0
  0
POINT
  5
15F
330
153
100
AcDbEntity
  8
Defpoints
100
AcDbPoint
 10
202.0
 20
859.5
 30
0.0
  0
POINT
  5
160
330
153
100
AcDbEntity
  8
Defpoints
100
AcDbPoint
 10
431.5
 20
859.5
 30
0.0
  0
ENDBLK
  5
155
330
153
100
AcDbEntity
  8
0
100
AcDbBlockEnd
  0
BLOCK
  5
163
330
162
100
AcDbEntity
  8
0
100
AcDbBlockBegin
  2
*D20
 70
1
 10
0.0
 20
0.0
 30
0.0
  3
*D20
  1

  0
LINE
  5
165
330
162
100
AcDbEntity
  8
0
 62
7
100
AcDbLine
 10
434.5
 20
859.5
 30
0.0
 11
455.5
 21
859.5
 31
0.0
  0
LINE
  5
166
330
162
100
AcDbEntity
  8
0
 62
7
100
AcDbLine
 10
434.5
 20
1367.0
 30
0.0
 11
455.5
 21
1367.0
 31
0.0
  0
INSERT
  5
167
330
162
100
AcDbEntity
  8
0
 62
7
100
AcDbBlockReference
  2
_CLOSEDFILLED
 10
452.5
 20
859.5
 30
0.0
 41
6.0
 42
6.0
 50
270.0
  0
INSERT
  5
169
330
162
100
AcDbEntity
  8
0
 62
7
100
AcDbBlockReference
  2
_CLOSEDFILLED
 10
452.5
 20
1367.0
 30
0.0
 41
6.0
 42
6.0
 50
90.0
  0
LINE
  5
16B
330
162
100
AcDbEntity
  8
0
 62
7
100
AcDbLine
 10
452.5
 20
865.5
 30
0.0
 11
452.5
 21
1361.0
 31
0.0
  0
MTEXT
  5
16C
330
162
100
AcDbEntity
  8
0
 62
7
100
AcDbMText
 10
446.875
 20
1113.25
 30
0.0
 40
10.0
 71
5
  1
507,5
 50
90.0
  0
POINT
  5
16D
330
162
100
AcDbEntity
  8
Defpoints
100
AcDbPoint
 10
452.5
 20
859.5
 30
0.0
  0
POINT
  5
16E
330
162
100
AcDbEntity
  8
Defpoints
100
AcDbPoint
 10
431.5
 20
859.5
 30
0.0
  0
POINT
  5
16F
330
162
100
AcDbEntity
  8
Defpoints
100
AcDbPoint
 10
431.5
 20
1367.0
 30
0.0
  0
ENDBLK
  5
164
330
162
100
AcDbEntity
  8
0
100
AcDbBlockEnd
  0
BLOCK
  5
172
330
171
100
AcDbEntity
  8
0
100
AcDbBlockBegin
  2
*D21
 70
1
 10
0.0
 20
0.0
 30
0.0
  3
*D21
  1

  0
LINE
  5
174
330
171
100
AcDbEntity
  8
0
 62
7
100
AcDbLine
 10
944.25
 20
65.0
 30
0.0
 11
944.25
 21
89.0
 31
0.0
  0
LINE
  5
175
330
171
100
AcDbEntity
  8
0
 62
7
100
AcDbLine
 10
1014.25
 20
65.0
 30
0.0
 11
1014.25
 21
89.0
 31
0.0
  0
INSERT
  5
176
330
171
100
AcDbEntity
  8
0
 62
7
100
AcDbBlockReference
  2
_CLOSEDFILLED
 10
944.25
 20
86.0
 30
0.0
 41
6.0
 42
6.0
 50
180.0
  0
INSERT
  5
178
330
171
100
AcDbEntity
  8
0
 62
7
100
AcDbBlockReference
  2
_CLOSEDFILLED
 10
1014.25
 20
86.0
 30
0.0
 41
6.0
 42
6.0
  0
LINE
  5
17A
330
171
100
AcDbEntity
  8
0
 62
7
100
AcDbLine
 10
950.25
 20
86.0
 30
0.0
 11
1008.25
 21
86.0
 31
0.0
  0
MTEXT
  5
17B
330
171
100
AcDbEntity
  8
0
 62
7
100
AcDbMText
 10
979.25
 20
91.625
 30
0.0
 40
10.0
 71
5
  1
70
  0
POINT
  5
17C
330
171
100
AcDbEntity
  8
Defpoints
100
AcDbPoint
 10
944.25
 20
86.0
 30
0.0
  0
POINT
  5
17D
330
171
100
AcDbEntity
  8
Defpoints
100
AcDbPoint
 10
944.25
 20
62.0
 30
0.0
  0
POINT
  5
17E
330
171
100
AcDbEntity
  8
Defpoints
100
AcDbPoint
 10
1014.25
 20
62.0
 30
0.0
  0
ENDBLK
  5
173
330
171
100
AcDbEntity
  8
0
100
AcDbBlockEnd
  0
BLOCK
  5
181
330
180
100
AcDbEntity
  8
0
100
AcDbBlockBegin
  2
*D22
 70
1
 10
0.0
 20
0.0
 30
0.0
  3
*D22
  1

  0
LINE
  5
183
330
180
100
AcDbEntity
  8
0
 62
7
100
AcDbLine
 10
1017.25
 20
62.0
 30
0.0
 11
1041.25
 21
62.0
 31
0.0
  0
LINE
  5
184
330
180
100
AcDbEntity
  8
0
 62
7
100
AcDbLine
 10
1017.25
 20
102.0
 30
0.0
 11
1041.25
 21
102.0
 31
0.0
  0
INSERT
  5
185
330
180
100
AcDbEntity
  8
0
 62
7
100
AcDbBlockReference
  2
_CLOSEDFILLED
 10
1038.25
 20
62.0
 30
0.0
 41
6.0
 42
6.0
 50
270.0
  0
INSERT
  5
187
330
180
100
AcDbEntity
  8
0
 62
7
100
AcDbBlockReference
  2
_CLOSEDFILLED
 10
1038.25
 20
102.0
 30
0.0
 41
6.0
 42
6.0
 50
90.0
  0
LINE
  5
189
330
180
100
AcDbEntity
  8
0
 62
7
100
AcDbLine
 10
1038.25
 20
68.0
 30
0.0
 11
1038.25
 21
96.0
 31
0.0
  0
MTEXT
  5
18A
330
180
100
AcDbEntity
  8
0
 62
7
100
AcDbMText
 10
1032.625
 20
82.0
 30
0.0
 40
10.0
 71
5
  1
40
 50
90.0
  0
POINT
  5
18B
330
180
100
AcDbEntity
  8
Defpoints
100
AcDbPoint
 10
1038.25
 20
62.0
 30
0.0
  0
POINT
  5
18C
330
180
100
AcDbEntity
  8
Defpoints
100
AcDbPoint
 10
1014.25
 20
62.0
 30
0.0
  0
POINT
  5
18D
330
180
100
AcDbEntity
  8
Defpoints
100
AcDbPoint
 10
1014.25
 20
102.0
 30
0.0
  0
ENDBLK
  5
182
330
180
100
AcDbEntity
  8
0
100
AcDbBlockEnd
  0
BLOCK
  5
190
330
18F
100
AcDbEntity
  8
0
100
AcDbBlockBegin
  2
*D23
 70
1
 10
0.0
 20
0.0
 30
0.0
  3
*D23
  1

  0
LINE
  5
192
330
18F
100
AcDbEntity
  8
0
 62
7
100
AcDbLine
 10
674.5
 20
502.75
 30
0.0
 11
674.5
 21
490.75
 31
0.0
  0
LINE
  5
193
330
18F
100
AcDbEntity
  8
0
 62
7
100
AcDbLine
 10
864.5
 20
502.75
 30
0.0
 11
864.5
 21
490.75
 31
0.0
  0
INSERT
  5
194
330
18F
100
AcDbEntity
  8
0
 62
7
100
AcDbBlockReference
  2
_CLOSEDFILLED
 10
674.5
 20
493.75
 30
0.0
 41
6.0
 42
6.0
 50
180.0
  0
INSERT
  5
196
330
18F
100
AcDbEntity
  8
0
 62
7
100
AcDbBlockReference
  2
_CLOSEDFILLED
 10
864.5
 20
493.75
 30
0.0
 41
6.0
 42
6.0
  0
LINE
  5
198
330
18F
100
AcDbEntity
  8
0
 62
7
100
AcDbLine
 10
680.5
 20
493.75
 30
0.0
 11
858.5
 21
493.75
 31
0.0
  0
MTEXT
  5
199
330
18F
100
AcDbEntity
  8
0
 62
7
100
AcDbMText
 10
769.5
 20
499.375
 30
0.0
 40
10.0
 71
5
  1
190
  0
POINT
  5
19A
330
18F
100
AcDbEntity
  8
Defpoints
100
AcDbPoint
 10
674.5
 20
493.75
 30
0.0
  0
POINT
  5
19B
330
18F
100
AcDbEntity
  8
Defpoints
100
AcDbPoint
 10
674.5
 20
505.75
 30
0.0
  0
POINT
  5
19C
330
18F
100
AcDbEntity
  8
Defpoints
100
AcDbPoint
 10
864.5
 20
505.75
 30
0.0
  0
ENDBLK
  5
191
330
18F
100
AcDbEntity
  8
0
100
AcDbBlockEnd
  0
BLOCK
  5
19F
330
19E
100
AcDbEntity
  8
0
100
AcDbBlockBegin
  2
*D24
 70
1
 10
0.0
 20
0.0
 30
0.0
  3
*D24
  1

  0
LINE
  5
1A1
330
19E
100
AcDbEntity
  8
0
 62
7
100
AcDbLine
 10
1094.0
 20
502.75
 30
0.0
 11
1094.0
 21
490.75
 31
0.0
  0
LINE
  5
1A2
330
19E
100
AcDbEntity
  8
0
 62
7
100
AcDbLine
 10
1284.0
 20
502.75
 30
0.0
 11
1284.0
 21
490.75
 31
0.0
  0
INSERT
  5
1A3
330
19E
100
AcDbEntity
  8
0
 62
7
100
AcDbBlockReference
  2
_CLOSEDFILLED
 10
1094.0
 20
493.75
 30
0.0
 41
6.0
 42
6.0
 50
180.0
  0
INSERT
  5
1A5
330
19E
100
AcDbEntity
  8
0
 62
7
100
AcDbBlockReference
  2
_CLOSEDFILLED
 10
1284.0
 20
493.75
 30
0.0
 41
6.0
 42
6.0
  0
LINE
  5
1A7
330
19E
100
AcDbEntity
  8
0
 62
7
100
AcDbLine
 10
1100.0
 20
493.75
 30
0.0
 11
1278.0
 21
493.75
 31
0.0
  0
MTEXT
  5
1A8
330
19E
100
AcDbEntity
  8
0
 62
7
100
AcDbMText
 10
1189.0
 20
499.375
 30
0.0
 40
10.0
 71
5
  1
190
  0
POINT
  5
1A9
330
19E
100
AcDbEntity
  8
Defpoints
100
AcDbPoint
 10
1094.0
 20
493.75
 30
0.0
  0
POINT
  5
1AA
330
19E
100
AcDbEntity
  8
Defpoints
100
AcDbPoint
 10
1094.0
 20
505.75
 30
0.0
  0
POINT
  5
1AB
330
19E
100
AcDbEntity
  8
Defpoints
100
AcDbPoint
 10
1284.0
 20
505.75
 30
0.0
  0
ENDBLK
  5
1A0
330
19E
100
AcDbEntity
  8
0
100
AcDbBlockEnd
  0
BLOCK
  5
1AE
330
1AD
100
AcDbEntity
  8
0
100
AcDbBlockBegin
  2
*D25
 70
1
 10
0.0
 20
0.0
 30
0.0
  3
*D25
  1

  0
LINE
  5
1B0
330
1AD
100
AcDbEntity
  8
0
 62
7
100
AcDbLine
 10
982.25
 20
759.5
 30
0.0
 11
994.25
 21
759.5
 31
0.0
  0
LINE
  5
1B1
330
1AD
100
AcDbEntity
  8
0
 62
7
100
AcDbLine
 10
982.25
 20
1607.0
 30
0.0
 11
994.25
 21
1607.0
 31
0.0
  0
INSERT
  5
1B2
330
1AD
100
AcDbEntity
  8
0
 62
7
100
AcDbBlockReference
  2
_CLOSEDFILLED
 10
991.25
 20
759.5
 30
0.0
 41
6.0
 42
6.0
 50
270.0
  0
INSERT
  5
1B4
330
1AD
100
AcDbEntity
  8
0
 62
7
100
AcDbBlockReference
  2
_CLOSEDFILLED
 10
991.25
 20
1607.0
 30
0.0
 41
6.0
 42
6.0
 50
90.0
  0
LINE
  5
1B6
330
1AD
100
AcDbEntity
  8
0
 62
7
100
AcDbLine
 10
991.25
 20
765.5
 30
0.0
 11
991.25
 21
1601.0
 31
0.0
  0
MTEXT
  5
1B7
330
1AD
100
AcDbEntity
  8
0
 62
7
100
AcDbMText
 10
985.625
 20
1183.25
 30
0.0
 40
10.0
 71
5
  1
847,5
 50
90.0
  0
POINT
  5
1B8
330
1AD
100
AcDbEntity
  8
Defpoints
100
AcDbPoint
 10
991.25
 20
759.5
 30
0.0
  0
POINT
  5
1B9
330
1AD
100
AcDbEntity
  8
Defpoints
100
AcDbPoint
 10
979.25
 20
759.5
 30
0.0
  0
POINT
  5
1BA
330
1AD
100
AcDbEntity
  8
Defpoints
100
AcDbPoint
 10
979.25
 20
1607.0
 30
0.0
  0
ENDBLK
  5
1AF
330
1AD
100
AcDbEntity
  8
0
100
AcDbBlockEnd
  0
BLOCK
  5
1BD
330
1BC
100
AcDbEntity
  8
0
100
AcDbBlockBegin
  2
*D26
 70
1
 10
0.0
 20
0.0
 30
0.0
  3
*D26
  1

  0
LINE
  5
1BF
330
1BC
100
AcDbEntity
  8
0
 62
7
100
AcDbLine
 10
982.25
 20
12.0
 30
0.0
 11
994.25
 21
12.0
 31
0.0
  0
LINE
  5
1C0
330
1BC
100
AcDbEntity
  8
0
 62
7
100
AcDbLine
 10
982.25
 20
252.0
 30
0.0
 11
994.25
 21
252.0
 31
0.0
  0
INSERT
  5
1C1
330
1BC
100
AcDbEntity
  8
0
 62
7
100
AcDbBlockReference
  2
_CLOSEDFILLED
 10
991.25
 20
12.0
 30
0.0
 41
6.0
 42
6.0
 50
270.0
  0
INSERT
  5
1C3
330
1BC
100
AcDbEntity
  8
0
 62
7
100
AcDbBlockReference
  2
_CLOSEDFILLED
 10
991.25
 20
252.0
 30
0.0
 41
6.0
 42
6.0
 50
90.0
  0
LINE
  5
1C5
330
1BC
100
AcDbEntity
  8
0
 62
7
100
AcDbLine
 10
991.25
 20
18.0
 30
0.0
 11
991.25
 21
246.0
 31
0.0
  0
MTEXT
  5
1C6
330
1BC
100
AcDbEntity
  8
0
 62
7
100
AcDbMText
 10
985.625
 20
132.0
 30
0.0
 40
10.0
 71
5
  1
240
 50
90.0
  0
POINT
  5
1C7
330
1BC
100
AcDbEntity
  8
Defpoints
100
AcDbPoint
 10
991.25
 20
12.0
 30
0.0
  0
POINT
  5
1C8
330
1BC
100
AcDbEntity
  8
Defpoints
100
AcDbPoint
 10
979.25
 20
12.0
 30
0.0
  0
POINT
  5
1C9
330
1BC
100
AcDbEntity
  8
Defpoints
100
AcDbPoint
 10
979.25
 20
252.0
 30
0.0
  0
ENDBLK
  5
1BE
330
1BC
100
AcDbEntity
  8
0
100
AcDbBlockEnd
  0
BLOCK
  5
1CC
330
1CB
100
AcDbEntity
  8
0
100
AcDbBlockBegin
  2
*D27
 70
1
 10
0.0
 20
0.0
 30
0.0
  3
*D27
  1

  0
LINE
  5
1CE
330
1CB
100
AcDbEntity
  8
0
 62
7
100
AcDbLine
 10
674.5
 20
1110.25
 30
0.0
 11
674.5
 21
1095.25
 31
0.0
  0
LINE
  5
1CF
330
1CB
100
AcDbEntity
  8
0
 62
7
100
AcDbLine
 10
864.5
 20
1110.25
 30
0.0
 11
864.5
 21
1095.25
 31
0.0
  0
INSERT
  5
1D0
330
1CB
100
AcDbEntity
  8
0
 62
7
100
AcDbBlockReference
  2
_CLOSEDFILLED
 10
674.5
 20
1098.25
 30
0.0
 41
6.0
 42
6.0
 50
180.0
  0
INSERT
  5
1D2
330
1CB
100
AcDbEntity
  8
0
 62
7
100
AcDbBlockReference
  2
_CLOSEDFILLED
 10
864.5
 20
1098.25
 30
0.0
 41
6.0
 42
6.0
  0
LINE
  5
1D4
330
1CB
100
AcDbEntity
  8
0
 62
7
100
AcDbLine
 10
680.5
 20
1098.25
 30
0.0
 11
858.5
 21
1098.25
 31
0.0
  0
MTEXT
  5
1D5
330
1CB
100
AcDbEntity
  8
0
 62
7
100
AcDbMText
 10
769.5
 20
1103.875
 30
0.0
 40
10.0
 71
5
  1
190
  0
POINT
  5
1D6
330
1CB
100
AcDbEntity
  8
Defpoints
100
AcDbPoint
 10
674.5
 20
1098.25
 30
0.0
  0
POINT
  5
1D7
330
1CB
100
AcDbEntity
  8
Defpoints
100
AcDbPoint
 10
674.5
 20
1113.25
 30
0.0
  0
POINT
  5
1D8
330
1CB
100
AcDbEntity
  8
Defpoints
100
AcDbPoint
 10
864.5
 20
1113.25
 30
0.0
  0
ENDBLK
  5
1CD
330
1CB
100
AcDbEntity
  8
0
100
AcDbBlockEnd
  0
BLOCK
  5
1DB
330
1DA
100
AcDbEntity
  8
0
100
AcDbBlockBegin
  2
*D28
 70
1
 10
0.0
 20
0.0
 30
0.0
  3
*D28
  1

  0
LINE
  5
1DD
330
1DA
100
AcDbEntity
  8
0
 62
7
100
AcDbLine
 10
1094.0
 20
1110.25
 30
0.0
 11
1094.0
 21
1095.25
 31
0.0
  0
LINE
  5
1DE
330
1DA
100
AcDbEntity
  8
0
 62
7
100
AcDbLine
 10
1284.0
 20
1110.25
 30
0.0
 11
1284.0
 21
1095.25
 31
0.0
  0
INSERT
  5
1DF
330
1DA
100
AcDbEntity
  8
0
 62
7
100
AcDbBlockReference
  2
_CLOSEDFILLED
 10
1094.0
 20
1098.25
 30
0.0
 41
6.0
 42
6.0
 50
180.0
  0
INSERT
  5
1E1
330
1DA
100
AcDbEntity
  8
0
 62
7
100
AcDbBlockReference
  2
_CLOSEDFILLED
 10
1284.0
 20
1098.25
 30
0.0
 41
6.0
 42
6.0
  0
LINE
  5
1E3
330
1DA
100
AcDbEntity
  8
0
 62
7
100
AcDbLine
 10
1100.0
 20
1098.25
 30
0.0
 11
1278.0
 21
1098.25
 31
0.0
  0
MTEXT
  5
1E4
330
1DA
100
AcDbEntity
  8
0
 62
7
100
AcDbMText
 10
1189.0
 20
1103.875
 30
0.0
 40
10.0
 71
5
  1
190
  0
POINT
  5
1E5
330
1DA
100
AcDbEntity
  8
Defpoints
100
AcDbPoint
 10
1094.0
 20
1098.25
 30
0.0
  0
POINT
  5
1E6
330
1DA
100
AcDbEntity
  8
Defpoints
100
AcDbPoint
 10
1094.0
 20
1113.25
 30
0.0
  0
POINT
  5
1E7
330
1DA
100
AcDbEntity
  8
Defpoints
100
AcDbPoint
 10
1284.0
 20
1113.25
 30
0.0
  0
ENDBLK
  5
1DC
330
1DA
100
AcDbEntity
  8
0
100
AcDbBlockEnd
  0
BLOCK
  5
1EA
330
1E9
100
AcDbEntity
  8
0
100
AcDbBlockBegin
  2
*D29
 70
1
 10
0.0
 20
0.0
 30
0.0
  3
*D29
  1

  0
LINE
  5
1EC
330
1E9
100
AcDbEntity
  8
0
 62
7
100
AcDbLine
 10
982.25
 20
1367.0
 30
0.0
 11
997.25
 21
1367.0
 31
0.0
  0
LINE
  5
1ED
330
1E9
100
AcDbEntity
  8
0
 62
7
100
AcDbLine
 10
982.25
 20
1607.0
 30
0.0
 11
997.25
 21
1607.0
 31
0.0
  0
INSERT
  5
1EE
330
1E9
100
AcDbEntity
  8
0
 62
7
100
AcDbBlockReference
  2
_CLOSEDFILLED
 10
994.25
 20
1367.0
 30
0.0
 41
6.0
 42
6.0
 50
270.0
  0
INSERT
  5
1F0
330
1E9
100
AcDbEntity
  8
0
 62
7
100
AcDbBlockReference
  2
_CLOSEDFILLED
 10
994.25
 20
1607.0
 30
0.0
 41
6.0
 42
6.0
 50
90.0
  0
LINE
  5
1F2
330
1E9
100
AcDbEntity
  8
0
 62
7
100
AcDbLine
 10
994.25
 20
1373.0
 30
0.0
 11
994.25
 21
1601.0
 31
0.0
  0
MTEXT
  5
1F3
330
1E9
100
AcDbEntity
  8
0
 62
7
100
AcDbMText
 10
988.625
 20
1487.0
 30
0.0
 40
10.0
 71
5
  1
240
 50
90.0
  0
POINT
  5
1F4
330
1E9
100
AcDbEntity
  8
Defpoints
100
AcDbPoint
 10
994.25
 20
1367.0
 30
0.0
  0
POINT
  5
1F5
330
1E9
100
AcDbEntity
  8
Defpoints
100
AcDbPoint
 10
979.25
 20
1367.0
 30
0.0
  0
POINT
  5
1F6
330
1E9
100
AcDbEntity
  8
Defpoints
100
AcDbPoint
 10
979.25
 20
1607.0
 30
0.0
  0
ENDBLK
  5
1EB
330
1E9
100
AcDbEntity
  8
0
100
AcDbBlockEnd
  0
BLOCK
  5
1F9
330
1F8
100
AcDbEntity
  8
0
100
AcDbBlockBegin
  2
*D30
 70
1
 10
0.0
 20
0.0
 30
0.0
  3
*D30
  1

  0
LINE
  5
1FB
330
1F8
100
AcDbEntity
  8
0
 62
7
100
AcDbLine
 10
982.25
 20
12.0
 30
0.0
 11
997.25
 21
12.0
 31
0.0
  0
LINE
  5
1FC
330
1F8
100
AcDbEntity
  8
0
 62
7
100
AcDbLine
 10
982.25
 20
859.5
 30
0.0
 11
997.25
 21
859.5
 31
0.0
  0
INSERT
  5
1FD
330
1F8
100
AcDbEntity
  8
0
 62
7
100
AcDbBlockReference
  2
_CLOSEDFILLED
 10
994.25
 20
12.0
 30
0.0
 41
6.0
 42
6.0
 50
270.0
  0
INSERT
  5
1FF
330
1F8
100
AcDbEntity
  8
0
 62
7
100
AcDbBlockReference
  2
_CLOSEDFILLED
 10
994.25
 20
859.5
 30
0.0
 41
6.0
 42
6.0
 50
90.0
  0
LINE
  5
201
330
1F8
100
AcDbEntity
  8
0
 62
7
100
AcDbLine
 10
994.25
 20
18.0
 30
0.0
 11
994.25
 21
853.5
 31
0.0
  0
MTEXT
  5
202
330
1F8
100
AcDbEntity
  8
0
 62
7
100
AcDbMText
 10
988.625
 20
435.75
 30
0.0
 40
10.0
 71
5
  1
847,5
 50
90.0
  0
POINT
  5
203
330
1F8
100
AcDbEntity
  8
Defpoints
100
AcDbPoint
 10
994.25
 20
12.0
 30
0.0
  0
POINT
  5
204
330
1F8
100
AcDbEntity
  8
Defpoints
100
AcDbPoint
 10
979.25
 20
12.0
 30
0.0
  0
POINT
  5
205
330
1F8
100
AcDbEntity
  8
Defpoints
100
AcDbPoint
 10
979.25
 20
859.5
 30
0.0
  0
ENDBLK
  5
1FA
330
1F8
100
AcDbEntity
  8
0
100
AcDbBlockEnd
  0
BLOCK
  5
208
330
207
100
AcDbEntity
  8
0
100
AcDbBlockBegin
  2
*D31
 70
1
 10
0.0
 20
0.0
 30
0.0
  3
*D31
  1

  0
LINE
  5
20A
330
207
100
AcDbEntity
  8
0
 62
7
100
AcDbLine
 10
12.0
 20
502.75
 30
0.0
 11
12.0
 21
484.75
 31
0.0
  0
LINE
  5
20B
330
207
100
AcDbEntity
  8
0
 62
7
100
AcDbLine
 10
202.0
 20
502.75
 30
0.0
 11
202.0
 21
484.75
 31
0.0
  0
INSERT
  5
20C
330
207
100
AcDbEntity
  8
0
 62
7
100
AcDbBlockReference
  2
_CLOSEDFILLED
 10
12.0
 20
487.75
 30
0.0
 41
6.0
 42
6.0
 50
180.0
  0
INSERT
  5
20E
330
207
100
AcDbEntity
  8
0
 62
7
100
AcDbBlockReference
  2
_CLOSEDFILLED
 10
202.0
 20
487.75
 30
0.0
 41
6.0
 42
6.0
  0
LINE
  5
210
330
207
100
AcDbEntity
  8
0
 62
7
100
AcDbLine
 10
18.0
 20
487.75
 30
0.0
 11
196.0
 21
487.75
 31
0.0
  0
MTEXT
  5
211
330
207
100
AcDbEntity
  8
0
 62
7
100
AcDbMText
 10
107.0
 20
493.375
 30
0.0
 40
10.0
 71
5
  1
190
  0
POINT
  5
212
330
207
100
AcDbEntity
  8
Defpoints
100
AcDbPoint
 10
12.0
 20
487.75
 30
0.0
  0
POINT
  5
213
330
207
100
AcDbEntity
  8
Defpoints
100
AcDbPoint
 10
12.0
 20
505.75
 30
0.0
  0
POINT
  5
214
330
207
100
AcDbEntity
  8
Defpoints
100
AcDbPoint
 10
202.0
 20
505.75
 30
0.0
  0
ENDBLK
  5
209
330
207
100
AcDbEntity
  8
0
100
AcDbBlockEnd
  0
BLOCK
  5
217
330
216
100
AcDbEntity
  8
0
100
AcDbBlockBegin
  2
*D32
 70
1
 10
0.0
 20
0.0
 30
0.0
  3
*D32
  1

  0
LINE
  5
219
330
216
100
AcDbEntity
  8
0
 62
7
100
AcDbLine
 10
431.5
 20
502.75
 30
0.0
 11
431.5
 21
484.75
 31
0.0
  0
LINE
  5
21A
330
216
100
AcDbEntity
  8
0
 62
7
100
AcDbLine
 10
621.5
 20
502.75
 30
0.0
 11
621.5
 21
484.75
 31
0.0
  0
INSERT
  5
21B
330
216
100
AcDbEntity
  8
0
 62
7
100
AcDbBlockReference
  2
_CLOSEDFILLED
 10
431.5
 20
487.75
 30
0.0
 41
6.0
 42
6.0
 50
180.0
  0
INSERT
  5
21D
330
216
100
AcDbEntity
  8
0
 62
7
100
AcDbBlockReference
  2
_CLOSEDFILLED
 10
621.5
 20
487.75
 30
0.0
 41
6.0
 42
6.0
  0
LINE
  5
21F
330
216
100
AcDbEntity
  8
0
 62
7
100
AcDbLine
 10
437.5
 20
487.75
 30
0.0
 11
615.5
 21
487.75
 31
0.0
  0
MTEXT
  5
220
330
216
100
AcDbEntity
  8
0
 62
7
100
AcDbMText
 10
526.5
 20
493.375
 30
0.0
 40
10.0
 71
5
  1
190
  0
POINT
  5
221
330
216
100
AcDbEntity
  8
Defpoints
100
AcDbPoint
 10
431.5
 20
487.75
 30
0.0
  0
POINT
  5
222
330
216
100
AcDbEntity
  8
Defpoints
100
AcDbPoint
 10
431.5
 20
505.75
 30
0.0
  0
POINT
  5
223
330
216
100
AcDbEntity
  8
Defpoints
100
AcDbPoint
 10
621.5
 20
505.75
 30
0.0
  0
ENDBLK
  5
218
330
216
100
AcDbEntity
  8
0
100
AcDbBlockEnd
  0
BLOCK
  5
226
330
225
100
AcDbEntity
  8
0
100
AcDbBlockBegin
  2
*D33
 70
1
 10
0.0
 20
0.0
 30
0.0
  3
*D33
  1

  0
LINE
  5
228
330
225
100
AcDbEntity
  8
0
 62
7
100
AcDbLine
 10
319.75
 20
759.5
 30
0.0
 11
337.75
 21
759.5
 31
0.0
  0
LINE
  5
229
330
225
100
AcDbEntity
  8
0
 62
7
100
AcDbLine
 10
319.75
 20
1607.0
 30
0.0
 11
337.75
 21
1607.0
 31
0.0
  0
INSERT
  5
22A
330
225
100
AcDbEntity
  8
0
 62
7
100
AcDbBlockReference
  2
_CLOSEDFILLED
 10
334.75
 20
759.5
 30
0.0
 41
6.0
 42
6.0
 50
270.0
  0
INSERT
  5
22C
330
225
100
AcDbEntity
  8
0
 62
7
100
AcDbBlockReference
  2
_CLOSEDFILLED
 10
334.75
 20
1607.0
 30
0.0
 41
6.0
 42
6.0
 50
90.0
  0
LINE
  5
22E
330
225
100
AcDbEntity
  8
0
 62
7
100
AcDbLine
 10
334.75
 20
765.5
 30
0.0
 11
334.75
 21
1601.0
 31
0.0
  0
MTEXT
  5
22F
330
225
100
AcDbEntity
  8
0
 62
7
100
AcDbMText
 10
329.125
 20
1183.25
 30
0.0
 40
10.0
 71
5
  1
847,5
 50
90.0
  0
POINT
  5
230
330
225
100
AcDbEntity
  8
Defpoints
100
AcDbPoint
 10
334.75
 20
759.5
 30
0.0
  0
POINT
  5
231
330
225
100
AcDbEntity
  8
Defpoints
100
AcDbPoint
 10
316.75
 20
759.5
 30
0.0
  0
POINT
  5
232
330
225
100
AcDbEntity
  8
Defpoints
100
AcDbPoint
 10
316.75
 20
1607.0
 30
0.0
  0
ENDBLK
  5
227
330
225
100
AcDbEntity
  8
0
100
AcDbBlockEnd
  0
BLOCK
  5
235
330
234
100
AcDbEntity
  8
0
100
AcDbBlockBegin
  2
*D34
 70
1
 10
0.0
 20
0.0
 30
0.0
  3
*D34
  1

  0
LINE
  5
237
330
234
100
AcDbEntity
  8
0
 62
7
100
AcDbLine
 10
319.75
 20
12.0
 30
0.0
 11
337.75
 21
12.0
 31
0.0
  0
LINE
  5
238
330
234
100
AcDbEntity
  8
0
 62
7
100
AcDbLine
 10
319.75
 20
252.0
 30
0.0
 11
337.75
 21
252.0
 31
0.0
  0
INSERT
  5
239
330
234
100
AcDbEntity
  8
0
 62
7
100
AcDbBlockReference
  2
_CLOSEDFILLED
 10
334.75
 20
12.0
 30
0.0
 41
6.0
 42
6.0
 50
270.0
  0
INSERT
  5
23B
330
234
100
AcDbEntity
  8
0
 62
7
100
AcDbBlockReference
  2
_CLOSEDFILLED
 10
334.75
 20
252.0
 30
0.0
 41
6.0
 42
6.0
 50
90.0
  0
LINE
  5
23D
330
234
100
AcDbEntity
  8
0
 62
7
100
AcDbLine
 10
334.75
 20
18.0
 30
0.0
 11
334.75
 21
246.0
 31
0.0
  0
MTEXT
  5
23E
330
234
100
AcDbEntity
  8
0
 62
7
100
AcDbMText
 10
329.125
 20
132.0
 30
0.0
 40
10.0
 71
5
  1
240
 50
90.0
  0
POINT
  5
23F
330
234
100
AcDbEntity
  8
Defpoints
100
AcDbPoint
 10
334.75
 20
12.0
 30
0.0
  0
POINT
  5
240
330
234
100
AcDbEntity
  8
Defpoints
100
AcDbPoint
 10
316.75
 20
12.0
 30
0.0
  0
POINT
  5
241
330
234
100
AcDbEntity
  8
Defpoints
100
AcDbPoint
 10
316.75
 20
252.0
 30
0.0
  0
ENDBLK
  5
236
330
234
100
AcDbEntity
  8
0
100
AcDbBlockEnd
  0
BLOCK
  5
244
330
243
100
AcDbEntity
  8
0
100
AcDbBlockBegin
  2
*D35
 70
1
 10
0.0
 20
0.0
 30
0.0
  3
*D35
  1

  0
LINE
  5
246
330
243
100
AcDbEntity
  8
0
 62
7
100
AcDbLine
 10
12.0
 20
1110.25
 30
0.0
 11
12.0
 21
1089.25
 31
0.0
  0
LINE
  5
247
330
243
100
AcDbEntity
  8
0
 62
7
100
AcDbLine
 10
202.0
 20
1110.25
 30
0.0
 11
202.0
 21
1089.25
 31
0.0
  0
INSERT
  5
248
330
243
100
AcDbEntity
  8
0
 62
7
100
AcDbBlockReference
  2
_CLOSEDFILLED
 10
12.0
 20
1092.25
 30
0.0
 41
6.0
 42
6.0
 50
180.0
  0
INSERT
  5
24A
330
243
100
AcDbEntity
  8
0
 62
7
100
AcDbBlockReference
  2
_CLOSEDFILLED
 10
202.0
 20
1092.25
 30
0.0
 41
6.0
 42
6.0
  0
LINE
  5
24C
330
243
100
AcDbEntity
  8
0
 62
7
100
AcDbLine
 10
18.0
 20
1092.25
 30
0.0
 11
196.0
 21
1092.25
 31
0.0
  0
MTEXT
  5
24D
330
243
100
AcDbEntity
  8
0
 62
7
100
AcDbMText
 10
107.0
 20
1097.875
 30
0.0
 40
10.0
 71
5
  1
190
  0
POINT
  5
24E
330
243
100
AcDbEntity
  8
Defpoints
100
AcDbPoint
 10
12.0
 20
1092.25
 30
0.0
  0
POINT
  5
24F
330
243
100
AcDbEntity
  8
Defpoints
100
AcDbPoint
 10
12.0
 20
1113.25
 30
0.0
  0
POINT
  5
250
330
243
100
AcDbEntity
  8
Defpoints
100
AcDbPoint
 10
202.0
 20
1113.25
 30
0.0
  0
ENDBLK
  5
245
330
243
100
AcDbEntity
  8
0
100
AcDbBlockEnd
  0
BLOCK
  5
253
330
252
100
AcDbEntity
  8
0
100
AcDbBlockBegin
  2
*D36
 70
1
 10
0.0
 20
0.0
 30
0.0
  3
*D36
  1

  0
LINE
  5
255
330
252
100
AcDbEntity
  8
0
 62
7
100
AcDbLine
 10
431.5
 20
1110.25
 30
0.0
 11
431.5
 21
1089.25
 31
0.0
  0
LINE
  5
256
330
252
100
AcDbEntity
  8
0
 62
7
100
AcDbLine
 10
621.5
 20
1110.25
 30
0.0
 11
621.5
 21
1089.25
 31
0.0
  0
INSERT
  5
257
330
252
100
AcDbEntity
  8
0
 62
7
100
AcDbBlockReference
  2
_CLOSEDFILLED
 10
431.5
 20
1092.25
 30
0.0
 41
6.0
 42
6.0
 50
180.0
  0
INSERT
  5
259
330
252
100
AcDbEntity
  8
0
 62
7
100
AcDbBlockReference
  2
_CLOSEDFILLED
 10
621.5
 20
1092.25
 30
0.0
 41
6.0
 42
6.0
  0
LINE
  5
25B
330
252
100
AcDbEntity
  8
0
 62
7
100
AcDbLine
 10
437.5
 20
1092.25
 30
0.0
 11
615.5
 21
1092.25
 31
0.0
  0
MTEXT
  5
25C
330
252
100
AcDbEntity
  8
0
 62
7
100
AcDbMText
 10
526.5
 20
1097.875
 30
0.0
 40
10.0
 71
5
  1
190
  0
POINT
  5
25D
330
252
100
AcDbEntity
  8
Defpoints
100
AcDbPoint
 10
431.5
 20
1092.25
 30
0.0
  0
POINT
  5
25E
330
252
100
AcDbEntity
  8
Defpoints
100
AcDbPoint
 10
431.5
 20
1113.25
 30
0.0
  0
POINT
  5
25F
330
252
100
AcDbEntity
  8
Defpoints
100
AcDbPoint
 10
621.5
 20
1113.25
 30
0.0
  0
ENDBLK
  5
254
330
252
100
AcDbEntity
  8
0
100
AcDbBlockEnd
  0
BLOCK
  5
262
330
261
100
AcDbEntity
  8
0
100
AcDbBlockBegin
  2
*D37
 70
1
 10
0.0
 20
0.0
 30
0.0
  3
*D37
  1

  0
LINE
  5
264
330
261
100
AcDbEntity
  8
0
 62
7
100
AcDbLine
 10
319.75
 20
1367.0
 30
0.0
 11
340.75
 21
1367.0
 31
0.0
  0
LINE
  5
265
330
261
100
AcDbEntity
  8
0
 62
7
100
AcDbLine
 10
319.75
 20
1607.0
 30
0.0
 11
340.75
 21
1607.0
 31
0.0
  0
INSERT
  5
266
330
261
100
AcDbEntity
  8
0
 62
7
100
AcDbBlockReference
  2
_CLOSEDFILLED
 10
337.75
 20
1367.0
 30
0.0
 41
6.0
 42
6.0
 50
270.0
  0
INSERT
  5
268
330
261
100
AcDbEntity
  8
0
 62
7
100
AcDbBlockReference
  2
_CLOSEDFILLED
 10
337.75
 20
1607.0
 30
0.0
 41
6.0
 42
6.0
 50
90.0
  0
LINE
  5
26A
330
261
100
AcDbEntity
  8
0
 62
7
100
AcDbLine
 10
337.75
 20
1373.0
 30
0.0
 11
337.75
 21
1601.0
 31
0.0
  0
MTEXT
  5
26B
330
261
100
AcDbEntity
  8
0
 62
7
100
AcDbMText
 10
332.125
 20
1487.0
 30
0.0
 40
10.0
 71
5
  1
240
 50
90.0
  0
POINT
  5
26C
330
261
100
AcDbEntity
  8
Defpoints
100
AcDbPoint
 10
337.75
 20
1367.0
 30
0.0
  0
POINT
  5
26D
330
261
100
AcDbEntity
  8
Defpoints
100
AcDbPoint
 10
316.75
 20
1367.0
 30
0.0
  0
POINT
  5
26E
330
261
100
AcDbEntity
  8
Defpoints
100
AcDbPoint
 10
316.75
 20
1607.0
 30
0.0
  0
ENDBLK
  5
263
330
261
100
AcDbEntity
  8
0
100
AcDbBlockEnd
  0
BLOCK
  5
271
330
270
100
AcDbEntity
  8
0
100
AcDbBlockBegin
  2
*D38
 70
1
 10
0.0
 20
0.0
 30
0.0
  3
*D38
  1

  0
LINE
  5
273
330
270
100
AcDbEntity
  8
0
 62
7
100
AcDbLine
 10
319.75
 20
12.0
 30
0.0
 11
340.75
 21
12.0
 31
0.0
  0
LINE
  5
274
330
270
100
AcDbEntity
  8
0
 62
7
100
AcDbLine
 10
319.75
 20
859.5
 30
0.0
 11
340.75
 21
859.5
 31
0.0
  0
INSERT
  5
275
330
270
100
AcDbEntity
  8
0
 62
7
100
AcDbBlockReference
  2
_CLOSEDFILLED
 10
337.75
 20
12.0
 30
0.0
 41
6.0
 42
6.0
 50
270.0
  0
INSERT
  5
277
330
270
100
AcDbEntity
  8
0
 62
7
100
AcDbBlockReference
  2
_CLOSEDFILLED
 10
337.75
 20
859.5
 30
0.0
 41
6.0
 42
6.0
 50
90.0
  0
LINE
  5
279
330
270
100
AcDbEntity
  8
0
 62
7
100
AcDbLine
 10
337.75
 20
18.0
 30
0.0
 11
337.75
 21
853.5
 31
0.0
  0
MTEXT
  5
27A
330
270
100
AcDbEntity
  8
0
 62
7
100
AcDbMText
 10
332.125
 20
435.75
 30
0.0
 40
10.0
 71
5
  1
847,5
 50
90.0
  0
POINT
  5
27B
330
270
100
AcDbEntity
  8
Defpoints
100
AcDbPoint
 10
337.75
 20
12.0
 30
0.0
  0
POINT
  5
27C
330
270
100
AcDbEntity
  8
Defpoints
100
AcDbPoint
 10
316.75
 20
12.0
 30
0.0
  0
POINT
  5
27D
330
270
100
AcDbEntity
  8
Defpoints
100
AcDbPoint
 10
316.75
 20
859.5
 30
0.0
  0
ENDBLK
  5
272
330
270
100
AcDbEntity
  8
0
100
AcDbBlockEnd
  0
BLOCK
  5
280
330
27F
100
AcDbEntity
  8
0
100
AcDbBlockBegin
  2
*D39
 70
1
 10
0.0
 20
0.0
 30
0.0
  3
*D39
  1

  0
LINE
  5
282
330
27F
100
AcDbEntity
  8
0
 62
7
100
AcDbLine
 10
674.5
 20
812.5
 30
0.0
 11
674.5
 21
818.5
 31
0.0
  0
LINE
  5
283
330
27F
100
AcDbEntity
  8
0
 62
7
100
AcDbLine
 10
704.5
 20
812.5
 30
0.0
 11
704.5
 21
818.5
 31
0.0
  0
INSERT
  5
284
330
27F
100
AcDbEntity
  8
0
 62
7
100
AcDbBlockReference
  2
_CLOSEDFILLED
 10
674.5
 20
815.5
 30
0.0
 41
6.0
 42
6.0
 50
180.0
  0
INSERT
  5
286
330
27F
100
AcDbEntity
  8
0
 62
7
100
AcDbBlockReference
  2
_CLOSEDFILLED
 10
704.5
 20
815.5
 30
0.0
 41
6.0
 42
6.0
  0
LINE
  5
288
330
27F
100
AcDbEntity
  8
0
 62
7
100
AcDbLine
 10
680.5
 20
815.5
 30
0.0
 11
698.5
 21
815.5
 31
0.0
  0
MTEXT
  5
289
330
27F
100
AcDbEntity
  8
0
 62
7
100
AcDbMText
 10
689.5
 20
821.125
 30
0.0
 40
10.0
 71
5
  1
30
  0
POINT
  5
28A
330
27F
100
AcDbEntity
  8
Defpoints
100
AcDbPoint
 10
674.5
 20
815.5
 30
0.0
  0
POINT
  5
28B
330
27F
100
AcDbEntity
  8
Defpoints
100
AcDbPoint
 10
674.5
 20
809.5
 30
0.0
  0
POINT
  5
28C
330
27F
100
AcDbEntity
  8
Defpoints
100
AcDbPoint
 10
704.5
 20
809.5
 30
0.0
  0
ENDBLK
  5
281
330
27F
100
AcDbEntity
  8
0
100
AcDbBlockEnd
  0
BLOCK
  5
28F
330
28E
100
AcDbEntity
  8
0
100
AcDbBlockBegin
  2
*D40
 70
1
 10
0.0
 20
0.0
 30
0.0
  3
*D40
  1

  0
LINE
  5
291
330
28E
100
AcDbEntity
  8
0
 62
7
100
AcDbLine
 10
720.0
 20
865.5
 30
0.0
 11
726.0
 21
865.5
 31
0.0
  0
LINE
  5
292
330
28E
100
AcDbEntity
  8
0
 62
7
100
AcDbLine
 10
720.0
 20
1607.0
 30
0.0
 11
726.0
 21
1607.0
 31
0.0
  0
INSERT
  5
293
330
28E
100
AcDbEntity
  8
0
 62
7
100
AcDbBlockReference
  2
_CLOSEDFILLED
 10
723.0
 20
865.5
 30
0.0
 41
6.0
 42
6.0
 50
270.0
  0
INSERT
  5
295
330
28E
100
AcDbEntity
  8
0
 62
7
100
AcDbBlockReference
  2
_CLOSEDFILLED
 10
723.0
 20
1607.0
 30
0.0
 41
6.0
 42
6.0
 50
90.0
  0
LINE
  5
297
330
28E
100
AcDbEntity
  8
0
 62
7
100
AcDbLine
 10
723.0
 20
871.5
 30
0.0
 11
723.0
 21
1601.0
 31
0.0
  0
MTEXT
  5
298
330
28E
100
AcDbEntity
  8
0
 62
7
100
AcDbMText
 10
717.375
 20
1236.25
 30
0.0
 40
10.0
 71
5
  1
741,5
 50
90.0
  0
POINT
  5
299
330
28E
100
AcDbEntity
  8
Defpoints
100
AcDbPoint
 10
723.0
 20
865.5
 30
0.0
  0
POINT
  5
29A
330
28E
100
AcDbEntity
  8
Defpoints
100
AcDbPoint
 10
717.0
 20
865.5
 30
0.0
  0
POINT
  5
29B
330
28E
100
AcDbEntity
  8
Defpoints
100
AcDbPoint
 10
717.0
 20
1607.0
 30
0.0
  0
ENDBLK
  5
290
330
28E
100
AcDbEntity
  8
0
100
AcDbBlockEnd
  0
BLOCK
  5
29E
330
29D
100
AcDbEntity
  8
0
100
AcDbBlockBegin
  2
*D41
 70
1
 10
0.0
 20
0.0
 30
0.0
  3
*D41
  1

  0
LINE
  5
2A0
330
29D
100
AcDbEntity
  8
0
 62
7
100
AcDbLine
 10
720.0
 20
12.0
 30
0.0
 11
726.0
 21
12.0
 31
0.0
  0
LINE
  5
2A1
330
29D
100
AcDbEntity
  8
0
 62
7
100
AcDbLine
 10
720.0
 20
753.5
 30
0.0
 11
726.0
 21
753.5
 31
0.0
  0
INSERT
  5
2A2
330
29D
100
AcDbEntity
  8
0
 62
7
100
AcDbBlockReference
  2
_CLOSEDFILLED
 10
723.0
 20
12.0
 30
0.0
 41
6.0
 42
6.0
 50
270.0
  0
INSERT
  5
2A4
330
29D
100
AcDbEntity
  8
0
 62
7
100
AcDbBlockReference
  2
_CLOSEDFILLED
 10
723.0
 20
753.5
 30
0.0
 41
6.0
 42
6.0
 50
90.0
  0
LINE
  5
2A6
330
29D
100
AcDbEntity
  8
0
 62
7
100
AcDbLine
 10
723.0
 20
18.0
 30
0.0
 11
723.0
 21
747.5
 31
0.0
  0
MTEXT
  5
2A7
330
29D
100
AcDbEntity
  8
0
 62
7
100
AcDbMText
 10
717.375
 20
382.75
 30
0.0
 40
10.0
 71
5
  1
741,5
 50
90.0
  0
POINT
  5
2A8
330
29D
100
AcDbEntity
  8
Defpoints
100
AcDbPoint
 10
723.0
 20
12.0
 30
0.0
  0
POINT
  5
2A9
330
29D
100
AcDbEntity
  8
Defpoints
100
AcDbPoint
 10
717.0
 20
12.0
 30
0.0
  0
POINT
  5
2AA
330
29D
100
AcDbEntity
  8
Defpoints
100
AcDbPoint
 10
717.0
 20
753.5
 30
0.0
  0
ENDBLK
  5
29F
330
29D
100
AcDbEntity
  8
0
100
AcDbBlockEnd
  0
BLOCK
  5
2AD
330
2AC
100
AcDbEntity
  8
0
100
AcDbBlockBegin
  2
*D42
 70
1
 10
0.0
 20
0.0
 30
0.0
  3
*D42
  1

  0
LINE
  5
2AF
330
2AC
100
AcDbEntity
  8
0
 62
7
100
AcDbLine
 10
674.5
 20
85.0
 30
0.0
 11
674.5
 21
91.0
 31
0.0
  0
LINE
  5
2B0
330
2AC
100
AcDbEntity
  8
0
 62
7
100
AcDbLine
 10
944.25
 20
85.0
 30
0.0
 11
944.25
 21
91.0
 31
0.0
  0
INSERT
  5
2B1
330
2AC
100
AcDbEntity
  8
0
 62
7
100
AcDbBlockReference
  2
_CLOSEDFILLED
 10
674.5
 20
88.0
 30
0.0
 41
6.0
 42
6.0
 50
180.0
  0
INSERT
  5
2B3
330
2AC
100
AcDbEntity
  8
0
 62
7
100
AcDbBlockReference
  2
_CLOSEDFILLED
 10
944.25
 20
88.0
 30
0.0
 41
6.0
 42
6.0
  0
LINE
  5
2B5
330
2AC
100
AcDbEntity
  8
0
 62
7
100
AcDbLine
 10
680.5
 20
88.0
 30
0.0
 11
938.25
 21
88.0
 31
0.0
  0
MTEXT
  5
2B6
330
2AC
100
AcDbEntity
  8
0
 62
7
100
AcDbMText
 10
809.375
 20
93.625
 30
0.0
 40
10.0
 71
5
  1
269,75
  0
POINT
  5
2B7
330
2AC
100
AcDbEntity
  8
Defpoints
100
AcDbPoint
 10
674.5
 20
88.0
 30
0.0
  0
POINT
  5
2B8
330
2AC
100
AcDbEntity
  8
Defpoints
100
AcDbPoint
 10
674.5
 20
82.0
 30
0.0
  0
POINT
  5
2B9
330
2AC
100
AcDbEntity
  8
Defpoints
100
AcDbPoint
 10
944.25
 20
82.0
 30
0.0
  0
ENDBLK
  5
2AE
330
2AC
100
AcDbEntity
  8
0
100
AcDbBlockEnd
  0
BLOCK
  5
2BC
330
2BB
100
AcDbEntity
  8
0
100
AcDbBlockBegin
  2
*D43
 70
1
 10
0.0
 20
0.0
 30
0.0
  3
*D43
  1

  0
LINE
  5
2BE
330
2BB
100
AcDbEntity
  8
0
 62
7
100
AcDbLine
 10
1014.25
 20
85.0
 30
0.0
 11
1014.25
 21
91.0
 31
0.0
  0
LINE
  5
2BF
330
2BB
100
AcDbEntity
  8
0
 62
7
100
AcDbLine
 10
1284.0
 20
85.0
 30
0.0
 11
1284.0
 21
91.0
 31
0.0
  0
INSERT
  5
2C0
330
2BB
100
AcDbEntity
  8
0
 62
7
100
AcDbBlockReference
  2
_CLOSEDFILLED
 10
1014.25
 20
88.0
 30
0.0
 41
6.0
 42
6.0
 50
180.0
  0
INSERT
  5
2C2
330
2BB
100
AcDbEntity
  8
0
 62
7
100
AcDbBlockReference
  2
_CLOSEDFILLED
 10
1284.0
 20
88.0
 30
0.0
 41
6.0
 42
6.0
  0
LINE
  5
2C4
330
2BB
100
AcDbEntity
  8
0
 62
7
100
AcDbLine
 10
1020.25
 20
88.0
 30
0.0
 11
1278.0
 21
88.0
 31
0.0
  0
MTEXT
  5
2C5
330
2BB
100
AcDbEntity
  8
0
 62
7
100
AcDbMText
 10
1149.125
 20
93.625
 30
0.0
 40
10.0
 71
5
  1
269,75
  0
POINT
  5
2C6
330
2BB
100
AcDbEntity
  8
Defpoints
100
AcDbPoint
 10
1014.25
 20
88.0
 30
0.0
  0
POINT
  5
2C7
330
2BB
100
AcDbEntity
  8
Defpoints
100
AcDbPoint
 10
1014.25
 20
82.0
 30
0.0
  0
POINT
  5
2C8
330
2BB
100
AcDbEntity
  8
Defpoints
100
AcDbPoint
 10
1284.0
 20
82.0
 30
0.0
  0
ENDBLK
  5
2BD
330
2BB
100
AcDbEntity
  8
0
100
AcDbBlockEnd
  0
BLOCK
  5
2CB
330
2CA
100
AcDbEntity
  8
0
100
AcDbBlockBegin
  2
*D44
 70
1
 10
0.0
 20
0.0
 30
0.0
  3
*D44
  1

  0
LINE
  5
2CD
330
2CA
100
AcDbEntity
  8
0
 62
7
100
AcDbLine
 10
982.25
 20
12.0
 30
0.0
 11
988.25
 21
12.0
 31
0.0
  0
LINE
  5
2CE
330
2CA
100
AcDbEntity
  8
0
 62
7
100
AcDbLine
 10
982.25
 20
62.0
 30
0.0
 11
988.25
 21
62.0
 31
0.0
  0
INSERT
  5
2CF
330
2CA
100
AcDbEntity
  8
0
 62
7
100
AcDbBlockReference
  2
_CLOSEDFILLED
 10
985.25
 20
12.0
 30
0.0
 41
6.0
 42
6.0
 50
270.0
  0
INSERT
  5
2D1
330
2CA
100
AcDbEntity
  8
0
 62
7
100
AcDbBlockReference
  2
_CLOSEDFILLED
 10
985.25
 20
62.0
 30
0.0
 41
6.0
 42
6.0
 50
90.0
  0
LINE
  5
2D3
330
2CA
100
AcDbEntity
  8
0
 62
7
100
AcDbLine
 10
985.25
 20
18.0
 30
0.0
 11
985.25
 21
56.0
 31
0.0
  0
MTEXT
  5
2D4
330
2CA
100
AcDbEntity
  8
0
 62
7
100
AcDbMText
 10
979.625
 20
37.0
 30
0.0
 40
10.0
 71
5
  1
50
 50
90.0
  0
POINT
  5
2D5
330
2CA
100
AcDbEntity
  8
Defpoints
100
AcDbPoint
 10
985.25
 20
12.0
 30
0.0
  0
POINT
  5
2D6
330
2CA
100
AcDbEntity
  8
Defpoints
100
AcDbPoint
 10
979.25
 20
12.0
 30
0.0
  0
POINT
  5
2D7
330
2CA
100
AcDbEntity
  8
Defpoints
100
AcDbPoint
 10
979.25
 20
62.0
 30
0.0
  0
ENDBLK
  5
2CC
330
2CA
100
AcDbEntity
  8
0
100
AcDbBlockEnd
  0
BLOCK
  5
2DA
330
2D9
100
AcDbEntity
  8
0
100
AcDbBlockBegin
  2
*D45
 70
1
 10
0.0
 20
0.0
 30
0.0
  3
*D45
  1

  0
INSERT
  5
2DC
330
2D9
100
AcDbEntity
  8
0
100
AcDbBlockReference
  2
_CLOSEDFILLED
 10
706.721825406948
 20
1519.221825406948
 30
0.0
 41
0.25
 42
0.25
 50
45.0
  0
INSERT
  5
2DE
330
2D9
100
AcDbEntity
  8
0
100
AcDbBlockReference
  2
_CLOSEDFILLED
 10
722.278174593052
 20
1534.778174593052
 30
0.0
 41
0.25
 42
0.25
 50
45.0
  0
LINE
  5
2E0
330
2D9
100
AcDbEntity
  8
0
100
AcDbLine
 10
706.5450487116514
 20
1519.0450487116514
 30
0.0
 11
722.1013978977553
 21
1534.6013978977553
 31
0.0
  0
LINE
  5
2E1
330
2D9
100
AcDbEntity
  8
0
100
AcDbLine
 10
706.1031069734097
 20
1518.6031069734097
 30
0.0
 11
706.5450487116514
 21
1519.0450487116514
 31
0.0
  0
MTEXT
  5
2E2
330
2D9
100
AcDbEntity
  8
0
100
AcDbMText
 10
705.0424468016299
 20
1517.54244680163
 30
0.0
 40
1.0
 71
5
  1
%%c22
 50
45.0
  0
POINT
  5
2E3
330
2D9
100
AcDbEntity
  8
Defpoints
100
AcDbPoint
 10
714.5
 20
1527.0
 30
0.0
  0
POINT
  5
2E4
330
2D9
100
AcDbEntity
  8
Defpoints
100
AcDbPoint
 10
706.721825406948
 20
1519.221825406948
 30
0.0
  0
ENDBLK
  5
2DB
330
2D9
100
AcDbEntity
  8
0
100
AcDbBlockEnd
  0
BLOCK
  5
2E7
330
2E6
100
AcDbEntity
  8
0
100
AcDbBlockBegin
  2
*D46
 70
1
 10
0.0
 20
0.0
 30
0.0
  3
*D46
  1

  0
LINE
  5
2E9
330
2E6
100
AcDbEntity
  8
0
 62
7
100
AcDbLine
 10
674.5
 20
1530.0
 30
0.0
 11
674.5
 21
1536.0
 31
0.0
  0
LINE
  5
2EA
330
2E6
100
AcDbEntity
  8
0
 62
7
100
AcDbLine
 10
714.5
 20
1530.0
 30
0.0
 11
714.5
 21
1536.0
 31
0.0
  0
INSERT
  5
2EB
330
2E6
100
AcDbEntity
  8
0
 62
7
100
AcDbBlockReference
  2
_CLOSEDFILLED
 10
674.5
 20
1533.0
 30
0.0
 41
6.0
 42
6.0
 50
180.0
  0
INSERT
  5
2ED
330
2E6
100
AcDbEntity
  8
0
 62
7
100
AcDbBlockReference
  2
_CLOSEDFILLED
 10
714.5
 20
1533.0
 30
0.0
 41
6.0
 42
6.0
  0
LINE
  5
2EF
330
2E6
100
AcDbEntity
  8
0
 62
7
100
AcDbLine
 10
680.5
 20
1533.0
 30
0.0
 11
708.5
 21
1533.0
 31
0.0
  0
MTEXT
  5
2F0
330
2E6
100
AcDbEntity
  8
0
 62
7
100
AcDbMText
 10
694.5
 20
1538.625
 30
0.0
 40
10.0
 71
5
  1
40
  0
POINT
  5
2F1
330
2E6
100
AcDbEntity
  8
Defpoints
100
AcDbPoint
 10
674.5
 20
1533.0
 30
0.0
  0
POINT
  5
2F2
330
2E6
100
AcDbEntity
  8
Defpoints
100
AcDbPoint
 10
674.5
 20
1527.0
 30
0.0
  0
POINT
  5
2F3
330
2E6
100
AcDbEntity
  8
Defpoints
100
AcDbPoint
 10
714.5
 20
1527.0
 30
0.0
  0
ENDBLK
  5
2E8
330
2E6
100
AcDbEntity
  8
0
100
AcDbBlockEnd
  0
BLOCK
  5
2F6
330
2F5
100
AcDbEntity
  8
0
100
AcDbBlockBegin
  2
*D47
 70
1
 10
0.0
 20
0.0
 30
0.0
  3
*D47
  1

  0
LINE
  5
2F8
330
2F5
100
AcDbEntity
  8
0
 62
7
100
AcDbLine
 10
711.5
 20
1527.0
 30
0.0
 11
705.5
 21
1527.0
 31
0.0
  0
LINE
  5
2F9
330
2F5
100
AcDbEntity
  8
0
 62
7
100
AcDbLine
 10
711.5
 20
1607.0
 30
0.0
 11
705.5
 21
1607.0
 31
0.0
  0
INSERT
  5
2FA
330
2F5
100
AcDbEntity
  8
0
 62
7
100
AcDbBlockReference
  2
_CLOSEDFILLED
 10
708.5
 20
1527.0
 30
0.0
 41
6.0
 42
6.0
 50
270.0
  0
INSERT
  5
2FC
330
2F5
100
AcDbEntity
  8
0
 62
7
100
AcDbBlockReference
  2
_CLOSEDFILLED
 10
708.5
 20
1607.0
 30
0.0
 41
6.0
 42
6.0
 50
90.0
  0
LINE
  5
2FE
330
2F5
100
AcDbEntity
  8
0
 62
7
100
AcDbLine
 10
708.5
 20
1533.0
 30
0.0
 11
708.5
 21
1601.0
 31
0.0
  0
MTEXT
  5
2FF
330
2F5
100
AcDbEntity
  8
0
 62
7
100
AcDbMText
 10
702.875
 20
1567.0
 30
0.0
 40
10.0
 71
5
  1
80
 50
90.0
  0
POINT
  5
300
330
2F5
100
AcDbEntity
  8
Defpoints
100
AcDbPoint
 10
708.5
 20
1527.0
 30
0.0
  0
POINT
  5
301
330
2F5
100
AcDbEntity
  8
Defpoints
100
AcDbPoint
 10
714.5
 20
1527.0
 30
0.0
  0
POINT
  5
302
330
2F5
100
AcDbEntity
  8
Defpoints
100
AcDbPoint
 10
714.5
 20
1607.0
 30
0.0
  0
ENDBLK
  5
2F7
330
2F5
100
AcDbEntity
  8
0
100
AcDbBlockEnd
  0
BLOCK
  5
305
330
304
100
AcDbEntity
  8
0
100
AcDbBlockBegin
  2
*D48
 70
1
 10
0.0
 20
0.0
 30
0.0
  3
*D48
  1

  0
INSERT
  5
307
330
304
100
AcDbEntity
  8
0
100
AcDbBlockReference
  2
_CLOSEDFILLED
 10
706.721825406948
 20
84.22182540694797
 30
0.0
 41
0.25
 42
0.25
 50
45.0000000000002
  0
INSERT
  5
309
330
304
100
AcDbEntity
  8
0
100
AcDbBlockReference
  2
_CLOSEDFILLED
 10
722.278174593052
 20
99.77817459305203
 30
0.0
 41
0.25
 42
0.25
 50
45.0000000000002
  0
LINE
  5
30B
330
304
100
AcDbEntity
  8
0
100
AcDbLine
 10
706.5450487116514
 20
84.04504871165133
 30
0.0
 11
722.1013978977553
 21
99.60139789775539
 31
0.0
  0
LINE
  5
30C
330
304
100
AcDbEntity
  8
0
100
AcDbLine
 10
706.1031069734098
 20
83.60310697340977
 30
0.0
 11
706.5450487116514
 21
84.04504871165133
 31
0.0
  0
MTEXT
  5
30D
330
304
100
AcDbEntity
  8
0
100
AcDbMText
 10
705.04244680163
 20
82.54244680162992
 30
0.0
 40
1.0
 71
5
  1
%%c22
 50
45.0000000000002
  0
POINT
  5
30E
330
304
100
AcDbEntity
  8
Defpoints
100
AcDbPoint
 10
714.5
 20
92.0
 30
0.0
  0
POINT
  5
30F
330
304
100
AcDbEntity
  8
Defpoints
100
AcDbPoint
 10
706.721825406948
 20
84.22182540694797
 30
0.0
  0
ENDBLK
  5
306
330
304
100
AcDbEntity
  8
0
100
AcDbBlockEnd
  0
BLOCK
  5
312
330
311
100
AcDbEntity
  8
0
100
AcDbBlockBegin
  2
*D49
 70
1
 10
0.0
 20
0.0
 30
0.0
  3
*D49
  1

  0
LINE
  5
314
330
311
100
AcDbEntity
  8
0
 62
7
100
AcDbLine
 10
674.5
 20
95.0
 30
0.0
 11
674.5
 21
101.0
 31
0.0
  0
LINE
  5
315
330
311
100
AcDbEntity
  8
0
 62
7
100
AcDbLine
 10
714.5
 20
95.0
 30
0.0
 11
714.5
 21
101.0
 31
0.0
  0
INSERT
  5
316
330
311
100
AcDbEntity
  8
0
 62
7
100
AcDbBlockReference
  2
_CLOSEDFILLED
 10
674.5
 20
98.0
 30
0.0
 41
6.0
 42
6.0
 50
180.0
  0
INSERT
  5
318
330
311
100
AcDbEntity
  8
0
 62
7
100
AcDbBlockReference
  2
_CLOSEDFILLED
 10
714.5
 20
98.0
 30
0.0
 41
6.0
 42
6.0
  0
LINE
  5
31A
330
311
100
AcDbEntity
  8
0
 62
7
100
AcDbLine
 10
680.5
 20
98.0
 30
0.0
 11
708.5
 21
98.0
 31
0.0
  0
MTEXT
  5
31B
330
311
100
AcDbEntity
  8
0
 62
7
100
AcDbMText
 10
694.5
 20
103.625
 30
0.0
 40
10.0
 71
5
  1
40
  0
POINT
  5
31C
330
311
100
AcDbEntity
  8
Defpoints
100
AcDbPoint
 10
674.5
 20
98.0
 30
0.0
  0
POINT
  5
31D
330
311
100
AcDbEntity
  8
Defpoints
100
AcDbPoint
 10
674.5
 20
92.0
 30
0.0
  0
POINT
  5
31E
330
311
100
AcDbEntity
  8
Defpoints
100
AcDbPoint
 10
714.5
 20
92.0
 30
0.0
  0
ENDBLK
  5
313
330
311
100
AcDbEntity
  8
0
100
AcDbBlockEnd
  0
BLOCK
  5
321
330
320
100
AcDbEntity
  8
0
100
AcDbBlockBegin
  2
*D50
 70
1
 10
0.0
 20
0.0
 30
0.0
  3
*D50
  1

  0
LINE
  5
323
330
320
100
AcDbEntity
  8
0
 62
7
100
AcDbLine
 10
711.5
 20
12.0
 30
0.0
 11
705.5
 21
12.0
 31
0.0
  0
LINE
  5
324
330
320
100
AcDbEntity
  8
0
 62
7
100
AcDbLine
 10
711.5
 20
92.0
 30
0.0
 11
705.5
 21
92.0
 31
0.0
  0
INSERT
  5
325
330
320
100
AcDbEntity
  8
0
 62
7
100
AcDbBlockReference
  2
_CLOSEDFILLED
 10
708.5
 20
12.0
 30
0.0
 41
6.0
 42
6.0
 50
270.0
  0
INSERT
  5
327
330
320
100
AcDbEntity
  8
0
 62
7
100
AcDbBlockReference
  2
_CLOSEDFILLED
 10
708.5
 20
92.0
 30
0.0
 41
6.0
 42
6.0
 50
90.0
  0
LINE
  5
329
330
320
100
AcDbEntity
  8
0
 62
7
100
AcDbLine
 10
708.5
 20
18.0
 30
0.0
 11
708.5
 21
86.0
 31
0.0
  0
MTEXT
  5
32A
330
320
100
AcDbEntity
  8
0
 62
7
100
AcDbMText
 10
702.875
 20
52.0
 30
0.0
 40
10.0
 71
5
  1
80
 50
90.0
  0
POINT
  5
32B
330
320
100
AcDbEntity
  8
Defpoints
100
AcDbPoint
 10
708.5
 20
12.0
 30
0.0
  0
POINT
  5
32C
330
320
100
AcDbEntity
  8
Defpoints
100
AcDbPoint
 10
714.5
 20
12.0
 30
0.0
  0
POINT
  5
32D
330
320
100
AcDbEntity
  8
Defpoints
100
AcDbPoint
 10
714.5
 20
92.0
 30
0.0
  0
ENDBLK
  5
322
330
320
100
AcDbEntity
  8
0
100
AcDbBlockEnd
  0
BLOCK
  5
330
330
32F
100
AcDbEntity
  8
0
100
AcDbBlockBegin
  2
*D51
 70
1
 10
0.0
 20
0.0
 30
0.0
  3
*D51
  1

  0
LINE
  5
332
330
32F
100
AcDbEntity
  8
0
 62
7
100
AcDbLine
 10
655.5
 20
53.0
 30
0.0
 11
655.5
 21
59.0
 31
0.0
  0
LINE
  5
333
330
32F
100
AcDbEntity
  8
0
 62
7
100
AcDbLine
 10
674.5
 20
53.0
 30
0.0
 11
674.5
 21
59.0
 31
0.0
  0
INSERT
  5
334
330
32F
100
AcDbEntity
  8
0
 62
7
100
AcDbBlockReference
  2
_CLOSEDFILLED
 10
655.5
 20
56.0
 30
0.0
 41
6.0
 42
6.0
 50
180.0
  0
INSERT
  5
336
330
32F
100
AcDbEntity
  8
0
 62
7
100
AcDbBlockReference
  2
_CLOSEDFILLED
 10
674.5
 20
56.0
 30
0.0
 41
6.0
 42
6.0
  0
LINE
  5
338
330
32F
100
AcDbEntity
  8
0
 62
7
100
AcDbLine
 10
661.5
 20
56.0
 30
0.0
 11
668.5
 21
56.0
 31
0.0
  0
MTEXT
  5
339
330
32F
100
AcDbEntity
  8
0
 62
7
100
AcDbMText
 10
665.0
 20
64.625
 30
0.0
 40
10.0
 71
5
  1
19
  0
POINT
  5
33A
330
32F
100
AcDbEntity
  8
Defpoints
100
AcDbPoint
 10
655.5
 20
56.0
 30
0.0
  0
POINT
  5
33B
330
32F
100
AcDbEntity
  8
Defpoints
100
AcDbPoint
 10
655.5
 20
50.0
 30
0.0
  0
POINT
  5
33C
330
32F
100
AcDbEntity
  8
Defpoints
100
AcDbPoint
 10
674.5
 20
50.0
 30
0.0
  0
ENDBLK
  5
331
330
32F
100
AcDbEntity
  8
0
100
AcDbBlockEnd
  0
BLOCK
  5
33F
330
33E
100
AcDbEntity
  8
0
100
AcDbBlockBegin
  2
*D52
 70
1
 10
0.0
 20
0.0
 30
0.0
  3
*D52
  1

  0
LINE
  5
341
330
33E
100
AcDbEntity
  8
0
 62
7
100
AcDbLine
 10
1284.0
 20
1566.0
 30
0.0
 11
1284.0
 21
1540.0
 31
0.0
  0
LINE
  5
342
330
33E
100
AcDbEntity
  8
0
 62
7
100
AcDbLine
 10
1296.0
 20
1566.0
 30
0.0
 11
1296.0
 21
1540.0
 31
0.0
  0
INSERT
  5
343
330
33E
100
AcDbEntity
  8
0
 62
7
100
AcDbBlockReference
  2
_CLOSEDFILLED
 10
1284.0
 20
1543.0
 30
0.0
 41
6.0
 42
6.0
  0
INSERT
  5
345
330
33E
100
AcDbEntity
  8
0
 62
7
100
AcDbBlockReference
  2
_CLOSEDFILLED
 10
1296.0
 20
1543.0
 30
0.0
 41
6.0
 42
6.0
 50
180.0
  0
LINE
  5
347
330
33E
100
AcDbEntity
  8
0
 62
7
100
AcDbLine
 10
1278.0
 20
1543.0
 30
0.0
 11
1272.0
 21
1543.0
 31
0.0
  0
LINE
  5
348
330
33E
100
AcDbEntity
  8
0
 62
7
100
AcDbLine
 10
1302.0
 20
1543.0
 30
0.0
 11
1308.0
 21
1543.0
 31
0.0
  0
LINE
  5
349
330
33E
100
AcDbEntity
  8
0
 62
7
100
AcDbLine
 10
1284.0
 20
1543.0
 30
0.0
 11
1296.0
 21
1543.0
 31
0.0
  0
MTEXT
  5
34A
330
33E
100
AcDbEntity
  8
0
 62
7
100
AcDbMText
 10
1290.0
 20
1551.625
 30
0.0
 40
10.0
 71
5
  1
12
  0
POINT
  5
34B
330
33E
100
AcDbEntity
  8
Defpoints
100
AcDbPoint
 10
1284.0
 20
1543.0
 30
0.0
  0
POINT
  5
34C
330
33E
100
AcDbEntity
  8
Defpoints
100
AcDbPoint
 10
1284.0
 20
1569.0
 30
0.0
  0
POINT
  5
34D
330
33E
100
AcDbEntity
  8
Defpoints
100
AcDbPoint
 10
1296.0
 20
1569.0
 30
0.0
  0
ENDBLK
  5
340
330
33E
100
AcDbEntity
  8
0
100
AcDbBlockEnd
  0
BLOCK
  5
350
330
34F
100
AcDbEntity
  8
0
100
AcDbBlockBegin
  2
*D53
 70
1
 10
0.0
 20
0.0
 30
0.0
  3
*D53
  1

  0
LINE
  5
352
330
34F
100
AcDbEntity
  8
0
 62
7
100
AcDbLine
 10
1249.0
 20
1607.0
 30
0.0
 11
1275.0
 21
1607.0
 31
0.0
  0
LINE
  5
353
330
34F
100
AcDbEntity
  8
0
 62
7
100
AcDbLine
 10
1249.0
 20
1619.0
 30
0.0
 11
1275.0
 21
1619.0
 31
0.0
  0
INSERT
  5
354
330
34F
100
AcDbEntity
  8
0
 62
7
100
AcDbBlockReference
  2
_CLOSEDFILLED
 10
1272.0
 20
1607.0
 30
0.0
 41
6.0
 42
6.0
 50
90.0
  0
INSERT
  5
356
330
34F
100
AcDbEntity
  8
0
 62
7
100
AcDbBlockReference
  2
_CLOSEDFILLED
 10
1272.0
 20
1619.0
 30
0.0
 41
6.0
 42
6.0
 50
270.0
  0
LINE
  5
358
330
34F
100
AcDbEntity
  8
0
 62
7
100
AcDbLine
 10
1272.0
 20
1601.0
 30
0.0
 11
1272.0
 21
1595.0
 31
0.0
  0
LINE
  5
359
330
34F
100
AcDbEntity
  8
0
 62
7
100
AcDbLine
 10
1272.0
 20
1625.0
 30
0.0
 11
1272.0
 21
1631.0
 31
0.0
  0
LINE
  5
35A
330
34F
100
AcDbEntity
  8
0
 62
7
100
AcDbLine
 10
1272.0
 20
1607.0
 30
0.0
 11
1272.0
 21
1619.0
 31
0.0
  0
MTEXT
  5
35B
330
34F
100
AcDbEntity
  8
0
 62
7
100
AcDbMText
 10
1263.375
 20
1613.0
 30
0.0
 40
10.0
 71
5
  1
12
 50
90.0
  0
POINT
  5
35C
330
34F
100
AcDbEntity
  8
Defpoints
100
AcDbPoint
 10
1272.0
 20
1607.0
 30
0.0
  0
POINT
  5
35D
330
34F
100
AcDbEntity
  8
Defpoints
100
AcDbPoint
 10
1246.0
 20
1607.0
 30
0.0
  0
POINT
  5
35E
330
34F
100
AcDbEntity
  8
Defpoints
100
AcDbPoint
 10
1246.0
 20
1619.0
 30
0.0
  0
ENDBLK
  5
351
330
34F
100
AcDbEntity
  8
0
100
AcDbBlockEnd
  0
BLOCK
  5
361
330
360
100
AcDbEntity
  8
0
100
AcDbBlockBegin
  2
*D54
 70
1
 10
0.0
 20
0.0
 30
0.0
  3
*D54
  1

  0
LINE
  5
363
330
360
100
AcDbEntity
  8
0
 62
7
100
AcDbLine
 10
1243.0
 20
0.0
 30
0.0
 11
1217.0
 21
0.0
 31
0.0
  0
LINE
  5
364
330
360
100
AcDbEntity
  8
0
 62
7
100
AcDbLine
 10
1243.0
 20
12.0
 30
0.0
 11
1217.0
 21
12.0
 31
0.0
  0
INSERT
  5
365
330
360
100
AcDbEntity
  8
0
 62
7
100
AcDbBlockReference
  2
_CLOSEDFILLED
 10
1220.0
 20
0.0
 30
0.0
 41
6.0
 42
6.0
 50
90.0
  0
INSERT
  5
367
330
360
100
AcDbEntity
  8
0
 62
7
100
AcDbBlockReference
  2
_CLOSEDFILLED
 10
1220.0
 20
12.0
 30
0.0
 41
6.0
 42
6.0
 50
270.0
  0
LINE
  5
369
330
360
100
AcDbEntity
  8
0
 62
7
100
AcDbLine
 10
1220.0
 20
-6.0
 30
0.0
 11
1220.0
 21
-12.0
 31
0.0
  0
LINE
  5
36A
330
360
100
AcDbEntity
  8
0
 62
7
100
AcDbLine
 10
1220.0
 20
18.0
 30
0.0
 11
1220.0
 21
24.0
 31
0.0
  0
LINE
  5
36B
330
360
100
AcDbEntity
  8
0
 62
7
100
AcDbLine
 10
1220.0
 20
0.0
 30
0.0
 11
1220.0
 21
12.0
 31
0.0
  0
MTEXT
  5
36C
330
360
100
AcDbEntity
  8
0
 62
7
100
AcDbMText
 10
1211.375
 20
6.0
 30
0.0
 40
10.0
 71
5
  1
12
 50
90.0
  0
POINT
  5
36D
330
360
100
AcDbEntity
  8
Defpoints
100
AcDbPoint
 10
1220.0
 20
0.0
 30
0.0
  0
POINT
  5
36E
330
360
100
AcDbEntity
  8
Defpoints
100
AcDbPoint
 10
1246.0
 20
0.0
 30
0.0
  0
POINT
  5
36F
330
360
100
AcDbEntity
  8
Defpoints
100
AcDbPoint
 10
1246.0
 20
12.0
 30
0.0
  0
ENDBLK
  5
362
330
360
100
AcDbEntity
  8
0
100
AcDbBlockEnd
  0
BLOCK
  5
372
330
371
100
AcDbEntity
  8
0
100
AcDbBlockBegin
  2
*D55
 70
1
 10
0.0
 20
0.0
 30
0.0
  3
*D55
  1

  0
LINE
  5
374
330
371
100
AcDbEntity
  8
0
 62
7
100
AcDbLine
 10
0.0
 20
53.0
 30
0.0
 11
0.0
 21
59.0
 31
0.0
  0
LINE
  5
375
330
371
100
AcDbEntity
  8
0
 62
7
100
AcDbLine
 10
12.0
 20
53.0
 30
0.0
 11
12.0
 21
59.0
 31
0.0
  0
INSERT
  5
376
330
371
100
AcDbEntity
  8
0
 62
7
100
AcDbBlockReference
  2
_CLOSEDFILLED
 10
0.0
 20
56.0
 30
0.0
 41
6.0
 42
6.0
  0
INSERT
  5
378
330
371
100
AcDbEntity
  8
0
 62
7
100
AcDbBlockReference
  2
_CLOSEDFILLED
 10
12.0
 20
56.0
 30
0.0
 41
6.0
 42
6.0
 50
180.0
  0
LINE
  5
37A
330
371
100
AcDbEntity
  8
0
 62
7
100
AcDbLine
 10
-6.0
 20
56.0
 30
0.0
 11
-12.0
 21
56.0
 31
0.0
  0
LINE
  5
37B
330
371
100
AcDbEntity
  8
0
 62
7
100
AcDbLine
 10
18.0
 20
56.0
 30
0.0
 11
24.0
 21
56.0
 31
0.0
  0
LINE
  5
37C
330
371
100
AcDbEntity
  8
0
 62
7
100
AcDbLine
 10
0.0
 20
56.0
 30
0.0
 11
12.0
 21
56.0
 31
0.0
  0
MTEXT
  5
37D
330
371
100
AcDbEntity
  8
0
 62
7
100
AcDbMText
 10
6.0
 20
64.625
 30
0.0
 40
10.0
 71
5
  1
12
  0
POINT
  5
37E
330
371
100
AcDbEntity
  8
Defpoints
100
AcDbPoint
 10
0.0
 20
56.0
 30
0.0
  0
POINT
  5
37F
330
371
100
AcDbEntity
  8
Defpoints
100
AcDbPoint
 10
0.0
 20
50.0
 30
0.0
  0
POINT
  5
380
330
371
100
AcDbEntity
  8
Defpoints
100
AcDbPoint
 10
12.0
 20
50.0
 30
0.0
  0
ENDBLK
  5
373
330
371
100
AcDbEntity
  8
0
100
AcDbBlockEnd
  0
BLOCK
  5
383
330
382
100
AcDbEntity
  8
0
100
AcDbBlockBegin
  2
*D56
 70
1
 10
0.0
 20
0.0
 30
0.0
  3
*D56
  1

  0
LINE
  5
385
330
382
100
AcDbEntity
  8
0
 62
7
100
AcDbLine
 10
621.5
 20
1566.0
 30
0.0
 11
621.5
 21
1530.0
 31
0.0
  0
LINE
  5
386
330
382
100
AcDbEntity
  8
0
 62
7
100
AcDbLine
 10
652.5
 20
1566.0
 30
0.0
 11
652.5
 21
1530.0
 31
0.0
  0
INSERT
  5
387
330
382
100
AcDbEntity
  8
0
 62
7
100
AcDbBlockReference
  2
_CLOSEDFILLED
 10
621.5
 20
1533.0
 30
0.0
 41
6.0
 42
6.0
 50
180.0
  0
INSERT
  5
389
330
382
100
AcDbEntity
  8
0
 62
7
100
AcDbBlockReference
  2
_CLOSEDFILLED
 10
652.5
 20
1533.0
 30
0.0
 41
6.0
 42
6.0
  0
LINE
  5
38B
330
382
100
AcDbEntity
  8
0
 62
7
100
AcDbLine
 10
627.5
 20
1533.0
 30
0.0
 11
646.5
 21
1533.0
 31
0.0
  0
MTEXT
  5
38C
330
382
100
AcDbEntity
  8
0
 62
7
100
AcDbMText
 10
637.0
 20
1538.625
 30
0.0
 40
10.0
 71
5
  1
31
  0
POINT
  5
38D
330
382
100
AcDbEntity
  8
Defpoints
100
AcDbPoint
 10
621.5
 20
1533.0
 30
0.0
  0
POINT
  5
38E
330
382
100
AcDbEntity
  8
Defpoints
100
AcDbPoint
 10
621.5
 20
1569.0
 30
0.0
  0
POINT
  5
38F
330
382
100
AcDbEntity
  8
Defpoints
100
AcDbPoint
 10
652.5
 20
1569.0
 30
0.0
  0
ENDBLK
  5
384
330
382
100
AcDbEntity
  8
0
100
AcDbBlockEnd
  0
BLOCK
  5
392
330
391
100
AcDbEntity
  8
0
100
AcDbBlockBegin
  2
*D57
 70
1
 10
0.0
 20
0.0
 30
0.0
  3
*D57
  1

  0
LINE
  5
394
330
391
100
AcDbEntity
  8
0
 62
7
100
AcDbLine
 10
605.5
 20
1607.0
 30
0.0
 11
641.5
 21
1607.0
 31
0.0
  0
LINE
  5
395
330
391
100
AcDbEntity
  8
0
 62
7
100
AcDbLine
 10
605.5
 20
1619.0
 30
0.0
 11
641.5
 21
1619.0
 31
0.0
  0
INSERT
  5
396
330
391
100
AcDbEntity
  8
0
 62
7
100
AcDbBlockReference
  2
_CLOSEDFILLED
 10
638.5
 20
1607.0
 30
0.0
 41
6.0
 42
6.0
 50
90.0
  0
INSERT
  5
398
330
391
100
AcDbEntity
  8
0
 62
7
100
AcDbBlockReference
  2
_CLOSEDFILLED
 10
638.5
 20
1619.0
 30
0.0
 41
6.0
 42
6.0
 50
270.0
  0
LINE
  5
39A
330
391
100
AcDbEntity
  8
0
 62
7
100
AcDbLine
 10
638.5
 20
1601.0
 30
0.0
 11
638.5
 21
1595.0
 31
0.0
  0
LINE
  5
39B
330
391
100
AcDbEntity
  8
0
 62
7
100
AcDbLine
 10
638.5
 20
1625.0
 30
0.0
 11
638.5
 21
1631.0
 31
0.0
  0
LINE
  5
39C
330
391
100
AcDbEntity
  8
0
 62
7
100
AcDbLine
 10
638.5
 20
1607.0
 30
0.0
 11
638.5
 21
1619.0
 31
0.0
  0
MTEXT
  5
39D
330
391
100
AcDbEntity
  8
0
 62
7
100
AcDbMText
 10
629.875
 20
1613.0
 30
0.0
 40
10.0
 71
5
  1
12
 50
90.0
  0
POINT
  5
39E
330
391
100
AcDbEntity
  8
Defpoints
100
AcDbPoint
 10
638.5
 20
1607.0
 30
0.0
  0
POINT
  5
39F
330
391
100
AcDbEntity
  8
Defpoints
100
AcDbPoint
 10
602.5
 20
1607.0
 30
0.0
  0
POINT
  5
3A0
330
391
100
AcDbEntity
  8
Defpoints
100
AcDbPoint
 10
602.5
 20
1619.0
 30
0.0
  0
ENDBLK
  5
393
330
391
100
AcDbEntity
  8
0
100
AcDbBlockEnd
  0
BLOCK
  5
3A3
330
3A2
100
AcDbEntity
  8
0
100
AcDbBlockBegin
  2
*D58
 70
1
 10
0.0
 20
0.0
 30
0.0
  3
*D58
  1

  0
LINE
  5
3A5
330
3A2
100
AcDbEntity
  8
0
 62
7
100
AcDbLine
 10
599.5
 20
0.0
 30
0.0
 11
563.5
 21
0.0
 31
0.0
  0
LINE
  5
3A6
330
3A2
100
AcDbEntity
  8
0
 62
7
100
AcDbLine
 10
599.5
 20
12.0
 30
0.0
 11
563.5
 21
12.0
 31
0.0
  0
INSERT
  5
3A7
330
3A2
100
AcDbEntity
  8
0
 62
7
100
AcDbBlockReference
  2
_CLOSEDFILLED
 10
566.5
 20
0.0
 30
0.0
 41
6.0
 42
6.0
 50
90.0
  0
INSERT
  5
3A9
330
3A2
100
AcDbEntity
  8
0
 62
7
100
AcDbBlockReference
  2
_CLOSEDFILLED
 10
566.5
 20
12.0
 30
0.0
 41
6.0
 42
6.0
 50
270.0
  0
LINE
  5
3AB
330
3A2
100
AcDbEntity
  8
0
 62
7
100
AcDbLine
 10
566.5
 20
-6.0
 30
0.0
 11
566.5
 21
-12.0
 31
0.0
  0
LINE
  5
3AC
330
3A2
100
AcDbEntity
  8
0
 62
7
100
AcDbLine
 10
566.5
 20
18.0
 30
0.0
 11
566.5
 21
24.0
 31
0.0
  0
LINE
  5
3AD
330
3A2
100
AcDbEntity
  8
0
 62
7
100
AcDbLine
 10
566.5
 20
0.0
 30
0.0
 11
566.5
 21
12.0
 31
0.0
  0
MTEXT
  5
3AE
330
3A2
100
AcDbEntity
  8
0
 62
7
100
AcDbMText
 10
557.875
 20
6.0
 30
0.0
 40
10.0
 71
5
  1
12
 50
90.0
  0
POINT
  5
3AF
330
3A2
100
AcDbEntity
  8
Defpoints
100
AcDbPoint
 10
566.5
 20
0.0
 30
0.0
  0
POINT
  5
3B0
330
3A2
100
AcDbEntity
  8
Defpoints
100
AcDbPoint
 10
602.5
 20
0.0
 30
0.0
  0
POINT
  5
3B1
330
3A2
100
AcDbEntity
  8
Defpoints
100
AcDbPoint
 10
602.5
 20
12.0
 30
0.0
  0
ENDBLK
  5
3A4
330
3A2
100
AcDbEntity
  8
0
100
AcDbBlockEnd
  0
ENDSEC
  0
SECTION
  2
ENTITIES
  0
LWPOLYLINE
  5
33
330
17
100
AcDbEntity
  8
CUT
100
AcDbPolyline
 90
5
 70
0
 10
655.5
 20
12.0
 10
1296.0
 20
12.0
 10
1296.0
 20
1607.0
 10
655.5
 20
1607.0
 10
655.5
 20
12.0
  0
LWPOLYLINE
  5
34
330
17
100
AcDbEntity
  8
CUT
100
AcDbPolyline
 90
5
 70
0
 10
674.5
 20
0.0
 10
1284.0
 20
0.0
 10
1284.0
 20
1619.0
 10
674.5
 20
1619.0
 10
674.5
 20
0.0
  0
LWPOLYLINE
  5
35
330
17
100
AcDbEntity
  8
CUT
100
AcDbPolyline
 90
5
 70
0
 10
0.0
 20
12.0
 10
652.5
 20
12.0
 10
652.5
 20
1607.0
 10
0.0
 20
1607.0
 10
0.0
 20
12.0
  0
LWPOLYLINE
  5
36
330
17
100
AcDbEntity
  8
CUT
100
AcDbPolyline
 90
5
 70
0
 10
12.0
 20
0.0
 10
621.5
 20
0.0
 10
621.5
 20
1619.0
 10
12.0
 20
1619.0
 10
12.0
 20
0.0
  0
LWPOLYLINE
  5
37
330
17
100
AcDbEntity
  8
CUT
100
AcDbPolyline
 90
5
 70
0
 10
566.5
 20
753.5
 10
591.5
 20
753.5
 10
591.5
 20
865.5
 10
566.5
 20
865.5
 10
566.5
 20
753.5
  0
LWPOLYLINE
  5
38
330
17
100
AcDbEntity
  8
CUT
100
AcDbPolyline
 90
5
 70
0
 10
704.5
 20
753.5
 10
729.5
 20
753.5
 10
729.5
 20
865.5
 10
704.5
 20
865.5
 10
704.5
 20
753.5
  0
LWPOLYLINE
  5
39
330
17
100
AcDbEntity
  8
CUT
100
AcDbPolyline
 90
37
 70
0
 10
884.5
 20
759.5
 10
1074.0
 20
759.5
 10
1077.9018064403226
 20
759.1157056080646
 10
1081.6536686473019
 20
757.9775906502257
 10
1085.111404660392
 20
756.1293922460509
 10
1088.142135623731
 20
753.642135623731
 10
1090.6293922460509
 20
750.611404660392
 10
1092.4775906502257
 20
747.1536686473017
 10
1093.6157056080647
 20
743.4018064403226
 10
1094.0
 20
739.5
 10
1094.0
 20
272.0
 10
1093.6157056080647
 20
268.09819355967744
 10
1092.4775906502257
 20
264.3463313526982
 10
1090.6293922460509
 20
260.88859533960795
 10
1088.142135623731
 20
257.85786437626905
 10
1085.111404660392
 20
255.3706077539491
 10
1081.6536686473019
 20
253.52240934977425
 10
1077.9018064403226
 20
252.38429439193538
 10
1074.0
 20
252.0
 10
884.5
 20
252.0
 10
880.5981935596774
 20
252.38429439193538
 10
876.8463313526981
 20
253.52240934977425
 10
873.388595339608
 20
255.3706077539491
 10
870.357864376269
 20
257.85786437626905
 10
867.8706077539491
 20
260.88859533960795
 10
866.0224093497743
 20
264.3463313526982
 10
864.8842943919353
 20
268.09819355967744
 10
864.5
 20
272.0
 10
864.5
 20
739.5
 10
864.8842943919353
 20
743.4018064403226
 10
866.0224093497743
 20
747.1536686473017
 10
867.8706077539491
 20
750.611404660392
 10
870.357864376269
 20
753.642135623731
 10
873.388595339608
 20
756.1293922460509
 10
876.8463313526981
 20
757.9775906502257
 10
880.5981935596774
 20
759.1157056080646
 10
884.5
 20
759.5
  0
LWPOLYLINE
  5
3A
330
17
100
AcDbEntity
  8
CUT
100
AcDbPolyline
 90
37
 70
0
 10
884.5
 20
1367.0
 10
1074.0
 20
1367.0
 10
1077.9018064403226
 20
1366.6157056080647
 10
1081.6536686473019
 20
1365.4775906502257
 10
1085.111404660392
 20
1363.6293922460509
 10
1088.142135623731
 20
1361.142135623731
 10
1090.6293922460509
 20
1358.111404660392
 10
1092.4775906502257
 20
1354.6536686473019
 10
1093.6157056080647
 20
1350.9018064403226
 10
1094.0
 20
1347.0
 10
1094.0
 20
879.5
 10
1093.6157056080647
 20
875.5981935596774
 10
1092.4775906502257
 20
871.8463313526983
 10
1090.6293922460509
 20
868.388595339608
 10
1088.142135623731
 20
865.357864376269
 10
1085.111404660392
 20
862.8706077539491
 10
1081.6536686473019
 20
861.0224093497743
 10
1077.9018064403226
 20
859.8842943919354
 10
1074.0
 20
859.5
 10
884.5
 20
859.5
 10
880.5981935596774
 20
859.8842943919354
 10
876.8463313526981
 20
861.0224093497743
 10
873.388595339608
 20
862.8706077539491
 10
870.357864376269
 20
865.357864376269
 10
867.8706077539491
 20
868.388595339608
 10
866.0224093497743
 20
871.8463313526983
 10
864.8842943919353
 20
875.5981935596774
 10
864.5
 20
879.5
 10
864.5
 20
1347.0
 10
864.8842943919353
 20
1350.9018064403226
 10
866.0224093497743
 20
1354.6536686473019
 10
867.8706077539491
 20
1358.111404660392
 10
870.357864376269
 20
1361.142135623731
 10
873.388595339608
 20
1363.6293922460509
 10
876.8463313526981
 20
1365.4775906502257
 10
880.5981935596774
 20
1366.6157056080647
 10
884.5
 20
1367.0
  0
LWPOLYLINE
  5
3B
330
17
100
AcDbEntity
  8
CUT
100
AcDbPolyline
 90
37
 70
0
 10
222.0
 20
759.5
 10
411.5
 20
759.5
 10
415.40180644032256
 20
759.1157056080646
 10
419.1536686473018
 20
757.9775906502257
 10
422.61140466039205
 20
756.1293922460509
 10
425.64213562373095
 20
753.642135623731
 10
428.1293922460509
 20
750.611404660392
 10
429.97759065022575
 20
747.1536686473017
 10
431.1157056080646
 20
743.4018064403226
 10
431.5
 20
739.5
 10
431.5
 20
272.0
 10
431.1157056080646
 20
268.09819355967744
 10
429.97759065022575
 20
264.3463313526982
 10
428.1293922460509
 20
260.88859533960795
 10
425.64213562373095
 20
257.85786437626905
 10
422.61140466039205
 20
255.3706077539491
 10
419.1536686473018
 20
253.52240934977425
 10
415.40180644032256
 20
252.38429439193538
 10
411.5
 20
252.0
 10
222.0
 20
252.0
 10
218.09819355967744
 20
252.38429439193538
 10
214.3463313526982
 20
253.52240934977425
 10
210.88859533960795
 20
255.3706077539491
 10
207.85786437626905
 20
257.85786437626905
 10
205.37060775394912
 20
260.88859533960795
 10
203.52240934977425
 20
264.3463313526982
 10
202.38429439193538
 20
268.09819355967744
 10
202.0
 20
272.0
 10
202.0
 20
739.5
 10
202.38429439193538
 20
743.4018064403226
 10
203.52240934977425
 20
747.1536686473017
 10
205.37060775394912
 20
750.611404660392
 10
207.85786437626905
 20
753.642135623731
 10
210.88859533960795
 20
756.1293922460509
 10
214.3463313526982
 20
757.9775906502257
 10
218.09819355967744
 20
759.1157056080646
 10
222.0
 20
759.5
  0
LWPOLYLINE
  5
3C
330
17
100
AcDbEntity
  8
CUT
100
AcDbPolyline
 90
37
 70
0
 10
222.0
 20
1367.0
 10
411.5
 20
1367.0
 10
415.40180644032256
 20
1366.6157056080647
 10
419.1536686473018
 20
1365.4775906502257
 10
422.61140466039205
 20
1363.6293922460509
 10
425.64213562373095
 20
1361.142135623731
 10
428.1293922460509
 20
1358.111404660392
 10
429.97759065022575
 20
1354.6536686473019
 10
431.1157056080646
 20
1350.9018064403226
 10
431.5
 20
1347.0
 10
431.5
 20
879.5
 10
431.1157056080646
 20
875.5981935596774
 10
429.97759065022575
 20
871.8463313526983
 10
428.1293922460509
 20
868.388595339608
 10
425.64213562373095
 20
865.357864376269
 10
422.61140466039205
 20
862.8706077539491
 10
419.1536686473018
 20
861.0224093497743
 10
415.40180644032256
 20
859.8842943919354
 10
411.5
 20
859.5
 10
222.0
 20
859.5
 10
218.09819355967744
 20
859.8842943919354
 10
214.3463313526982
 20
861.0224093497743
 10
210.88859533960795
 20
862.8706077539491
 10
207.85786437626905
 20
865.357864376269
 10
205.37060775394912
 20
868.388595339608
 10
203.52240934977425
 20
871.8463313526983
 10
202.38429439193538
 20
875.5981935596774
 10
202.0
 20
879.5
 10
202.0
 20
1347.0
 10
202.38429439193538
 20
1350.9018064403226
 10
203.52240934977425
 20
1354.6536686473019
 10
205.37060775394912
 20
1358.111404660392
 10
207.85786437626905
 20
1361.142135623731
 10
210.88859533960795
 20
1363.6293922460509
 10
214.3463313526982
 20
1365.4775906502257
 10
218.09819355967744
 20
1366.6157056080647
 10
222.0
 20
1367.0
  0
LWPOLYLINE
  5
3D
330
17
100
AcDbEntity
  8
CUT
100
AcDbPolyline
 90
5
 70
0
 10
944.25
 20
62.0
 10
1014.25
 20
62.0
 10
1014.25
 20
102.0
 10
944.25
 20
102.0
 10
944.25
 20
62.0
  0
CIRCLE
  5
3E
330
17
100
AcDbEntity
  8
CUT
100
AcDbCircle
 10
714.5
 20
1527.0
 30
0.0
 40
11.0
  0
CIRCLE
  5
3F
330
17
100
AcDbEntity
  8
CUT
100
AcDbCircle
 10
714.5
 20
92.0
 30
0.0
 40
11.0
  0
DIMENSION
  5
40
330
17
100
AcDbEntity
  8
DIMENSIONS
100
AcDbDimension
280
0
  2
*D1
  3
DoorDimStyle
 10
655.5
 20
7.0
 30
0.0
 11
975.75
 21
12.625
 31
0.0
 70
160
 71
5
  1
<>
100
AcDbAlignedDimension
 13
655.5
 23
12.0
 33
0.0
 14
1296.0
 24
12.0
 34
0.0
 50
0.0
100
AcDbRotatedDimension
1001
ACAD
1000
DSTYLE
1002
{
1070
140
1040
10.0
1070
41
1040
6.0
1070
44
1040
3.0
1070
42
1040
3.0
1070
77
1070
1
1070
172
1070
1
1002
}
  0
DIMENSION
  5
53
330
17
100
AcDbEntity
  8
DIMENSIONS
100
AcDbDimension
280
0
  2
*D2
  3
DoorDimStyle
 10
650.5
 20
12.0
 30
0.0
 11
644.875
 21
809.5
 31
0.0
 70
160
 71
5
  1
<>
100
AcDbAlignedDimension
 13
655.5
 23
12.0
 33
0.0
 14
655.5
 24
1607.0
 34
0.0
 50
90.0
100
AcDbRotatedDimension
1001
ACAD
1000
DSTYLE
1002
{
1070
140
1040
10.0
1070
41
1040
6.0
1070
44
1040
3.0
1070
42
1040
3.0
1070
77
1070
1
1070
172
1070
1
1002
}
  0
DIMENSION
  5
62
330
17
100
AcDbEntity
  8
DIMENSIONS
100
AcDbDimension
280
0
  2
*D3
  3
DoorDimStyle
 10
674.5
 20
1624.0
 30
0.0
 11
979.25
 21
1629.625
 31
0.0
 70
160
 71
5
  1
<>
100
AcDbAlignedDimension
 13
674.5
 23
1619.0
 33
0.0
 14
1284.0
 24
1619.0
 34
0.0
 50
0.0
100
AcDbRotatedDimension
1001
ACAD
1000
DSTYLE
1002
{
1070
140
1040
10.0
1070
41
1040
6.0
1070
44
1040
3.0
1070
42
1040
3.0
1070
77
1070
1
1070
172
1070
1
1002
}
  0
DIMENSION
  5
71
330
17
100
AcDbEntity
  8
DIMENSIONS
100
AcDbDimension
280
0
  2
*D4
  3
DoorDimStyle
 10
1289.0
 20
0.0
 30
0.0
 11
1283.375
 21
809.5
 31
0.0
 70
160
 71
5
  1
<>
100
AcDbAlignedDimension
 13
1284.0
 23
0.0
 33
0.0
 14
1284.0
 24
1619.0
 34
0.0
 50
90.0
100
AcDbRotatedDimension
1001
ACAD
1000
DSTYLE
1002
{
1070
140
1040
10.0
1070
41
1040
6.0
1070
44
1040
3.0
1070
42
1040
3.0
1070
77
1070
1
1070
172
1070
1
1002
}
  0
DIMENSION
  5
80
330
17
100
AcDbEntity
  8
DIMENSIONS
100
AcDbDimension
280
0
  2
*D5
  3
DoorDimStyle
 10
0.0
 20
7.0
 30
0.0
 11
326.25
 21
12.625
 31
0.0
 70
160
 71
5
  1
<>
100
AcDbAlignedDimension
 13
0.0
 23
12.0
 33
0.0
 14
652.5
 24
12.0
 34
0.0
 50
0.0
100
AcDbRotatedDimension
1001
ACAD
1000
DSTYLE
1002
{
1070
140
1040
10.0
1070
41
1040
6.0
1070
44
1040
3.0
1070
42
1040
3.0
1070
77
1070
1
1070
172
1070
1
1002
}
  0
DIMENSION
  5
8F
330
17
100
AcDbEntity
  8
DIMENSIONS
100
AcDbDimension
280
0
  2
*D6
  3
DoorDimStyle
 10
-5.0
 20
12.0
 30
0.0
 11
-10.625
 21
809.5
 31
0.0
 70
160
 71
5
  1
<>
100
AcDbAlignedDimension
 13
0.0
 23
12.0
 33
0.0
 14
0.0
 24
1607.0
 34
0.0
 50
90.0
100
AcDbRotatedDimension
1001
ACAD
1000
DSTYLE
1002
{
1070
140
1040
10.0
1070
41
1040
6.0
1070
44
1040
3.0
1070
42
1040
3.0
1070
77
1070
1
1070
172
1070
1
1002
}
  0
DIMENSION
  5
9E
330
17
100
AcDbEntity
  8
DIMENSIONS
100
AcDbDimension
280
0
  2
*D7
  3
DoorDimStyle
 10
12.0
 20
1624.0
 30
0.0
 11
316.75
 21
1629.625
 31
0.0
 70
160
 71
5
  1
<>
100
AcDbAlignedDimension
 13
12.0
 23
1619.0
 33
0.0
 14
621.5
 24
1619.0
 34
0.0
 50
0.0
100
AcDbRotatedDimension
1001
ACAD
1000
DSTYLE
1002
{
1070
140
1040
10.0
1070
41
1040
6.0
1070
44
1040
3.0
1070
42
1040
3.0
1070
77
1070
1
1070
172
1070
1
1002
}
  0
DIMENSION
  5
AD
330
17
100
AcDbEntity
  8
DIMENSIONS
100
AcDbDimension
280
0
  2
*D8
  3
DoorDimStyle
 10
626.5
 20
0.0
 30
0.0
 11
620.875
 21
809.5
 31
0.0
 70
160
 71
5
  1
<>
100
AcDbAlignedDimension
 13
621.5
 23
0.0
 33
0.0
 14
621.5
 24
1619.0
 34
0.0
 50
90.0
100
AcDbRotatedDimension
1001
ACAD
1000
DSTYLE
1002
{
1070
140
1040
10.0
1070
41
1040
6.0
1070
44
1040
3.0
1070
42
1040
3.0
1070
77
1070
1
1070
172
1070
1
1002
}
  0
DIMENSION
  5
BC
330
17
100
AcDbEntity
  8
DIMENSIONS
100
AcDbDimension
280
0
  2
*D9
  3
DoorDimStyle
 10
566.5
 20
759.5
 30
0.0
 11
579.0
 21
765.125
 31
0.0
 70
160
 71
5
  1
<>
100
AcDbAlignedDimension
 13
566.5
 23
753.5
 33
0.0
 14
591.5
 24
753.5
 34
0.0
 50
0.0
100
AcDbRotatedDimension
1001
ACAD
1000
DSTYLE
1002
{
1070
140
1040
10.0
1070
41
1040
6.0
1070
44
1040
3.0
1070
42
1040
3.0
1070
77
1070
1
1070
172
1070
1
1002
}
  0
DIMENSION
  5
CB
330
17
100
AcDbEntity
  8
DIMENSIONS
100
AcDbDimension
280
0
  2
*D10
  3
DoorDimStyle
 10
597.5
 20
753.5
 30
0.0
 11
591.875
 21
809.5
 31
0.0
 70
160
 71
5
  1
<>
100
AcDbAlignedDimension
 13
591.5
 23
753.5
 33
0.0
 14
591.5
 24
865.5
 34
0.0
 50
90.0
100
AcDbRotatedDimension
1001
ACAD
1000
DSTYLE
1002
{
1070
140
1040
10.0
1070
41
1040
6.0
1070
44
1040
3.0
1070
42
1040
3.0
1070
77
1070
1
1070
172
1070
1
1002
}
  0
DIMENSION
  5
DA
330
17
100
AcDbEntity
  8
DIMENSIONS
100
AcDbDimension
280
0
  2
*D11
  3
DoorDimStyle
 10
704.5
 20
762.5
 30
0.0
 11
717.0
 21
768.125
 31
0.0
 70
160
 71
5
  1
<>
100
AcDbAlignedDimension
 13
704.5
 23
753.5
 33
0.0
 14
729.5
 24
753.5
 34
0.0
 50
0.0
100
AcDbRotatedDimension
1001
ACAD
1000
DSTYLE
1002
{
1070
140
1040
10.0
1070
41
1040
6.0
1070
44
1040
3.0
1070
42
1040
3.0
1070
77
1070
1
1070
172
1070
1
1002
}
  0
DIMENSION
  5
E9
330
17
100
AcDbEntity
  8
DIMENSIONS
100
AcDbDimension
280
0
  2
*D12
  3
DoorDimStyle
 10
738.5
 20
753.5
 30
0.0
 11
732.875
 21
809.5
 31
0.0
 70
160
 71
5
  1
<>
100
AcDbAlignedDimension
 13
729.5
 23
753.5
 33
0.0
 14
729.5
 24
865.5
 34
0.0
 50
90.0
100
AcDbRotatedDimension
1001
ACAD
1000
DSTYLE
1002
{
1070
140
1040
10.0
1070
41
1040
6.0
1070
44
1040
3.0
1070
42
1040
3.0
1070
77
1070
1
1070
172
1070
1
1002
}
  0
DIMENSION
  5
F8
330
17
100
AcDbEntity
  8
DIMENSIONS
100
AcDbDimension
280
0
  2
*D13
  3
DoorDimStyle
 10
864.5
 20
264.0
 30
0.0
 11
979.25
 21
269.625
 31
0.0
 70
160
 71
5
  1
<>
100
AcDbAlignedDimension
 13
864.5
 23
252.0
 33
0.0
 14
1094.0
 24
252.0
 34
0.0
 50
0.0
100
AcDbRotatedDimension
1001
ACAD
1000
DSTYLE
1002
{
1070
140
1040
10.0
1070
41
1040
6.0
1070
44
1040
3.0
1070
42
1040
3.0
1070
77
1070
1
1070
172
1070
1
1002
}
  0
DIMENSION
  5
107
330
17
100
AcDbEntity
  8
DIMENSIONS
100
AcDbDimension
280
0
  2
*D14
  3
DoorDimStyle
 10
1106.0
 20
252.0
 30
0.0
 11
1100.375
 21
505.75
 31
0.0
 70
160
 71
5
  1
<>
100
AcDbAlignedDimension
 13
1094.0
 23
252.0
 33
0.0
 14
1094.0
 24
759.5
 34
0.0
 50
90.0
100
AcDbRotatedDimension
1001
ACAD
1000
DSTYLE
1002
{
1070
140
1040
10.0
1070
41
1040
6.0
1070
44
1040
3.0
1070
42
1040
3.0
1070
77
1070
1
1070
172
1070
1
1002
}
  0
DIMENSION
  5
116
330
17
100
AcDbEntity
  8
DIMENSIONS
100
AcDbDimension
280
0
  2
*D15
  3
DoorDimStyle
 10
864.5
 20
874.5
 30
0.0
 11
979.25
 21
880.125
 31
0.0
 70
160
 71
5
  1
<>
100
AcDbAlignedDimension
 13
864.5
 23
859.5
 33
0.0
 14
1094.0
 24
859.5
 34
0.0
 50
0.0
100
AcDbRotatedDimension
1001
ACAD
1000
DSTYLE
1002
{
1070
140
1040
10.0
1070
41
1040
6.0
1070
44
1040
3.0
1070
42
1040
3.0
1070
77
1070
1
1070
172
1070
1
1002
}
  0
DIMENSION
  5
125
330
17
100
AcDbEntity
  8
DIMENSIONS
100
AcDbDimension
280
0
  2
*D16
  3
DoorDimStyle
 10
1109.0
 20
859.5
 30
0.0
 11
1103.375
 21
1113.25
 31
0.0
 70
160
 71
5
  1
<>
100
AcDbAlignedDimension
 13
1094.0
 23
859.5
 33
0.0
 14
1094.0
 24
1367.0
 34
0.0
 50
90.0
100
AcDbRotatedDimension
1001
ACAD
1000
DSTYLE
1002
{
1070
140
1040
10.0
1070
41
1040
6.0
1070
44
1040
3.0
1070
42
1040
3.0
1070
77
1070
1
1070
172
1070
1
1002
}
  0
DIMENSION
  5
134
330
17
100
AcDbEntity
  8
DIMENSIONS
100
AcDbDimension
280
0
  2
*D17
  3
DoorDimStyle
 10
202.0
 20
270.0
 30
0.0
 11
316.75
 21
275.625
 31
0.0
 70
160
 71
5
  1
<>
100
AcDbAlignedDimension
 13
202.0
 23
252.0
 33
0.0
 14
431.5
 24
252.0
 34
0.0
 50
0.0
100
AcDbRotatedDimension
1001
ACAD
1000
DSTYLE
1002
{
1070
140
1040
10.0
1070
41
1040
6.0
1070
44
1040
3.0
1070
42
1040
3.0
1070
77
1070
1
1070
172
1070
1
1002
}
  0
DIMENSION
  5
143
330
17
100
AcDbEntity
  8
DIMENSIONS
100
AcDbDimension
280
0
  2
*D18
  3
DoorDimStyle
 10
449.5
 20
252.0
 30
0.0
 11
443.875
 21
505.75
 31
0.0
 70
160
 71
5
  1
<>
100
AcDbAlignedDimension
 13
431.5
 23
252.0
 33
0.0
 14
431.5
 24
759.5
 34
0.0
 50
90.0
100
AcDbRotatedDimension
1001
ACAD
1000
DSTYLE
1002
{
1070
140
1040
10.0
1070
41
1040
6.0
1070
44
1040
3.0
1070
42
1040
3.0
1070
77
1070
1
1070
172
1070
1
1002
}
  0
DIMENSION
  5
152
330
17
100
AcDbEntity
  8
DIMENSIONS
100
AcDbDimension
280
0
  2
*D19
  3
DoorDimStyle
 10
202.0
 20
880.5
 30
0.0
 11
316.75
 21
886.125
 31
0.0
 70
160
 71
5
  1
<>
100
AcDbAlignedDimension
 13
202.0
 23
859.5
 33
0.0
 14
431.5
 24
859.5
 34
0.0
 50
0.0
100
AcDbRotatedDimension
1001
ACAD
1000
DSTYLE
1002
{
1070
140
1040
10.0
1070
41
1040
6.0
1070
44
1040
3.0
1070
42
1040
3.0
1070
77
1070
1
1070
172
1070
1
1002
}
  0
DIMENSION
  5
161
330
17
100
AcDbEntity
  8
DIMENSIONS
100
AcDbDimension
280
0
  2
*D20
  3
DoorDimStyle
 10
452.5
 20
859.5
 30
0.0
 11
446.875
 21
1113.25
 31
0.0
 70
160
 71
5
  1
<>
100
AcDbAlignedDimension
 13
431.5
 23
859.5
 33
0.0
 14
431.5
 24
1367.0
 34
0.0
 50
90.0
100
AcDbRotatedDimension
1001
ACAD
1000
DSTYLE
1002
{
1070
140
1040
10.0
1070
41
1040
6.0
1070
44
1040
3.0
1070
42
1040
3.0
1070
77
1070
1
1070
172
1070
1
1002
}
  0
DIMENSION
  5
170
330
17
100
AcDbEntity
  8
DIMENSIONS
100
AcDbDimension
280
0
  2
*D21
  3
DoorDimStyle
 10
944.25
 20
86.0
 30
0.0
 11
979.25
 21
91.625
 31
0.0
 70
160
 71
5
  1
<>
100
AcDbAlignedDimension
 13
944.25
 23
62.0
 33
0.0
 14
1014.25
 24
62.0
 34
0.0
 50
0.0
100
AcDbRotatedDimension
1001
ACAD
1000
DSTYLE
1002
{
1070
140
1040
10.0
1070
41
1040
6.0
1070
44
1040
3.0
1070
42
1040
3.0
1070
77
1070
1
1070
172
1070
1
1002
}
  0
DIMENSION
  5
17F
330
17
100
AcDbEntity
  8
DIMENSIONS
100
AcDbDimension
280
0
  2
*D22
  3
DoorDimStyle
 10
1038.25
 20
62.0
 30
0.0
 11
1032.625
 21
82.0
 31
0.0
 70
160
 71
5
  1
<>
100
AcDbAlignedDimension
 13
1014.25
 23
62.0
 33
0.0
 14
1014.25
 24
102.0
 34
0.0
 50
90.0
100
AcDbRotatedDimension
1001
ACAD
1000
DSTYLE
1002
{
1070
140
1040
10.0
1070
41
1040
6.0
1070
44
1040
3.0
1070
42
1040
3.0
1070
77
1070
1
1070
172
1070
1
1002
}
  0
DIMENSION
  5
18E
330
17
100
AcDbEntity
  8
DIMENSIONS
100
AcDbDimension
280
0
  2
*D23
  3
DoorDimStyle
 10
674.5
 20
493.75
 30
0.0
 11
769.5
 21
499.375
 31
0.0
 70
160
 71
5
  1
<>
100
AcDbAlignedDimension
 13
674.5
 23
505.75
 33
0.0
 14
864.5
 24
505.75
 34
0.0
 50
0.0
100
AcDbRotatedDimension
1001
ACAD
1000
DSTYLE
1002
{
1070
140
1040
10.0
1070
41
1040
6.0
1070
44
1040
3.0
1070
42
1040
3.0
1070
77
1070
1
1070
172
1070
1
1002
}
  0
DIMENSION
  5
19D
330
17
100
AcDbEntity
  8
DIMENSIONS
100
AcDbDimension
280
0
  2
*D24
  3
DoorDimStyle
 10
1094.0
 20
493.75
 30
0.0
 11
1189.0
 21
499.375
 31
0.0
 70
160
 71
5
  1
<>
100
AcDbAlignedDimension
 13
1094.0
 23
505.75
 33
0.0
 14
1284.0
 24
505.75
 34
0.0
 50
0.0
100
AcDbRotatedDimension
1001
ACAD
1000
DSTYLE
1002
{
1070
140
1040
10.0
1070
41
1040
6.0
1070
44
1040
3.0
1070
42
1040
3.0
1070
77
1070
1
1070
172
1070
1
1002
}
  0
DIMENSION
  5
1AC
330
17
100
AcDbEntity
  8
DIMENSIONS
100
AcDbDimension
280
0
  2
*D25
  3
DoorDimStyle
 10
991.25
 20
759.5
 30
0.0
 11
985.625
 21
1183.25
 31
0.0
 70
160
 71
5
  1
<>
100
AcDbAlignedDimension
 13
979.25
 23
759.5
 33
0.0
 14
979.25
 24
1607.0
 34
0.0
 50
90.0
100
AcDbRotatedDimension
1001
ACAD
1000
DSTYLE
1002
{
1070
140
1040
10.0
1070
41
1040
6.0
1070
44
1040
3.0
1070
42
1040
3.0
1070
77
1070
1
1070
172
1070
1
1002
}
  0
DIMENSION
  5
1BB
330
17
100
AcDbEntity
  8
DIMENSIONS
100
AcDbDimension
280
0
  2
*D26
  3
DoorDimStyle
 10
991.25
 20
12.0
 30
0.0
 11
985.625
 21
132.0
 31
0.0
 70
160
 71
5
  1
<>
100
AcDbAlignedDimension
 13
979.25
 23
12.0
 33
0.0
 14
979.25
 24
252.0
 34
0.0
 50
90.0
100
AcDbRotatedDimension
1001
ACAD
1000
DSTYLE
1002
{
1070
140
1040
10.0
1070
41
1040
6.0
1070
44
1040
3.0
1070
42
1040
3.0
1070
77
1070
1
1070
172
1070
1
1002
}
  0
DIMENSION
  5
1CA
330
17
100
AcDbEntity
  8
DIMENSIONS
100
AcDbDimension
280
0
  2
*D27
  3
DoorDimStyle
 10
674.5
 20
1098.25
 30
0.0
 11
769.5
 21
1103.875
 31
0.0
 70
160
 71
5
  1
<>
100
AcDbAlignedDimension
 13
674.5
 23
1113.25
 33
0.0
 14
864.5
 24
1113.25
 34
0.0
 50
0.0
100
AcDbRotatedDimension
1001
ACAD
1000
DSTYLE
1002
{
1070
140
1040
10.0
1070
41
1040
6.0
1070
44
1040
3.0
1070
42
1040
3.0
1070
77
1070
1
1070
172
1070
1
1002
}
  0
DIMENSION
  5
1D9
330
17
100
AcDbEntity
  8
DIMENSIONS
100
AcDbDimension
280
0
  2
*D28
  3
DoorDimStyle
 10
1094.0
 20
1098.25
 30
0.0
 11
1189.0
 21
1103.875
 31
0.0
 70
160
 71
5
  1
<>
100
AcDbAlignedDimension
 13
1094.0
 23
1113.25
 33
0.0
 14
1284.0
 24
1113.25
 34
0.0
 50
0.0
100
AcDbRotatedDimension
1001
ACAD
1000
DSTYLE
1002
{
1070
140
1040
10.0
1070
41
1040
6.0
1070
44
1040
3.0
1070
42
1040
3.0
1070
77
1070
1
1070
172
1070
1
1002
}
  0
DIMENSION
  5
1E8
330
17
100
AcDbEntity
  8
DIMENSIONS
100
AcDbDimension
280
0
  2
*D29
  3
DoorDimStyle
 10
994.25
 20
1367.0
 30
0.0
 11
988.625
 21
1487.0
 31
0.0
 70
160
 71
5
  1
<>
100
AcDbAlignedDimension
 13
979.25
 23
1367.0
 33
0.0
 14
979.25
 24
1607.0
 34
0.0
 50
90.0
100
AcDbRotatedDimension
1001
ACAD
1000
DSTYLE
1002
{
1070
140
1040
10.0
1070
41
1040
6.0
1070
44
1040
3.0
1070
42
1040
3.0
1070
77
1070
1
1070
172
1070
1
1002
}
  0
DIMENSION
  5
1F7
330
17
100
AcDbEntity
  8
DIMENSIONS
100
AcDbDimension
280
0
  2
*D30
  3
DoorDimStyle
 10
994.25
 20
12.0
 30
0.0
 11
988.625
 21
435.75
 31
0.0
 70
160
 71
5
  1
<>
100
AcDbAlignedDimension
 13
979.25
 23
12.0
 33
0.0
 14
979.25
 24
859.5
 34
0.0
 50
90.0
100
AcDbRotatedDimension
1001
ACAD
1000
DSTYLE
1002
{
1070
140
1040
10.0
1070
41
1040
6.0
1070
44
1040
3.0
1070
42
1040
3.0
1070
77
1070
1
1070
172
1070
1
1002
}
  0
DIMENSION
  5
206
330
17
100
AcDbEntity
  8
DIMENSIONS
100
AcDbDimension
280
0
  2
*D31
  3
DoorDimStyle
 10
12.0
 20
487.75
 30
0.0
 11
107.0
 21
493.375
 31
0.0
 70
160
 71
5
  1
<>
100
AcDbAlignedDimension
 13
12.0
 23
505.75
 33
0.0
 14
202.0
 24
505.75
 34
0.0
 50
0.0
100
AcDbRotatedDimension
1001
ACAD
1000
DSTYLE
1002
{
1070
140
1040
10.0
1070
41
1040
6.0
1070
44
1040
3.0
1070
42
1040
3.0
1070
77
1070
1
1070
172
1070
1
1002
}
  0
DIMENSION
  5
215
330
17
100
AcDbEntity
  8
DIMENSIONS
100
AcDbDimension
280
0
  2
*D32
  3
DoorDimStyle
 10
431.5
 20
487.75
 30
0.0
 11
526.5
 21
493.375
 31
0.0
 70
160
 71
5
  1
<>
100
AcDbAlignedDimension
 13
431.5
 23
505.75
 33
0.0
 14
621.5
 24
505.75
 34
0.0
 50
0.0
100
AcDbRotatedDimension
1001
ACAD
1000
DSTYLE
1002
{
1070
140
1040
10.0
1070
41
1040
6.0
1070
44
1040
3.0
1070
42
1040
3.0
1070
77
1070
1
1070
172
1070
1
1002
}
  0
DIMENSION
  5
224
330
17
100
AcDbEntity
  8
DIMENSIONS
100
AcDbDimension
280
0
  2
*D33
  3
DoorDimStyle
 10
334.75
 20
759.5
 30
0.0
 11
329.125
 21
1183.25
 31
0.0
 70
160
 71
5
  1
<>
100
AcDbAlignedDimension
 13
316.75
 23
759.5
 33
0.0
 14
316.75
 24
1607.0
 34
0.0
 50
90.0
100
AcDbRotatedDimension
1001
ACAD
1000
DSTYLE
1002
{
1070
140
1040
10.0
1070
41
1040
6.0
1070
44
1040
3.0
1070
42
1040
3.0
1070
77
1070
1
1070
172
1070
1
1002
}
  0
DIMENSION
  5
233
330
17
100
AcDbEntity
  8
DIMENSIONS
100
AcDbDimension
280
0
  2
*D34
  3
DoorDimStyle
 10
334.75
 20
12.0
 30
0.0
 11
329.125
 21
132.0
 31
0.0
 70
160
 71
5
  1
<>
100
AcDbAlignedDimension
 13
316.75
 23
12.0
 33
0.0
 14
316.75
 24
252.0
 34
0.0
 50
90.0
100
AcDbRotatedDimension
1001
ACAD
1000
DSTYLE
1002
{
1070
140
1040
10.0
1070
41
1040
6.0
1070
44
1040
3.0
1070
42
1040
3.0
1070
77
1070
1
1070
172
1070
1
1002
}
  0
DIMENSION
  5
242
330
17
100
AcDbEntity
  8
DIMENSIONS
100
AcDbDimension
280
0
  2
*D35
  3
DoorDimStyle
 10
12.0
 20
1092.25
 30
0.0
 11
107.0
 21
1097.875
 31
0.0
 70
160
 71
5
  1
<>
100
AcDbAlignedDimension
 13
12.0
 23
1113.25
 33
0.0
 14
202.0
 24
1113.25
 34
0.0
 50
0.0
100
AcDbRotatedDimension
1001
ACAD
1000
DSTYLE
1002
{
1070
140
1040
10.0
1070
41
1040
6.0
1070
44
1040
3.0
1070
42
1040
3.0
1070
77
1070
1
1070
172
1070
1
1002
}
  0
DIMENSION
  5
251
330
17
100
AcDbEntity
  8
DIMENSIONS
100
AcDbDimension
280
0
  2
*D36
  3
DoorDimStyle
 10
431.5
 20
1092.25
 30
0.0
 11
526.5
 21
1097.875
 31
0.0
 70
160
 71
5
  1
<>
100
AcDbAlignedDimension
 13
431.5
 23
1113.25
 33
0.0
 14
621.5
 24
1113.25
 34
0.0
 50
0.0
100
AcDbRotatedDimension
1001
ACAD
1000
DSTYLE
1002
{
1070
140
1040
10.0
1070
41
1040
6.0
1070
44
1040
3.0
1070
42
1040
3.0
1070
77
1070
1
1070
172
1070
1
1002
}
  0
DIMENSION
  5
260
330
17
100
AcDbEntity
  8
DIMENSIONS
100
AcDbDimension
280
0
  2
*D37
  3
DoorDimStyle
 10
337.75
 20
1367.0
 30
0.0
 11
332.125
 21
1487.0
 31
0.0
 70
160
 71
5
  1
<>
100
AcDbAlignedDimension
 13
316.75
 23
1367.0
 33
0.0
 14
316.75
 24
1607.0
 34
0.0
 50
90.0
100
AcDbRotatedDimension
1001
ACAD
1000
DSTYLE
1002
{
1070
140
1040
10.0
1070
41
1040
6.0
1070
44
1040
3.0
1070
42
1040
3.0
1070
77
1070
1
1070
172
1070
1
1002
}
  0
DIMENSION
  5
26F
330
17
100
AcDbEntity
  8
DIMENSIONS
100
AcDbDimension
280
0
  2
*D38
  3
DoorDimStyle
 10
337.75
 20
12.0
 30
0.0
 11
332.125
 21
435.75
 31
0.0
 70
160
 71
5
  1
<>
100
AcDbAlignedDimension
 13
316.75
 23
12.0
 33
0.0
 14
316.75
 24
859.5
 34
0.0
 50
90.0
100
AcDbRotatedDimension
1001
ACAD
1000
DSTYLE
1002
{
1070
140
1040
10.0
1070
41
1040
6.0
1070
44
1040
3.0
1070
42
1040
3.0
1070
77
1070
1
1070
172
1070
1
1002
}
  0
DIMENSION
  5
27E
330
17
100
AcDbEntity
  8
DIMENSIONS
100
AcDbDimension
280
0
  2
*D39
  3
DoorDimStyle
 10
674.5
 20
815.5
 30
0.0
 11
689.5
 21
821.125
 31
0.0
 70
160
 71
5
  1
<>
100
AcDbAlignedDimension
 13
674.5
 23
809.5
 33
0.0
 14
704.5
 24
809.5
 34
0.0
 50
0.0
100
AcDbRotatedDimension
1001
ACAD
1000
DSTYLE
1002
{
1070
140
1040
10.0
1070
41
1040
6.0
1070
44
1040
3.0
1070
42
1040
3.0
1070
77
1070
1
1070
172
1070
1
1002
}
  0
DIMENSION
  5
28D
330
17
100
AcDbEntity
  8
DIMENSIONS
100
AcDbDimension
280
0
  2
*D40
  3
DoorDimStyle
 10
723.0
 20
865.5
 30
0.0
 11
717.375
 21
1236.25
 31
0.0
 70
160
 71
5
  1
<>
100
AcDbAlignedDimension
 13
717.0
 23
865.5
 33
0.0
 14
717.0
 24
1607.0
 34
0.0
 50
90.0
100
AcDbRotatedDimension
1001
ACAD
1000
DSTYLE
1002
{
1070
140
1040
10.0
1070
41
1040
6.0
1070
44
1040
3.0
1070
42
1040
3.0
1070
77
1070
1
1070
172
1070
1
1002
}
  0
DIMENSION
  5
29C
330
17
100
AcDbEntity
  8
DIMENSIONS
100
AcDbDimension
280
0
  2
*D41
  3
DoorDimStyle
 10
723.0
 20
12.0
 30
0.0
 11
717.375
 21
382.75
 31
0.0
 70
160
 71
5
  1
<>
100
AcDbAlignedDimension
 13
717.0
 23
12.0
 33
0.0
 14
717.0
 24
753.5
 34
0.0
 50
90.0
100
AcDbRotatedDimension
1001
ACAD
1000
DSTYLE
1002
{
1070
140
1040
10.0
1070
41
1040
6.0
1070
44
1040
3.0
1070
42
1040
3.0
1070
77
1070
1
1070
172
1070
1
1002
}
  0
DIMENSION
  5
2AB
330
17
100
AcDbEntity
  8
DIMENSIONS
100
AcDbDimension
280
0
  2
*D42
  3
DoorDimStyle
 10
674.5
 20
88.0
 30
0.0
 11
809.375
 21
93.625
 31
0.0
 70
160
 71
5
  1
<>
100
AcDbAlignedDimension
 13
674.5
 23
82.0
 33
0.0
 14
944.25
 24
82.0
 34
0.0
 50
0.0
100
AcDbRotatedDimension
1001
ACAD
1000
DSTYLE
1002
{
1070
140
1040
10.0
1070
41
1040
6.0
1070
44
1040
3.0
1070
42
1040
3.0
1070
77
1070
1
1070
172
1070
1
1002
}
  0
DIMENSION
  5
2BA
330
17
100
AcDbEntity
  8
DIMENSIONS
100
AcDbDimension
280
0
  2
*D43
  3
DoorDimStyle
 10
1014.25
 20
88.0
 30
0.0
 11
1149.125
 21
93.625
 31
0.0
 70
160
 71
5
  1
<>
100
AcDbAlignedDimension
 13
1014.25
 23
82.0
 33
0.0
 14
1284.0
 24
82.0
 34
0.0
 50
0.0
100
AcDbRotatedDimension
1001
ACAD
1000
DSTYLE
1002
{
1070
140
1040
10.0
1070
41
1040
6.0
1070
44
1040
3.0
1070
42
1040
3.0
1070
77
1070
1
1070
172
1070
1
1002
}
  0
DIMENSION
  5
2C9
330
17
100
AcDbEntity
  8
DIMENSIONS
100
AcDbDimension
280
0
  2
*D44
  3
DoorDimStyle
 10
985.25
 20
12.0
 30
0.0
 11
979.625
 21
37.0
 31
0.0
 70
160
 71
5
  1
<>
100
AcDbAlignedDimension
 13
979.25
 23
12.0
 33
0.0
 14
979.25
 24
62.0
 34
0.0
 50
90.0
100
AcDbRotatedDimension
1001
ACAD
1000
DSTYLE
1002
{
1070
140
1040
10.0
1070
41
1040
6.0
1070
44
1040
3.0
1070
42
1040
3.0
1070
77
1070
1
1070
172
1070
1
1002
}
  0
DIMENSION
  5
2D8
330
17
100
AcDbEntity
  8
DIMENSIONS
100
AcDbDimension
280
0
  2
*D45
  3
Standard
 10
722.278174593052
 20
1534.778174593052
 30
0.0
 11
705.0424468016299
 21
1517.54244680163
 31
0.0
 70
35
 71
5
  1
<>
100
AcDbDiametricDimension
 15
706.721825406948
 25
1519.221825406948
 35
0.0
1001
ACAD
1000
DSTYLE
1002
{
1070
73
1070
1
1002
}
  0
DIMENSION
  5
2E5
330
17
100
AcDbEntity
  8
DIMENSIONS
100
AcDbDimension
280
0
  2
*D46
  3
DoorDimStyle
 10
674.5
 20
1533.0
 30
0.0
 11
694.5
 21
1538.625
 31
0.0
 70
160
 71
5
  1
<>
100
AcDbAlignedDimension
 13
674.5
 23
1527.0
 33
0.0
 14
714.5
 24
1527.0
 34
0.0
 50
0.0
100
AcDbRotatedDimension
1001
ACAD
1000
DSTYLE
1002
{
1070
140
1040
10.0
1070
41
1040
6.0
1070
44
1040
3.0
1070
42
1040
3.0
1070
77
1070
1
1070
172
1070
1
1002
}
  0
DIMENSION
  5
2F4
330
17
100
AcDbEntity
  8
DIMENSIONS
100
AcDbDimension
280
0
  2
*D47
  3
DoorDimStyle
 10
708.5
 20
1527.0
 30
0.0
 11
702.875
 21
1567.0
 31
0.0
 70
160
 71
5
  1
<>
100
AcDbAlignedDimension
 13
714.5
 23
1527.0
 33
0.0
 14
714.5
 24
1607.0
 34
0.0
 50
90.0
100
AcDbRotatedDimension
1001
ACAD
1000
DSTYLE
1002
{
1070
140
1040
10.0
1070
41
1040
6.0
1070
44
1040
3.0
1070
42
1040
3.0
1070
77
1070
1
1070
172
1070
1
1002
}
  0
DIMENSION
  5
303
330
17
100
AcDbEntity
  8
DIMENSIONS
100
AcDbDimension
280
0
  2
*D48
  3
Standard
 10
722.278174593052
 20
99.77817459305203
 30
0.0
 11
705.04244680163
 21
82.54244680162992
 31
0.0
 70
35
 71
5
  1
<>
100
AcDbDiametricDimension
 15
706.721825406948
 25
84.22182540694797
 35
0.0
1001
ACAD
1000
DSTYLE
1002
{
1070
73
1070
1
1002
}
  0
DIMENSION
  5
310
330
17
100
AcDbEntity
  8
DIMENSIONS
100
AcDbDimension
280
0
  2
*D49
  3
DoorDimStyle
 10
674.5
 20
98.0
 30
0.0
 11
694.5
 21
103.625
 31
0.0
 70
160
 71
5
  1
<>
100
AcDbAlignedDimension
 13
674.5
 23
92.0
 33
0.0
 14
714.5
 24
92.0
 34
0.0
 50
0.0
100
AcDbRotatedDimension
1001
ACAD
1000
DSTYLE
1002
{
1070
140
1040
10.0
1070
41
1040
6.0
1070
44
1040
3.0
1070
42
1040
3.0
1070
77
1070
1
1070
172
1070
1
1002
}
  0
DIMENSION
  5
31F
330
17
100
AcDbEntity
  8
DIMENSIONS
100
AcDbDimension
280
0
  2
*D50
  3
DoorDimStyle
 10
708.5
 20
12.0
 30
0.0
 11
702.875
 21
52.0
 31
0.0
 70
160
 71
5
  1
<>
100
AcDbAlignedDimension
 13
714.5
 23
12.0
 33
0.0
 14
714.5
 24
92.0
 34
0.0
 50
90.0
100
AcDbRotatedDimension
1001
ACAD
1000
DSTYLE
1002
{
1070
140
1040
10.0
1070
41
1040
6.0
1070
44
1040
3.0
1070
42
1040
3.0
1070
77
1070
1
1070
172
1070
1
1002
}
  0
DIMENSION
  5
32E
330
17
100
AcDbEntity
  8
DIMENSIONS
100
AcDbDimension
280
0
  2
*D51
  3
DoorDimStyle
 10
655.5
 20
56.0
 30
0.0
 11
665.0
 21
64.625
 31
0.0
 70
160
 71
5
  1
<>
100
AcDbAlignedDimension
 13
655.5
 23
50.0
 33
0.0
 14
674.5
 24
50.0
 34
0.0
 50
0.0
100
AcDbRotatedDimension
1001
ACAD
1000
DSTYLE
1002
{
1070
140
1040
10.0
1070
41
1040
6.0
1070
44
1040
3.0
1070
42
1040
3.0
1070
77
1070
1
1070
172
1070
1
1002
}
  0
DIMENSION
  5
33D
330
17
100
AcDbEntity
  8
DIMENSIONS
100
AcDbDimension
280
0
  2
*D52
  3
DoorDimStyle
 10
1284.0
 20
1543.0
 30
0.0
 11
1290.0
 21
1551.625
 31
0.0
 70
160
 71
5
  1
<>
100
AcDbAlignedDimension
 13
1284.0
 23
1569.0
 33
0.0
 14
1296.0
 24
1569.0
 34
0.0
 50
0.0
100
AcDbRotatedDimension
1001
ACAD
1000
DSTYLE
1002
{
1070
140
1040
10.0
1070
41
1040
6.0
1070
44
1040
3.0
1070
42
1040
3.0
1070
77
1070
1
1070
172
1070
1
1002
}
  0
DIMENSION
  5
34E
330
17
100
AcDbEntity
  8
DIMENSIONS
100
AcDbDimension
280
0
  2
*D53
  3
DoorDimStyle
 10
1272.0
 20
1607.0
 30
0.0
 11
1263.375
 21
1613.0
 31
0.0
 70
160
 71
5
  1
<>
100
AcDbAlignedDimension
 13
1246.0
 23
1607.0
 33
0.0
 14
1246.0
 24
1619.0
 34
0.0
 50
90.0
100
AcDbRotatedDimension
1001
ACAD
1000
DSTYLE
1002
{
1070
140
1040
10.0
1070
41
1040
6.0
1070
44
1040
3.0
1070
42
1040
3.0
1070
77
1070
1
1070
172
1070
1
1002
}
  0
DIMENSION
  5
35F
330
17
100
AcDbEntity
  8
DIMENSIONS
100
AcDbDimension
280
0
  2
*D54
  3
DoorDimStyle
 10
1220.0
 20
0.0
 30
0.0
 11
1211.375
 21
6.0
 31
0.0
 70
160
 71
5
  1
<>
100
AcDbAlignedDimension
 13
1246.0
 23
0.0
 33
0.0
 14
1246.0
 24
12.0
 34
0.0
 50
90.0
100
AcDbRotatedDimension
1001
ACAD
1000
DSTYLE
1002
{
1070
140
1040
10.0
1070
41
1040
6.0
1070
44
1040
3.0
1070
42
1040
3.0
1070
77
1070
1
1070
172
1070
1
1002
}
  0
DIMENSION
  5
370
330
17
100
AcDbEntity
  8
DIMENSIONS
100
AcDbDimension
280
0
  2
*D55
  3
DoorDimStyle
 10
0.0
 20
56.0
 30
0.0
 11
6.0
 21
64.625
 31
0.0
 70
160
 71
5
  1
<>
100
AcDbAlignedDimension
 13
0.0
 23
50.0
 33
0.0
 14
12.0
 24
50.0
 34
0.0
 50
0.0
100
AcDbRotatedDimension
1001
ACAD
1000
DSTYLE
1002
{
1070
140
1040
10.0
1070
41
1040
6.0
1070
44
1040
3.0
1070
42
1040
3.0
1070
77
1070
1
1070
172
1070
1
1002
}
  0
DIMENSION
  5
381
330
17
100
AcDbEntity
  8
DIMENSIONS
100
AcDbDimension
280
0
  2
*D56
  3
DoorDimStyle
 10
621.5
 20
1533.0
 30
0.0
 11
637.0
 21
1538.625
 31
0.0
 70
160
 71
5
  1
<>
100
AcDbAlignedDimension
 13
621.5
 23
1569.0
 33
0.0
 14
652.5
 24
1569.0
 34
0.0
 50
0.0
100
AcDbRotatedDimension
1001
ACAD
1000
DSTYLE
1002
{
1070
140
1040
10.0
1070
41
1040
6.0
1070
44
1040
3.0
1070
42
1040
3.0
1070
77
1070
1
1070
172
1070
1
1002
}
  0
DIMENSION
  5
390
330
17
100
AcDbEntity
  8
DIMENSIONS
100
AcDbDimension
280
0
  2
*D57
  3
DoorDimStyle
 10
638.5
 20
1607.0
 30
0.0
 11
629.875
 21
1613.0
 31
0.0
 70
160
 71
5
  1
<>
100
AcDbAlignedDimension
 13
602.5
 23
1607.0
 33
0.0
 14
602.5
 24
1619.0
 34
0.0
 50
90.0
100
AcDbRotatedDimension
1001
ACAD
1000
DSTYLE
1002
{
1070
140
1040
10.0
1070
41
1040
6.0
1070
44
1040
3.0
1070
42
1040
3.0
1070
77
1070
1
1070
172
1070
1
1002
}
  0
DIMENSION
  5
3A1
330
17
100
AcDbEntity
  8
DIMENSIONS
100
AcDbDimension
280
0
  2
*D58
  3
DoorDimStyle
 10
566.5
 20
0.0
 30
0.0
 11
557.875
 21
6.0
 31
0.0
 70
160
 71
5
  1
<>
100
AcDbAlignedDimension
 13
602.5
 23
0.0
 33
0.0
 14
602.5
 24
12.0
 34
0.0
 50
90.0
100
AcDbRotatedDimension
1001
ACAD
1000
DSTYLE
1002
{
1070
140
1040
10.0
1070
41
1040
6.0
1070
44
1040
3.0
1070
42
1040
3.0
1070
77
1070
1
1070
172
1070
1
1002
}
  0
TEXT
  5
3B2
330
17
100
AcDbEntity
  8
DIMENSIONS
100
AcDbText
 10
1246.0
 20
797.5
 30
0.0
 40
8.0
  1
DoubleFourGlass
 50
90.0
 72
2
 11
1246.0
 21
797.5
 31
0.0
100
AcDbText
 73
2
  0
ENDSEC
  0
SECTION
  2
OBJECTS
  0
DICTIONARY
  5
A
330
0
100
AcDbDictionary
281
1
  3
ACAD_COLOR
350
B
  3
ACAD_GROUP
350
C
  3
ACAD_LAYOUT
350
D
  3
ACAD_MATERIAL
350
E
  3
ACAD_MLEADERSTYLE
350
F
  3
ACAD_MLINESTYLE
350
10
  3
ACAD_PLOTSETTINGS
350
11
  3
ACAD_PLOTSTYLENAME
350
12
  3
ACAD_SCALELIST
350
14
  3
ACAD_TABLESTYLE
350
15
  3
ACAD_VISUALSTYLE
350
16
  3
EZDXF_META
350
2D
  0
DICTIONARY
  5
B
330
A
100
AcDbDictionary
281
1
  0
DICTIONARY
  5
C
330
A
100
AcDbDictionary
281
1
  0
DICTIONARY
  5
D
330
A
100
AcDbDictionary
281
1
  3
Model
350
1A
  3
Layout1
350
1E
  0
DICTIONARY
  5
E
330
A
100
AcDbDictionary
281
1
  3
ByBlock
350
1F
  3
ByLayer
350
20
  3
Global
350
21
  0
DICTIONARY
  5
F
330
A
100
AcDbDictionary
281
1
  3
Standard
350
2C
  0
DICTIONARY
  5
10
330
A
100
AcDbDictionary
281
1
  3
Standard
350
22
  0
DICTIONARY
  5
11
330
A
100
AcDbDictionary
281
1
  0
ACDBDICTIONARYWDFLT
  5
12
330
A
100
AcDbDictionary
281
1
  3
Normal
350
13
100
AcDbDictionaryWithDefault
340
13
  0
ACDBPLACEHOLDER
  5
13
330
12
  0
DICTIONARY
  5
14
330
A
100
AcDbDictionary
281
1
  0
DICTIONARY
  5
15
330
A
100
AcDbDictionary
281
1
  0
DICTIONARY
  5
16
330
A
100
AcDbDictionary
281
1
  0
LAYOUT
  5
1A
330
D
100
AcDbPlotSettings
  1

  4
A3
  6

 40
7.5
 41
20.0
 42
7.5
 43
20.0
 44
420.0
 45
297.0
 46
0.0
 47
0.0
 48
0.0
 49
0.0
140
0.0
141
0.0
142
1.0
143
1.0
 70
1024
 72
1
 73
0
 74
5
  7

 75
16
 76
0
 77
2
 78
300
147
1.0
148
0.0
149
0.0
100
AcDbLayout
  1
Model
 70
1
 71
0
 10
0.0
 20
0.0
 11
420.0
 21
297.0
 12
0.0
 22
0.0
 32
0.0
 14
1e+20
 24
1e+20
 34
1e+20
 15
-1e+20
 25
-1e+20
 35
-1e+20
146
0.0
 13
0.0
 23
0.0
 33
0.0
 16
1.0
 26
0.0
 36
0.0
 17
0.0
 27
1.0
 37
0.0
 76
1
330
17
  0
LAYOUT
  5
1E
330
D
100
AcDbPlotSettings
  1

  4
A3
  6

 40
7.5
 41
20.0
 42
7.5
 43
20.0
 44
420.0
 45
297.0
 46
0.0
 47
0.0
 48
0.0
 49
0.0
140
0.0
141
0.0
142
1.0
143
1.0
 70
0
 72
1
 73
0
 74
5
  7

 75
16
 76
0
 77
2
 78
300
147
1.0
148
0.0
149
0.0
100
AcDbLayout
  1
Layout1
 70
1
 71
1
 10
0.0
 20
0.0
 11
420.0
 21
297.0
 12
0.0
 22
0.0
 32
0.0
 14
1e+20
 24
1e+20
 34
1e+20
 15
-1e+20
 25
-1e+20
 35
-1e+20
146
0.0
 13
0.0
 23
0.0
 33
0.0
 16
1.0
 26
0.0
 36
0.0
 17
0.0
 27
1.0
 37
0.0
 76
1
330
1B
  0
MATERIAL
  5
1F
102
{ACAD_REACTORS
330
E
102
}
330
E
100
AcDbMaterial
  1
ByBlock
  2

 70
0
 40
1.0
 71
1
 41
1.0
 91
-1023410177
 42
1.0
 72
1
  3

 73
1
 74
1
 75
1
 44
0.5
 73
0
 45
1.0
 46
1.0
 77
1
  4

 78
1
 79
1
170
1
 48
1.0
171
1
  6

172
1
173
1
174
1
140
1.0
141
1.0
175
1
  7

176
1
177
1
178
1
143
1.0
179
1
  8

270
1
271
1
272
1
145
1.0
146
1.0
273
1
  9

274
1
275
1
276
1
 42
1.0
 72
1
  3

 73
1
 74
1
 75
1
 94
63
  0
MATERIAL
  5
20
102
{ACAD_REACTORS
330
E
102
}
330
E
100
AcDbMaterial
  1
ByLayer
  2

 70
0
 40
1.0
 71
1
 41
1.0
 91
-1023410177
 42
1.0
 72
1
  3

 73
1
 74
1
 75
1
 44
0.5
 73
0
 45
1.0
 46
1.0
 77
1
  4

 78
1
 79
1
170
1
 48
1.0
171
1
  6

172
1
173
1
174
1
140
1.0
141
1.0
175
1
  7

176
1
177
1
178
1
143
1.0
179
1
  8

270
1
271
1
272
1
145
1.0
146
1.0
273
1
  9

274
1
275
1
276
1
 42
1.0
 72
1
  3

 73
1
 74
1
 75
1
 94
63
  0
MATERIAL
  5
21
102
{ACAD_REACTORS
330
E
102
}
330
E
100
AcDbMaterial
  1
Global
  2

 70
0
 40
1.0
 71
1
 41
1.0
 91
-1023410177
 42
1.0
 72
1
  3

 73
1
 74
1
 75
1
 44
0.5
 73
0
 45
1.0
 46
1.0
 77
1
  4

 78
1
 79
1
170
1
 48
1.0
171
1
  6

172
1
173
1
174
1
140
1.0
141
1.0
175
1
  7

176
1
177
1
178
1
143
1.0
179
1
  8

270
1
271
1
272
1
145
1.0
146
1.0
273
1
  9

274
1
275
1
276
1
 42
1.0
 72
1
  3

 73
1
 74
1
 75
1
 94
63
  0
MLINESTYLE
  5
22
102
{ACAD_REACTORS
330
10
102
}
330
10
100
AcDbMlineStyle
  2
Standard
 70
0
  3

 62
256
 51
90.0
 52
90.0
 71
2
 49
0.5
 62
256
  6
BYLAYER
 49
-0.5
 62
256
  6
BYLAYER
  0
MLEADERSTYLE
  5
2C
102
{ACAD_REACTORS
330
F
102
}
330
F
100
AcDbMLeaderStyle
179
2
170
2
171
1
172
0
 90
2
 40
0.0
 41
0.0
173
1
 91
-1056964608
 92
-2
290
1
 42
2.0
291
1
 43
8.0
  3
Standard
 44
4.0
300

342
29
174
1
175
1
176
0
178
1
 93
-1056964608
 45
4.0
292
0
297
0
 46
4.0
 94
-1056964608
 47
1.0
 49
1.0
140
1.0
294
1
141
0.0
177
0
142
1.0
295
0
296
0
143
3.75
271
0
272
9
273
9
  0
DICTIONARY
  5
2D
330
A
100
AcDbDictionary
280
1
281
1
  3
CREATED_BY_EZDXF
350
2E
  3
WRITTEN_BY_EZDXF
350
3B5
  0
DICTIONARYVAR
  5
2E
330
2D
100
DictionaryVariables
280
0
  1
1.4.3 @ 2025-12-18T12:08:00.879666+00:00
  0
DICTIONARYVAR
  5
3B5
330
2D
100
DictionaryVariables
280
0
  1
1.4.3 @ 2025-12-18T12:08:00.963885+00:00
  0
ENDSEC
  0
EOF
