  0
SECTION
  2
HEADER
  9
$ACADVER
  1
AC1024
  9
$ACADMAINTVER
 70
6
  9
$DWGCODEPAGE
  3
ANSI_1252
  9
$LASTSAVEDBY
  1
ezdxf
  9
$INSBASE
 10
0.0
 20
0.0
 30
0.0
  9
$EXTMIN
 10
1e+20
 20
1e+20
 30
1e+20
  9
$EXTMAX
 10
-1e+20
 20
-1e+20
 30
-1e+20
  9
$LIMMIN
 10
0.0
 20
0.0
  9
$LIMMAX
 10
420.0
 20
297.0
  9
$ORTHOMODE
 70
0
  9
$REGENMODE
 70
1
  9
$FILLMODE
 70
1
  9
$QTEXTMODE
 70
0
  9
$MIRRTEXT
 70
1
  9
$LTSCALE
 40
1.0
  9
$ATTMODE
 70
1
  9
$TEXTSIZE
 40
2.5
  9
$TRACEWID
 40
1.0
  9
$TEXTSTYLE
  7
Standard
  9
$CLAYER
  8
0
  9
$CELTYPE
  6
ByLayer
  9
$CECOLOR
 62
256
  9
$CELTSCALE
 40
1.0
  9
$DISPSILH
 70
0
  9
$DIMSCALE
 40
1.0
  9
$DIMASZ
 40
2.5
  9
$DIMEXO
 40
0.625
  9
$DIMDLI
 40
3.75
  9
$DIMRND
 40
0.0
  9
$DIMDLE
 40
0.0
  9
$DIMEXE
 40
1.25
  9
$DIMTP
 40
0.0
  9
$DIMTM
 40
0.0
  9
$DIMTXT
 40
2.5
  9
$DIMCEN
 40
2.5
  9
$DIMTSZ
 40
0.0
  9
$DIMTOL
 70
0
  9
$DIMLIM
 70
0
  9
$DIMTIH
 70
0
  9
$DIMTOH
 70
0
  9
$DIMSE1
 70
0
  9
$DIMSE2
 70
0
  9
$DIMTAD
 70
1
  9
$DIMZIN
 70
8
  9
$DIMBLK
  1

  9
$DIMASO
 70
1
  9
$DIMSHO
 70
1
  9
$DIMPOST
  1

  9
$DIMAPOST
  1

  9
$DIMALT
 70
0
  9
$DIMALTD
 70
3
  9
$DIMALTF
 40
0.03937007874
  9
$DIMLFAC
 40
1.0
  9
$DIMTOFL
 70
1
  9
$DIMTVP
 40
0.0
  9
$DIMTIX
 70
0
  9
$DIMSOXD
 70
0
  9
$DIMSAH
 70
0
  9
$DIMBLK1
  1

  9
$DIMBLK2
  1

  9
$DIMSTYLE
  2
ISO-25
  9
$DIMCLRD
 70
0
  9
$DIMCLRE
 70
0
  9
$DIMCLRT
 70
0
  9
$DIMTFAC
 40
1.0
  9
$DIMGAP
 40
0.625
  9
$DIMJUST
 70
0
  9
$DIMSD1
 70
0
  9
$DIMSD2
 70
0
  9
$DIMTOLJ
 70
0
  9
$DIMTZIN
 70
8
  9
$DIMALTZ
 70
0
  9
$DIMALTTZ
 70
0
  9
$DIMUPT
 70
0
  9
$DIMDEC
 70
2
  9
$DIMTDEC
 70
2
  9
$DIMALTU
 70
2
  9
$DIMALTTD
 70
3
  9
$DIMTXSTY
  7
Standard
  9
$DIMAUNIT
 70
0
  9
$DIMADEC
 70
0
  9
$DIMALTRND
 40
0.0
  9
$DIMAZIN
 70
0
  9
$DIMDSEP
 70
44
  9
$DIMATFIT
 70
3
  9
$DIMFRAC
 70
0
  9
$DIMLDRBLK
  1

  9
$DIMLUNIT
 70
2
  9
$DIMLWD
 70
-2
  9
$DIMLWE
 70
-2
  9
$DIMTMOVE
 70
0
  9
$DIMFXL
 40
1.0
  9
$DIMFXLON
 70
0
  9
$DIMJOGANG
 40
0.785398163397
  9
$DIMTFILL
 70
0
  9
$DIMTFILLCLR
 70
0
  9
$DIMARCSYM
 70
0
  9
$DIMLTYPE
  6

  9
$DIMLTEX1
  6

  9
$DIMLTEX2
  6

  9
$DIMTXTDIRECTION
 70
0
  9
$LUNITS
 70
2
  9
$LUPREC
 70
4
  9
$SKETCHINC
 40
1.0
  9
$FILLETRAD
 40
10.0
  9
$AUNITS
 70
0
  9
$AUPREC
 70
2
  9
$MENU
  1
.
  9
$ELEVATION
 40
0.0
  9
$PELEVATION
 40
0.0
  9
$THICKNESS
 40
0.0
  9
$LIMCHECK
 70
0
  9
$CHAMFERA
 40
0.0
  9
$CHAMFERB
 40
0.0
  9
$CHAMFERC
 40
0.0
  9
$CHAMFERD
 40
0.0
  9
$SKPOLY
 70
0
  9
$TDCREATE
 40
2461028.734733796
  9
$TDUCREATE
 40
2458532.153996898
  9
$TDUPDATE
 40
2461028.734733796
  9
$TDUUPDATE
 40
2458532.1544311
  9
$TDINDWG
 40
0.0
  9
$TDUSRTIMER
 40
0.0
  9
$USRTIMER
 70
1
  9
$ANGBASE
 50
0.0
  9
$ANGDIR
 70
0
  9
$PDMODE
 70
0
  9
$PDSIZE
 40
0.0
  9
$PLINEWID
 40
0.0
  9
$SPLFRAME
 70
0
  9
$SPLINETYPE
 70
6
  9
$SPLINESEGS
 70
8
  9
$HANDSEED
  5
206
  9
$SURFTAB1
 70
6
  9
$SURFTAB2
 70
6
  9
$SURFTYPE
 70
6
  9
$SURFU
 70
6
  9
$SURFV
 70
6
  9
$UCSBASE
  2

  9
$UCSNAME
  2

  9
$UCSORG
 10
0.0
 20
0.0
 30
0.0
  9
$UCSXDIR
 10
1.0
 20
0.0
 30
0.0
  9
$UCSYDIR
 10
0.0
 20
1.0
 30
0.0
  9
$UCSORTHOREF
  2

  9
$UCSORTHOVIEW
 70
0
  9
$UCSORGTOP
 10
0.0
 20
0.0
 30
0.0
  9
$UCSORGBOTTOM
 10
0.0
 20
0.0
 30
0.0
  9
$UCSORGLEFT
 10
0.0
 20
0.0
 30
0.0
  9
$UCSORGRIGHT
 10
0.0
 20
0.0
 30
0.0
  9
$UCSORGFRONT
 10
0.0
 20
0.0
 30
0.0
  9
$UCSORGBACK
 10
0.0
 20
0.0
 30
0.0
  9
$PUCSBASE
  2

  9
$PUCSNAME
  2

  9
$PUCSORG
 10
0.0
 20
0.0
 30
0.0
  9
$PUCSXDIR
 10
1.0
 20
0.0
 30
0.0
  9
$PUCSYDIR
 10
0.0
 20
1.0
 30
0.0
  9
$PUCSORTHOREF
  2

  9
$PUCSORTHOVIEW
 70
0
  9
$PUCSORGTOP
 10
0.0
 20
0.0
 30
0.0
  9
$PUCSORGBOTTOM
 10
0.0
 20
0.0
 30
0.0
  9
$PUCSORGLEFT
 10
0.0
 20
0.0
 30
0.0
  9
$PUCSORGRIGHT
 10
0.0
 20
0.0
 30
0.0
  9
$PUCSORGFRONT
 10
0.0
 20
0.0
 30
0.0
  9
$PUCSORGBACK
 10
0.0
 20
0.0
 30
0.0
  9
$USERI1
 70
0
  9
$USERI2
 70
0
  9
$USERI3
 70
0
  9
$USERI4
 70
0
  9
$USERI5
 70
0
  9
$USERR1
 40
0.0
  9
$USERR2
 40
0.0
  9
$USERR3
 40
0.0
  9
$USERR4
 40
0.0
  9
$USERR5
 40
0.0
  9
$WORLDVIEW
 70
1
  9
$SHADEDGE
 70
3
  9
$SHADEDIF
 70
70
  9
$TILEMODE
 70
1
  9
$MAXACTVP
 70
64
  9
$PINSBASE
 10
0.0
 20
0.0
 30
0.0
  9
$PLIMCHECK
 70
0
  9
$PEXTMIN
 10
1e+20
 20
1e+20
 30
1e+20
  9
$PEXTMAX
 10
-1e+20
 20
-1e+20
 30
-1e+20
  9
$PLIMMIN
 10
0.0
 20
0.0
  9
$PLIMMAX
 10
420.0
 20
297.0
  9
$UNITMODE
 70
0
  9
$VISRETAIN
 70
1
  9
$PLINEGEN
 70
0
  9
$PSLTSCALE
 70
1
  9
$TREEDEPTH
 70
3020
  9
$CMLSTYLE
  2
Standard
  9
$CMLJUST
 70
0
  9
$CMLSCALE
 40
20.0
  9
$PROXYGRAPHICS
 70
1
  9
$MEASUREMENT
 70
1
  9
$CELWEIGHT
370
-1
  9
$ENDCAPS
280
0
  9
$JOINSTYLE
280
0
  9
$LWDISPLAY
290
0
  9
$INSUNITS
 70
6
  9
$HYPERLINKBASE
  1

  9
$STYLESHEET
  1

  9
$XEDIT
290
1
  9
$CEPSNTYPE
380
0
  9
$PSTYLEMODE
290
1
  9
$FINGERPRINTGUID
  2
{CB8097AC-9607-432C-B9F9-94C37D60D006}
  9
$VERSIONGUID
  2
{86152082-39E6-4823-8AB5-57022E0B5129}
  9
$EXTNAMES
290
1
  9
$PSVPSCALE
 40
0.0
  9
$OLESTARTUP
290
0
  9
$SORTENTS
280
127
  9
$INDEXCTL
280
0
  9
$HIDETEXT
280
1
  9
$XCLIPFRAME
280
1
  9
$HALOGAP
280
0
  9
$OBSCOLOR
 70
257
  9
$OBSLTYPE
280
0
  9
$INTERSECTIONDISPLAY
280
0
  9
$INTERSECTIONCOLOR
 70
257
  9
$DIMASSOC
280
2
  9
$PROJECTNAME
  1

  9
$CAMERADISPLAY
290
0
  9
$LENSLENGTH
 40
50.0
  9
$CAMERAHEIGHT
 40
0.0
  9
$STEPSPERSEC
 40
24.0
  9
$STEPSIZE
 40
100.0
  9
$3DDWFPREC
 40
2.0
  9
$PSOLWIDTH
 40
0.005
  9
$PSOLHEIGHT
 40
0.08
  9
$LOFTANG1
 40
1.570796326795
  9
$LOFTANG2
 40
1.570796326795
  9
$LOFTMAG1
 40
0.0
  9
$LOFTMAG2
 40
0.0
  9
$LOFTPARAM
 70
7
  9
$LOFTNORMALS
280
1
  9
$LATITUDE
 40
37.795
  9
$LONGITUDE
 40
-122.394
  9
$NORTHDIRECTION
 40
0.0
  9
$TIMEZONE
 70
-8000
  9
$LIGHTGLYPHDISPLAY
280
1
  9
$TILEMODELIGHTSYNCH
280
1
  9
$CMATERIAL
347
20
  9
$SOLIDHIST
280
0
  9
$SHOWHIST
280
1
  9
$DWFFRAME
280
2
  9
$DGNFRAME
280
2
  9
$REALWORLDSCALE
290
1
  9
$INTERFERECOLOR
 62
256
  9
$CSHADOW
280
0
  9
$SHADOWPLANELOCATION
 40
0.0
  0
ENDSEC
  0
SECTION
  2
CLASSES
  0
CLASS
  1
ACDBDICTIONARYWDFLT
  2
AcDbDictionaryWithDefault
  3
ObjectDBX Classes
 90
0
 91
0
280
0
281
0
  0
CLASS
  1
SUN
  2
AcDbSun
  3
SCENEOE
 90
1153
 91
0
280
0
281
0
  0
CLASS
  1
VISUALSTYLE
  2
AcDbVisualStyle
  3
ObjectDBX Classes
 90
4095
 91
0
280
0
281
0
  0
CLASS
  1
MATERIAL
  2
AcDbMaterial
  3
ObjectDBX Classes
 90
1153
 91
0
280
0
281
0
  0
CLASS
  1
SCALE
  2
AcDbScale
  3
ObjectDBX Classes
 90
1153
 91
0
280
0
281
0
  0
CLASS
  1
TABLESTYLE
  2
AcDbTableStyle
  3
ObjectDBX Classes
 90
4095
 91
0
280
0
281
0
  0
CLASS
  1
MLEADERSTYLE
  2
AcDbMLeaderStyle
  3
ACDB_MLEADERSTYLE_CLASS
 90
4095
 91
0
280
0
281
0
  0
CLASS
  1
DICTIONARYVAR
  2
AcDbDictionaryVar
  3
ObjectDBX Classes
 90
0
 91
0
280
0
281
0
  0
CLASS
  1
CELLSTYLEMAP
  2
AcDbCellStyleMap
  3
ObjectDBX Classes
 90
1152
 91
0
280
0
281
0
  0
CLASS
  1
MENTALRAYRENDERSETTINGS
  2
AcDbMentalRayRenderSettings
  3
SCENEOE
 90
1024
 91
0
280
0
281
0
  0
CLASS
  1
ACDBDETAILVIEWSTYLE
  2
AcDbDetailViewStyle
  3
ObjectDBX Classes
 90
1025
 91
0
280
0
281
0
  0
CLASS
  1
ACDBSECTIONVIEWSTYLE
  2
AcDbSectionViewStyle
  3
ObjectDBX Classes
 90
1025
 91
0
280
0
281
0
  0
CLASS
  1
RASTERVARIABLES
  2
AcDbRasterVariables
  3
ISM
 90
0
 91
0
280
0
281
0
  0
CLASS
  1
ACDBPLACEHOLDER
  2
AcDbPlaceHolder
  3
ObjectDBX Classes
 90
0
 91
0
280
0
281
0
  0
CLASS
  1
LAYOUT
  2
AcDbLayout
  3
ObjectDBX Classes
 90
0
 91
0
280
0
281
0
  0
ENDSEC
  0
SECTION
  2
TABLES
  0
TABLE
  2
VPORT
  5
8
330
0
100
AcDbSymbolTable
 70
1
  0
VPORT
  5
23
330
8
100
AcDbSymbolTableRecord
100
AcDbViewportTableRecord
  2
*Active
 70
0
 10
0.0
 20
0.0
 11
1.0
 21
1.0
 12
0.0
 22
0.0
 13
0.0
 23
0.0
 14
0.5
 24
0.5
 15
0.5
 25
0.5
 16
0.0
 26
0.0
 36
1.0
 17
0.0
 27
0.0
 37
0.0
 40
1000.0
 41
1.34
 42
50.0
 43
0.0
 44
0.0
 50
0.0
 51
0.0
 71
0
 72
1000
 73
1
 74
3
 75
0
 76
0
 77
0
 78
0
281
0
 65
0
146
0.0
  0
ENDTAB
  0
TABLE
  2
LTYPE
  5
2
330
0
100
AcDbSymbolTable
 70
3
  0
LTYPE
  5
24
330
2
100
AcDbSymbolTableRecord
100
AcDbLinetypeTableRecord
  2
ByBlock
 70
0
  3

 72
65
 73
0
 40
0.0
  0
LTYPE
  5
25
330
2
100
AcDbSymbolTableRecord
100
AcDbLinetypeTableRecord
  2
ByLayer
 70
0
  3

 72
65
 73
0
 40
0.0
  0
LTYPE
  5
26
330
2
100
AcDbSymbolTableRecord
100
AcDbLinetypeTableRecord
  2
Continuous
 70
0
  3

 72
65
 73
0
 40
0.0
  0
ENDTAB
  0
TABLE
  2
LAYER
  5
1
330
0
100
AcDbSymbolTable
 70
5
  0
LAYER
  5
27
330
1
100
AcDbSymbolTableRecord
100
AcDbLayerTableRecord
  2
0
 70
0
 62
7
  6
Continuous
370
-3
390
13
347
21
  0
LAYER
  5
28
330
1
100
AcDbSymbolTableRecord
100
AcDbLayerTableRecord
  2
Defpoints
 70
0
 62
7
  6
Continuous
290
0
370
-3
390
13
347
21
  0
LAYER
  5
2F
330
1
100
AcDbSymbolTableRecord
100
AcDbLayerTableRecord
  2
CUT
 70
0
 62
4
  6
Continuous
370
-3
390
13
347
21
  0
LAYER
  5
30
330
1
100
AcDbSymbolTableRecord
100
AcDbLayerTableRecord
  2
DIMENSIONS
 70
0
 62
1
  6
Continuous
370
-3
390
13
347
21
  0
LAYER
  5
31
330
1
100
AcDbSymbolTableRecord
100
AcDbLayerTableRecord
  2
BIN
 70
0
 62
2
  6
Continuous
370
-3
390
13
347
21
  0
ENDTAB
  0
TABLE
  2
STYLE
  5
5
330
0
100
AcDbSymbolTable
 70
1
  0
STYLE
  5
29
330
5
100
AcDbSymbolTableRecord
100
AcDbTextStyleTableRecord
  2
Standard
 70
0
 40
0.0
 41
1.0
 50
0.0
 71
0
 42
2.5
  3
txt
  4

  0
ENDTAB
  0
TABLE
  2
VIEW
  5
7
330
0
100
AcDbSymbolTable
 70
0
  0
ENDTAB
  0
TABLE
  2
UCS
  5
6
330
0
100
AcDbSymbolTable
 70
0
  0
ENDTAB
  0
TABLE
  2
APPID
  5
3
330
0
100
AcDbSymbolTable
 70
3
  0
APPID
  5
2A
330
3
100
AcDbSymbolTableRecord
100
AcDbRegAppTableRecord
  2
ACAD
 70
0
  0
APPID
  5
203
330
3
100
AcDbSymbolTableRecord
100
AcDbRegAppTableRecord
  2
HATCHBACKGROUNDCOLOR
 70
0
  0
APPID
  5
204
330
3
100
AcDbSymbolTableRecord
100
AcDbRegAppTableRecord
  2
EZDXF
 70
0
  0
ENDTAB
  0
TABLE
  2
DIMSTYLE
  5
4
330
0
100
AcDbSymbolTable
 70
2
100
AcDbDimStyleTable
  0
DIMSTYLE
105
2B
330
4
100
AcDbSymbolTableRecord
100
AcDbDimStyleTableRecord
  2
Standard
 70
0
 40
1.0
 41
2.5
 42
0.625
 43
3.75
 44
1.25
 45
0.0
 46
0.0
 47
0.0
 48
0.0
 49
2.5
140
2.5
141
2.5
142
0.0
143
0.03937007874
144
1.0
145
0.0
146
1.0
147
0.625
148
0.0
 69
0
 70
0
 71
0
 72
0
 73
0
 74
0
 75
0
 76
0
 77
1
 78
8
 79
3
170
0
171
3
172
1
173
0
174
0
175
0
176
0
177
0
178
0
179
2
271
2
272
2
273
2
274
3
275
0
276
0
277
2
278
44
279
0
280
0
281
0
282
0
283
0
284
8
285
0
286
0
288
0
289
3
290
0
371
-2
372
-2
  0
DIMSTYLE
105
32
330
4
100
AcDbSymbolTableRecord
100
AcDbDimStyleTableRecord
  2
DoorDimStyle
 70
0
 40
1.0
 41
2.5
 42
0.625
 43
3.75
 44
1.25
 45
0.0
 46
0.0
 47
0.0
 48
0.0
 49
2.5
140
2.5
141
2.5
142
0.0
143
0.03937007874
144
1.0
145
0.0
146
1.0
147
0.625
148
0.0
 69
0
 70
0
 71
0
 72
0
 73
0
 74
0
 75
0
 76
0
 77
1
 78
8
 79
3
170
0
171
3
172
1
173
0
174
0
175
0
176
7
177
7
178
7
179
2
271
2
272
2
273
2
274
3
275
0
276
0
277
2
278
44
279
0
280
0
281
0
282
0
283
0
284
8
285
0
286
0
288
0
289
3
290
0
340
29
371
-2
372
-2
  0
ENDTAB
  0
TABLE
  2
BLOCK_RECORD
  5
9
330
0
100
AcDbSymbolTable
 70
33
  0
BLOCK_RECORD
  5
17
330
9
100
AcDbSymbolTableRecord
100
AcDbBlockTableRecord
  2
*Model_Space
340
1A
 70
0
280
1
281
0
  0
BLOCK_RECORD
  5
1B
330
9
100
AcDbSymbolTableRecord
100
AcDbBlockTableRecord
  2
*Paper_Space
340
1E
 70
0
280
1
281
0
  0
BLOCK_RECORD
  5
3B
330
9
100
AcDbSymbolTableRecord
100
AcDbBlockTableRecord
  2
*D1
340
0
 70
0
280
1
281
0
  0
BLOCK_RECORD
  5
40
330
9
100
AcDbSymbolTableRecord
100
AcDbBlockTableRecord
  2
_CLOSEDFILLED
340
0
 70
0
280
1
281
0
  0
BLOCK_RECORD
  5
4E
330
9
100
AcDbSymbolTableRecord
100
AcDbBlockTableRecord
  2
*D2
340
0
 70
0
280
1
281
0
  0
BLOCK_RECORD
  5
5D
330
9
100
AcDbSymbolTableRecord
100
AcDbBlockTableRecord
  2
*D3
340
0
 70
0
280
1
281
0
  0
BLOCK_RECORD
  5
6C
330
9
100
AcDbSymbolTableRecord
100
AcDbBlockTableRecord
  2
*D4
340
0
 70
0
280
1
281
0
  0
BLOCK_RECORD
  5
7B
330
9
100
AcDbSymbolTableRecord
100
AcDbBlockTableRecord
  2
*D5
340
0
 70
0
280
1
281
0
  0
BLOCK_RECORD
  5
8A
330
9
100
AcDbSymbolTableRecord
100
AcDbBlockTableRecord
  2
*D6
340
0
 70
0
280
1
281
0
  0
BLOCK_RECORD
  5
99
330
9
100
AcDbSymbolTableRecord
100
AcDbBlockTableRecord
  2
*D7
340
0
 70
0
280
1
281
0
  0
BLOCK_RECORD
  5
A8
330
9
100
AcDbSymbolTableRecord
100
AcDbBlockTableRecord
  2
*D8
340
0
 70
0
280
1
281
0
  0
BLOCK_RECORD
  5
B7
330
9
100
AcDbSymbolTableRecord
100
AcDbBlockTableRecord
  2
*D9
340
0
 70
0
280
1
281
0
  0
BLOCK_RECORD
  5
C6
330
9
100
AcDbSymbolTableRecord
100
AcDbBlockTableRecord
  2
*D10
340
0
 70
0
280
1
281
0
  0
BLOCK_RECORD
  5
D5
330
9
100
AcDbSymbolTableRecord
100
AcDbBlockTableRecord
  2
*D11
340
0
 70
0
280
1
281
0
  0
BLOCK_RECORD
  5
E4
330
9
100
AcDbSymbolTableRecord
100
AcDbBlockTableRecord
  2
*D12
340
0
 70
0
280
1
281
0
  0
BLOCK_RECORD
  5
F3
330
9
100
AcDbSymbolTableRecord
100
AcDbBlockTableRecord
  2
*D13
340
0
 70
0
280
1
281
0
  0
BLOCK_RECORD
  5
102
330
9
100
AcDbSymbolTableRecord
100
AcDbBlockTableRecord
  2
*D14
340
0
 70
0
280
1
281
0
  0
BLOCK_RECORD
  5
111
330
9
100
AcDbSymbolTableRecord
100
AcDbBlockTableRecord
  2
*D15
340
0
 70
0
280
1
281
0
  0
BLOCK_RECORD
  5
120
330
9
100
AcDbSymbolTableRecord
100
AcDbBlockTableRecord
  2
*D16
340
0
 70
0
280
1
281
0
  0
BLOCK_RECORD
  5
12F
330
9
100
AcDbSymbolTableRecord
100
AcDbBlockTableRecord
  2
*D17
340
0
 70
0
280
1
281
0
  0
BLOCK_RECORD
  5
13E
330
9
100
AcDbSymbolTableRecord
100
AcDbBlockTableRecord
  2
*D18
340
0
 70
0
280
1
281
0
  0
BLOCK_RECORD
  5
14D
330
9
100
AcDbSymbolTableRecord
100
AcDbBlockTableRecord
  2
*D19
340
0
 70
0
280
1
281
0
  0
BLOCK_RECORD
  5
15C
330
9
100
AcDbSymbolTableRecord
100
AcDbBlockTableRecord
  2
*D20
340
0
 70
0
280
1
281
0
  0
BLOCK_RECORD
  5
16B
330
9
100
AcDbSymbolTableRecord
100
AcDbBlockTableRecord
  2
*D21
340
0
 70
0
280
1
281
0
  0
BLOCK_RECORD
  5
178
330
9
100
AcDbSymbolTableRecord
100
AcDbBlockTableRecord
  2
*D22
340
0
 70
0
280
1
281
0
  0
BLOCK_RECORD
  5
187
330
9
100
AcDbSymbolTableRecord
100
AcDbBlockTableRecord
  2
*D23
340
0
 70
0
280
1
281
0
  0
BLOCK_RECORD
  5
196
330
9
100
AcDbSymbolTableRecord
100
AcDbBlockTableRecord
  2
*D24
340
0
 70
0
280
1
281
0
  0
BLOCK_RECORD
  5
1A3
330
9
100
AcDbSymbolTableRecord
100
AcDbBlockTableRecord
  2
*D25
340
0
 70
0
280
1
281
0
  0
BLOCK_RECORD
  5
1B2
330
9
100
AcDbSymbolTableRecord
100
AcDbBlockTableRecord
  2
*D26
340
0
 70
0
280
1
281
0
  0
BLOCK_RECORD
  5
1C1
330
9
100
AcDbSymbolTableRecord
100
AcDbBlockTableRecord
  2
*D27
340
0
 70
0
280
1
281
0
  0
BLOCK_RECORD
  5
1D0
330
9
100
AcDbSymbolTableRecord
100
AcDbBlockTableRecord
  2
*D28
340
0
 70
0
280
1
281
0
  0
BLOCK_RECORD
  5
1E1
330
9
100
AcDbSymbolTableRecord
100
AcDbBlockTableRecord
  2
*D29
340
0
 70
0
280
1
281
0
  0
BLOCK_RECORD
  5
1F2
330
9
100
AcDbSymbolTableRecord
100
AcDbBlockTableRecord
  2
*D30
340
0
 70
0
280
1
281
0
  0
ENDTAB
  0
ENDSEC
  0
SECTION
  2
BLOCKS
  0
BLOCK
  5
18
330
17
100
AcDbEntity
  8
0
100
AcDbBlockBegin
  2
*Model_Space
 70
0
 10
0.0
 20
0.0
 30
0.0
  3
*Model_Space
  1

  0
ENDBLK
  5
19
330
17
100
AcDbEntity
  8
0
100
AcDbBlockEnd
  0
BLOCK
  5
1C
330
1B
100
AcDbEntity
  8
0
100
AcDbBlockBegin
  2
*Paper_Space
 70
0
 10
0.0
 20
0.0
 30
0.0
  3
*Paper_Space
  1

  0
ENDBLK
  5
1D
330
1B
100
AcDbEntity
  8
0
100
AcDbBlockEnd
  0
BLOCK
  5
3C
330
3B
100
AcDbEntity
  8
0
100
AcDbBlockBegin
  2
*D1
 70
1
 10
0.0
 20
0.0
 30
0.0
  3
*D1
  1

  0
LINE
  5
3E
330
3B
100
AcDbEntity
  8
0
 62
7
100
AcDbLine
 10
0.0
 20
9.0
 30
0.0
 11
0.0
 21
4.0
 31
0.0
  0
LINE
  5
3F
330
3B
100
AcDbEntity
  8
0
 62
7
100
AcDbLine
 10
613.0
 20
9.0
 30
0.0
 11
613.0
 21
4.0
 31
0.0
  0
INSERT
  5
44
330
3B
100
AcDbEntity
  8
0
 62
7
100
AcDbBlockReference
  2
_CLOSEDFILLED
 10
0.0
 20
7.0
 30
0.0
 41
6.0
 42
6.0
 50
180.0
  0
INSERT
  5
46
330
3B
100
AcDbEntity
  8
0
 62
7
100
AcDbBlockReference
  2
_CLOSEDFILLED
 10
613.0
 20
7.0
 30
0.0
 41
6.0
 42
6.0
  0
LINE
  5
48
330
3B
100
AcDbEntity
  8
0
 62
7
100
AcDbLine
 10
6.0
 20
6.999999999999999
 30
0.0
 11
607.0
 21
7.0
 31
0.0
  0
MTEXT
  5
49
330
3B
100
AcDbEntity
  8
0
 62
7
100
AcDbMText
 10
306.5
 20
12.625
 30
0.0
 40
10.0
 71
5
  1
613
  0
POINT
  5
4A
330
3B
100
AcDbEntity
  8
Defpoints
100
AcDbPoint
 10
0.0
 20
7.0
 30
0.0
  0
POINT
  5
4B
330
3B
100
AcDbEntity
  8
Defpoints
100
AcDbPoint
 10
0.0
 20
12.0
 30
0.0
  0
POINT
  5
4C
330
3B
100
AcDbEntity
  8
Defpoints
100
AcDbPoint
 10
613.0
 20
12.0
 30
0.0
  0
ENDBLK
  5
3D
330
3B
100
AcDbEntity
  8
0
100
AcDbBlockEnd
  0
BLOCK
  5
41
330
40
100
AcDbEntity
  8
0
100
AcDbBlockBegin
  2
_CLOSEDFILLED
 70
0
 10
0.0
 20
0.0
 30
0.0
  3
_CLOSEDFILLED
  1

  0
SOLID
  5
43
330
40
100
AcDbEntity
  8
0
  6
BYBLOCK
 62
0
100
AcDbTrace
 10
-1.0
 20
0.16439898372402537
 30
0.0
 11
0.0
 21
0.0
 31
0.0
 12
-1.0
 22
-0.16439898372402537
 32
0.0
 13
-1.0
 23
-0.16439898372402537
 33
0.0
  0
ENDBLK
  5
42
330
40
100
AcDbEntity
  8
0
100
AcDbBlockEnd
  0
BLOCK
  5
4F
330
4E
100
AcDbEntity
  8
0
100
AcDbBlockBegin
  2
*D2
 70
1
 10
0.0
 20
0.0
 30
0.0
  3
*D2
  1

  0
LINE
  5
51
330
4E
100
AcDbEntity
  8
0
 62
7
100
AcDbLine
 10
-3.0
 20
12.0
 30
0.0
 11
-8.0
 21
12.0
 31
0.0
  0
LINE
  5
52
330
4E
100
AcDbEntity
  8
0
 62
7
100
AcDbLine
 10
-3.0
 20
1072.0
 30
0.0
 11
-8.0
 21
1072.0
 31
0.0
  0
INSERT
  5
53
330
4E
100
AcDbEntity
  8
0
 62
7
100
AcDbBlockReference
  2
_CLOSEDFILLED
 10
-5.0
 20
12.0
 30
0.0
 41
6.0
 42
6.0
 50
270.0
  0
INSERT
  5
55
330
4E
100
AcDbEntity
  8
0
 62
7
100
AcDbBlockReference
  2
_CLOSEDFILLED
 10
-5.0
 20
1072.0
 30
0.0
 41
6.0
 42
6.0
 50
90.0
  0
LINE
  5
57
330
4E
100
AcDbEntity
  8
0
 62
7
100
AcDbLine
 10
-4.999999999999999
 20
18.0
 30
0.0
 11
-5.0
 21
1066.0
 31
0.0
  0
MTEXT
  5
58
330
4E
100
AcDbEntity
  8
0
 62
7
100
AcDbMText
 10
-10.625
 20
542.0
 30
0.0
 40
10.0
 71
5
  1
1060
 50
90.0
  0
POINT
  5
59
330
4E
100
AcDbEntity
  8
Defpoints
100
AcDbPoint
 10
-5.0
 20
12.0
 30
0.0
  0
POINT
  5
5A
330
4E
100
AcDbEntity
  8
Defpoints
100
AcDbPoint
 10
0.0
 20
12.0
 30
0.0
  0
POINT
  5
5B
330
4E
100
AcDbEntity
  8
Defpoints
100
AcDbPoint
 10
0.0
 20
1072.0
 30
0.0
  0
ENDBLK
  5
50
330
4E
100
AcDbEntity
  8
0
100
AcDbBlockEnd
  0
BLOCK
  5
5E
330
5D
100
AcDbEntity
  8
0
100
AcDbBlockBegin
  2
*D3
 70
1
 10
0.0
 20
0.0
 30
0.0
  3
*D3
  1

  0
LINE
  5
60
330
5D
100
AcDbEntity
  8
0
 62
7
100
AcDbLine
 10
19.0
 20
1087.0
 30
0.0
 11
19.0
 21
1092.0
 31
0.0
  0
LINE
  5
61
330
5D
100
AcDbEntity
  8
0
 62
7
100
AcDbLine
 10
601.0
 20
1087.0
 30
0.0
 11
601.0
 21
1092.0
 31
0.0
  0
INSERT
  5
62
330
5D
100
AcDbEntity
  8
0
 62
7
100
AcDbBlockReference
  2
_CLOSEDFILLED
 10
19.0
 20
1089.0
 30
0.0
 41
6.0
 42
6.0
 50
180.0
  0
INSERT
  5
64
330
5D
100
AcDbEntity
  8
0
 62
7
100
AcDbBlockReference
  2
_CLOSEDFILLED
 10
601.0
 20
1089.0
 30
0.0
 41
6.0
 42
6.0
  0
LINE
  5
66
330
5D
100
AcDbEntity
  8
0
 62
7
100
AcDbLine
 10
25.0
 20
1089.0
 30
0.0
 11
595.0
 21
1089.0
 31
0.0
  0
MTEXT
  5
67
330
5D
100
AcDbEntity
  8
0
 62
7
100
AcDbMText
 10
310.0
 20
1094.625
 30
0.0
 40
10.0
 71
5
  1
582
  0
POINT
  5
68
330
5D
100
AcDbEntity
  8
Defpoints
100
AcDbPoint
 10
19.0
 20
1089.0
 30
0.0
  0
POINT
  5
69
330
5D
100
AcDbEntity
  8
Defpoints
100
AcDbPoint
 10
19.0
 20
1084.0
 30
0.0
  0
POINT
  5
6A
330
5D
100
AcDbEntity
  8
Defpoints
100
AcDbPoint
 10
601.0
 20
1084.0
 30
0.0
  0
ENDBLK
  5
5F
330
5D
100
AcDbEntity
  8
0
100
AcDbBlockEnd
  0
BLOCK
  5
6D
330
6C
100
AcDbEntity
  8
0
100
AcDbBlockBegin
  2
*D4
 70
1
 10
0.0
 20
0.0
 30
0.0
  3
*D4
  1

  0
LINE
  5
6F
330
6C
100
AcDbEntity
  8
0
 62
7
100
AcDbLine
 10
604.0
 20
0.0
 30
0.0
 11
609.0
 21
0.0
 31
0.0
  0
LINE
  5
70
330
6C
100
AcDbEntity
  8
0
 62
7
100
AcDbLine
 10
604.0
 20
1084.0
 30
0.0
 11
609.0
 21
1084.0
 31
0.0
  0
INSERT
  5
71
330
6C
100
AcDbEntity
  8
0
 62
7
100
AcDbBlockReference
  2
_CLOSEDFILLED
 10
606.0
 20
0.0
 30
0.0
 41
6.0
 42
6.0
 50
270.0
  0
INSERT
  5
73
330
6C
100
AcDbEntity
  8
0
 62
7
100
AcDbBlockReference
  2
_CLOSEDFILLED
 10
606.0
 20
1084.0
 30
0.0
 41
6.0
 42
6.0
 50
90.0
  0
LINE
  5
75
330
6C
100
AcDbEntity
  8
0
 62
7
100
AcDbLine
 10
606.0
 20
6.0
 30
0.0
 11
606.0
 21
1078.0
 31
0.0
  0
MTEXT
  5
76
330
6C
100
AcDbEntity
  8
0
 62
7
100
AcDbMText
 10
600.375
 20
542.0
 30
0.0
 40
10.0
 71
5
  1
1084
 50
90.0
  0
POINT
  5
77
330
6C
100
AcDbEntity
  8
Defpoints
100
AcDbPoint
 10
606.0
 20
0.0
 30
0.0
  0
POINT
  5
78
330
6C
100
AcDbEntity
  8
Defpoints
100
AcDbPoint
 10
601.0
 20
0.0
 30
0.0
  0
POINT
  5
79
330
6C
100
AcDbEntity
  8
Defpoints
100
AcDbPoint
 10
601.0
 20
1084.0
 30
0.0
  0
ENDBLK
  5
6E
330
6C
100
AcDbEntity
  8
0
100
AcDbBlockEnd
  0
BLOCK
  5
7C
330
7B
100
AcDbEntity
  8
0
100
AcDbBlockBegin
  2
*D5
 70
1
 10
0.0
 20
0.0
 30
0.0
  3
*D5
  1

  0
LINE
  5
7E
330
7B
100
AcDbEntity
  8
0
 62
7
100
AcDbLine
 10
49.0
 20
489.0
 30
0.0
 11
49.0
 21
495.0
 31
0.0
  0
LINE
  5
7F
330
7B
100
AcDbEntity
  8
0
 62
7
100
AcDbLine
 10
74.0
 20
489.0
 30
0.0
 11
74.0
 21
495.0
 31
0.0
  0
INSERT
  5
80
330
7B
100
AcDbEntity
  8
0
 62
7
100
AcDbBlockReference
  2
_CLOSEDFILLED
 10
49.0
 20
492.0
 30
0.0
 41
6.0
 42
6.0
 50
180.0
  0
INSERT
  5
82
330
7B
100
AcDbEntity
  8
0
 62
7
100
AcDbBlockReference
  2
_CLOSEDFILLED
 10
74.0
 20
492.0
 30
0.0
 41
6.0
 42
6.0
  0
LINE
  5
84
330
7B
100
AcDbEntity
  8
0
 62
7
100
AcDbLine
 10
55.0
 20
492.0
 30
0.0
 11
68.0
 21
492.0
 31
0.0
  0
MTEXT
  5
85
330
7B
100
AcDbEntity
  8
0
 62
7
100
AcDbMText
 10
61.5
 20
497.625
 30
0.0
 40
10.0
 71
5
  1
25
  0
POINT
  5
86
330
7B
100
AcDbEntity
  8
Defpoints
100
AcDbPoint
 10
49.0
 20
492.0
 30
0.0
  0
POINT
  5
87
330
7B
100
AcDbEntity
  8
Defpoints
100
AcDbPoint
 10
49.0
 20
486.0
 30
0.0
  0
POINT
  5
88
330
7B
100
AcDbEntity
  8
Defpoints
100
AcDbPoint
 10
74.0
 20
486.0
 30
0.0
  0
ENDBLK
  5
7D
330
7B
100
AcDbEntity
  8
0
100
AcDbBlockEnd
  0
BLOCK
  5
8B
330
8A
100
AcDbEntity
  8
0
100
AcDbBlockBegin
  2
*D6
 70
1
 10
0.0
 20
0.0
 30
0.0
  3
*D6
  1

  0
LINE
  5
8D
330
8A
100
AcDbEntity
  8
0
 62
7
100
AcDbLine
 10
77.0
 20
486.0
 30
0.0
 11
83.0
 21
486.0
 31
0.0
  0
LINE
  5
8E
330
8A
100
AcDbEntity
  8
0
 62
7
100
AcDbLine
 10
77.0
 20
598.0
 30
0.0
 11
83.0
 21
598.0
 31
0.0
  0
INSERT
  5
8F
330
8A
100
AcDbEntity
  8
0
 62
7
100
AcDbBlockReference
  2
_CLOSEDFILLED
 10
80.0
 20
486.0
 30
0.0
 41
6.0
 42
6.0
 50
270.0
  0
INSERT
  5
91
330
8A
100
AcDbEntity
  8
0
 62
7
100
AcDbBlockReference
  2
_CLOSEDFILLED
 10
80.0
 20
598.0
 30
0.0
 41
6.0
 42
6.0
 50
90.0
  0
LINE
  5
93
330
8A
100
AcDbEntity
  8
0
 62
7
100
AcDbLine
 10
80.0
 20
492.0
 30
0.0
 11
80.0
 21
592.0
 31
0.0
  0
MTEXT
  5
94
330
8A
100
AcDbEntity
  8
0
 62
7
100
AcDbMText
 10
74.375
 20
542.0
 30
0.0
 40
10.0
 71
5
  1
112
 50
90.0
  0
POINT
  5
95
330
8A
100
AcDbEntity
  8
Defpoints
100
AcDbPoint
 10
80.0
 20
486.0
 30
0.0
  0
POINT
  5
96
330
8A
100
AcDbEntity
  8
Defpoints
100
AcDbPoint
 10
74.0
 20
486.0
 30
0.0
  0
POINT
  5
97
330
8A
100
AcDbEntity
  8
Defpoints
100
AcDbPoint
 10
74.0
 20
598.0
 30
0.0
  0
ENDBLK
  5
8C
330
8A
100
AcDbEntity
  8
0
100
AcDbBlockEnd
  0
BLOCK
  5
9A
330
99
100
AcDbEntity
  8
0
100
AcDbBlockBegin
  2
*D7
 70
1
 10
0.0
 20
0.0
 30
0.0
  3
*D7
  1

  0
LINE
  5
9C
330
99
100
AcDbEntity
  8
0
 62
7
100
AcDbLine
 10
209.0
 20
545.0
 30
0.0
 11
209.0
 21
554.0
 31
0.0
  0
LINE
  5
9D
330
99
100
AcDbEntity
  8
0
 62
7
100
AcDbLine
 10
411.0
 20
545.0
 30
0.0
 11
411.0
 21
554.0
 31
0.0
  0
INSERT
  5
9E
330
99
100
AcDbEntity
  8
0
 62
7
100
AcDbBlockReference
  2
_CLOSEDFILLED
 10
209.0
 20
551.0
 30
0.0
 41
6.0
 42
6.0
 50
180.0
  0
INSERT
  5
A0
330
99
100
AcDbEntity
  8
0
 62
7
100
AcDbBlockReference
  2
_CLOSEDFILLED
 10
411.0
 20
551.0
 30
0.0
 41
6.0
 42
6.0
  0
LINE
  5
A2
330
99
100
AcDbEntity
  8
0
 62
7
100
AcDbLine
 10
215.0
 20
551.0
 30
0.0
 11
405.0
 21
551.0
 31
0.0
  0
MTEXT
  5
A3
330
99
100
AcDbEntity
  8
0
 62
7
100
AcDbMText
 10
310.0
 20
556.625
 30
0.0
 40
10.0
 71
5
  1
202
  0
POINT
  5
A4
330
99
100
AcDbEntity
  8
Defpoints
100
AcDbPoint
 10
209.0
 20
551.0
 30
0.0
  0
POINT
  5
A5
330
99
100
AcDbEntity
  8
Defpoints
100
AcDbPoint
 10
209.0
 20
542.0
 30
0.0
  0
POINT
  5
A6
330
99
100
AcDbEntity
  8
Defpoints
100
AcDbPoint
 10
411.0
 20
542.0
 30
0.0
  0
ENDBLK
  5
9B
330
99
100
AcDbEntity
  8
0
100
AcDbBlockEnd
  0
BLOCK
  5
A9
330
A8
100
AcDbEntity
  8
0
100
AcDbBlockBegin
  2
*D8
 70
1
 10
0.0
 20
0.0
 30
0.0
  3
*D8
  1

  0
LINE
  5
AB
330
A8
100
AcDbEntity
  8
0
 62
7
100
AcDbLine
 10
414.0
 20
542.0
 30
0.0
 11
423.0
 21
542.0
 31
0.0
  0
LINE
  5
AC
330
A8
100
AcDbEntity
  8
0
 62
7
100
AcDbLine
 10
414.0
 20
902.0
 30
0.0
 11
423.0
 21
902.0
 31
0.0
  0
INSERT
  5
AD
330
A8
100
AcDbEntity
  8
0
 62
7
100
AcDbBlockReference
  2
_CLOSEDFILLED
 10
420.0
 20
542.0
 30
0.0
 41
6.0
 42
6.0
 50
270.0
  0
INSERT
  5
AF
330
A8
100
AcDbEntity
  8
0
 62
7
100
AcDbBlockReference
  2
_CLOSEDFILLED
 10
420.0
 20
902.0
 30
0.0
 41
6.0
 42
6.0
 50
90.0
  0
LINE
  5
B1
330
A8
100
AcDbEntity
  8
0
 62
7
100
AcDbLine
 10
420.0
 20
548.0
 30
0.0
 11
420.0
 21
896.0
 31
0.0
  0
MTEXT
  5
B2
330
A8
100
AcDbEntity
  8
0
 62
7
100
AcDbMText
 10
414.375
 20
722.0
 30
0.0
 40
10.0
 71
5
  1
360
 50
90.0
  0
POINT
  5
B3
330
A8
100
AcDbEntity
  8
Defpoints
100
AcDbPoint
 10
420.0
 20
542.0
 30
0.0
  0
POINT
  5
B4
330
A8
100
AcDbEntity
  8
Defpoints
100
AcDbPoint
 10
411.0
 20
542.0
 30
0.0
  0
POINT
  5
B5
330
A8
100
AcDbEntity
  8
Defpoints
100
AcDbPoint
 10
411.0
 20
902.0
 30
0.0
  0
ENDBLK
  5
AA
330
A8
100
AcDbEntity
  8
0
100
AcDbBlockEnd
  0
BLOCK
  5
B8
330
B7
100
AcDbEntity
  8
0
100
AcDbBlockBegin
  2
*D9
 70
1
 10
0.0
 20
0.0
 30
0.0
  3
*D9
  1

  0
LINE
  5
BA
330
B7
100
AcDbEntity
  8
0
 62
7
100
AcDbLine
 10
275.0
 20
65.0
 30
0.0
 11
275.0
 21
77.0
 31
0.0
  0
LINE
  5
BB
330
B7
100
AcDbEntity
  8
0
 62
7
100
AcDbLine
 10
345.0
 20
65.0
 30
0.0
 11
345.0
 21
77.0
 31
0.0
  0
INSERT
  5
BC
330
B7
100
AcDbEntity
  8
0
 62
7
100
AcDbBlockReference
  2
_CLOSEDFILLED
 10
275.0
 20
74.0
 30
0.0
 41
6.0
 42
6.0
 50
180.0
  0
INSERT
  5
BE
330
B7
100
AcDbEntity
  8
0
 62
7
100
AcDbBlockReference
  2
_CLOSEDFILLED
 10
345.0
 20
74.0
 30
0.0
 41
6.0
 42
6.0
  0
LINE
  5
C0
330
B7
100
AcDbEntity
  8
0
 62
7
100
AcDbLine
 10
281.0
 20
74.0
 30
0.0
 11
339.0
 21
74.0
 31
0.0
  0
MTEXT
  5
C1
330
B7
100
AcDbEntity
  8
0
 62
7
100
AcDbMText
 10
310.0
 20
79.625
 30
0.0
 40
10.0
 71
5
  1
70
  0
POINT
  5
C2
330
B7
100
AcDbEntity
  8
Defpoints
100
AcDbPoint
 10
275.0
 20
74.0
 30
0.0
  0
POINT
  5
C3
330
B7
100
AcDbEntity
  8
Defpoints
100
AcDbPoint
 10
275.0
 20
62.0
 30
0.0
  0
POINT
  5
C4
330
B7
100
AcDbEntity
  8
Defpoints
100
AcDbPoint
 10
345.0
 20
62.0
 30
0.0
  0
ENDBLK
  5
B9
330
B7
100
AcDbEntity
  8
0
100
AcDbBlockEnd
  0
BLOCK
  5
C7
330
C6
100
AcDbEntity
  8
0
100
AcDbBlockBegin
  2
*D10
 70
1
 10
0.0
 20
0.0
 30
0.0
  3
*D10
  1

  0
LINE
  5
C9
330
C6
100
AcDbEntity
  8
0
 62
7
100
AcDbLine
 10
348.0
 20
62.0
 30
0.0
 11
360.0
 21
62.0
 31
0.0
  0
LINE
  5
CA
330
C6
100
AcDbEntity
  8
0
 62
7
100
AcDbLine
 10
348.0
 20
102.0
 30
0.0
 11
360.0
 21
102.0
 31
0.0
  0
INSERT
  5
CB
330
C6
100
AcDbEntity
  8
0
 62
7
100
AcDbBlockReference
  2
_CLOSEDFILLED
 10
357.0
 20
62.0
 30
0.0
 41
6.0
 42
6.0
 50
270.0
  0
INSERT
  5
CD
330
C6
100
AcDbEntity
  8
0
 62
7
100
AcDbBlockReference
  2
_CLOSEDFILLED
 10
357.0
 20
102.0
 30
0.0
 41
6.0
 42
6.0
 50
90.0
  0
LINE
  5
CF
330
C6
100
AcDbEntity
  8
0
 62
7
100
AcDbLine
 10
357.0
 20
68.0
 30
0.0
 11
357.0
 21
96.0
 31
0.0
  0
MTEXT
  5
D0
330
C6
100
AcDbEntity
  8
0
 62
7
100
AcDbMText
 10
351.375
 20
82.0
 30
0.0
 40
10.0
 71
5
  1
40
 50
90.0
  0
POINT
  5
D1
330
C6
100
AcDbEntity
  8
Defpoints
100
AcDbPoint
 10
357.0
 20
62.0
 30
0.0
  0
POINT
  5
D2
330
C6
100
AcDbEntity
  8
Defpoints
100
AcDbPoint
 10
345.0
 20
62.0
 30
0.0
  0
POINT
  5
D3
330
C6
100
AcDbEntity
  8
Defpoints
100
AcDbPoint
 10
345.0
 20
102.0
 30
0.0
  0
ENDBLK
  5
C8
330
C6
100
AcDbEntity
  8
0
100
AcDbBlockEnd
  0
BLOCK
  5
D6
330
D5
100
AcDbEntity
  8
0
100
AcDbBlockBegin
  2
*D11
 70
1
 10
0.0
 20
0.0
 30
0.0
  3
*D11
  1

  0
LINE
  5
D8
330
D5
100
AcDbEntity
  8
0
 62
7
100
AcDbLine
 10
19.0
 20
719.0
 30
0.0
 11
19.0
 21
710.0
 31
0.0
  0
LINE
  5
D9
330
D5
100
AcDbEntity
  8
0
 62
7
100
AcDbLine
 10
209.0
 20
719.0
 30
0.0
 11
209.0
 21
710.0
 31
0.0
  0
INSERT
  5
DA
330
D5
100
AcDbEntity
  8
0
 62
7
100
AcDbBlockReference
  2
_CLOSEDFILLED
 10
19.0
 20
713.0
 30
0.0
 41
6.0
 42
6.0
 50
180.0
  0
INSERT
  5
DC
330
D5
100
AcDbEntity
  8
0
 62
7
100
AcDbBlockReference
  2
_CLOSEDFILLED
 10
209.0
 20
713.0
 30
0.0
 41
6.0
 42
6.0
  0
LINE
  5
DE
330
D5
100
AcDbEntity
  8
0
 62
7
100
AcDbLine
 10
25.0
 20
713.0
 30
0.0
 11
203.0
 21
713.0
 31
0.0
  0
MTEXT
  5
DF
330
D5
100
AcDbEntity
  8
0
 62
7
100
AcDbMText
 10
114.0
 20
718.625
 30
0.0
 40
10.0
 71
5
  1
190
  0
POINT
  5
E0
330
D5
100
AcDbEntity
  8
Defpoints
100
AcDbPoint
 10
19.0
 20
713.0
 30
0.0
  0
POINT
  5
E1
330
D5
100
AcDbEntity
  8
Defpoints
100
AcDbPoint
 10
19.0
 20
722.0
 30
0.0
  0
POINT
  5
E2
330
D5
100
AcDbEntity
  8
Defpoints
100
AcDbPoint
 10
209.0
 20
722.0
 30
0.0
  0
ENDBLK
  5
D7
330
D5
100
AcDbEntity
  8
0
100
AcDbBlockEnd
  0
BLOCK
  5
E5
330
E4
100
AcDbEntity
  8
0
100
AcDbBlockBegin
  2
*D12
 70
1
 10
0.0
 20
0.0
 30
0.0
  3
*D12
  1

  0
LINE
  5
E7
330
E4
100
AcDbEntity
  8
0
 62
7
100
AcDbLine
 10
411.0
 20
719.0
 30
0.0
 11
411.0
 21
710.0
 31
0.0
  0
LINE
  5
E8
330
E4
100
AcDbEntity
  8
0
 62
7
100
AcDbLine
 10
601.0
 20
719.0
 30
0.0
 11
601.0
 21
710.0
 31
0.0
  0
INSERT
  5
E9
330
E4
100
AcDbEntity
  8
0
 62
7
100
AcDbBlockReference
  2
_CLOSEDFILLED
 10
411.0
 20
713.0
 30
0.0
 41
6.0
 42
6.0
 50
180.0
  0
INSERT
  5
EB
330
E4
100
AcDbEntity
  8
0
 62
7
100
AcDbBlockReference
  2
_CLOSEDFILLED
 10
601.0
 20
713.0
 30
0.0
 41
6.0
 42
6.0
  0
LINE
  5
ED
330
E4
100
AcDbEntity
  8
0
 62
7
100
AcDbLine
 10
417.0
 20
713.0
 30
0.0
 11
595.0
 21
713.0
 31
0.0
  0
MTEXT
  5
EE
330
E4
100
AcDbEntity
  8
0
 62
7
100
AcDbMText
 10
506.0
 20
718.625
 30
0.0
 40
10.0
 71
5
  1
190
  0
POINT
  5
EF
330
E4
100
AcDbEntity
  8
Defpoints
100
AcDbPoint
 10
411.0
 20
713.0
 30
0.0
  0
POINT
  5
F0
330
E4
100
AcDbEntity
  8
Defpoints
100
AcDbPoint
 10
411.0
 20
722.0
 30
0.0
  0
POINT
  5
F1
330
E4
100
AcDbEntity
  8
Defpoints
100
AcDbPoint
 10
601.0
 20
722.0
 30
0.0
  0
ENDBLK
  5
E6
330
E4
100
AcDbEntity
  8
0
100
AcDbBlockEnd
  0
BLOCK
  5
F4
330
F3
100
AcDbEntity
  8
0
100
AcDbBlockBegin
  2
*D13
 70
1
 10
0.0
 20
0.0
 30
0.0
  3
*D13
  1

  0
LINE
  5
F6
330
F3
100
AcDbEntity
  8
0
 62
7
100
AcDbLine
 10
313.0
 20
902.0
 30
0.0
 11
322.0
 21
902.0
 31
0.0
  0
LINE
  5
F7
330
F3
100
AcDbEntity
  8
0
 62
7
100
AcDbLine
 10
313.0
 20
1072.0
 30
0.0
 11
322.0
 21
1072.0
 31
0.0
  0
INSERT
  5
F8
330
F3
100
AcDbEntity
  8
0
 62
7
100
AcDbBlockReference
  2
_CLOSEDFILLED
 10
319.0
 20
902.0
 30
0.0
 41
6.0
 42
6.0
 50
270.0
  0
INSERT
  5
FA
330
F3
100
AcDbEntity
  8
0
 62
7
100
AcDbBlockReference
  2
_CLOSEDFILLED
 10
319.0
 20
1072.0
 30
0.0
 41
6.0
 42
6.0
 50
90.0
  0
LINE
  5
FC
330
F3
100
AcDbEntity
  8
0
 62
7
100
AcDbLine
 10
319.0
 20
908.0
 30
0.0
 11
319.0
 21
1066.0
 31
0.0
  0
MTEXT
  5
FD
330
F3
100
AcDbEntity
  8
0
 62
7
100
AcDbMText
 10
313.375
 20
987.0
 30
0.0
 40
10.0
 71
5
  1
170
 50
90.0
  0
POINT
  5
FE
330
F3
100
AcDbEntity
  8
Defpoints
100
AcDbPoint
 10
319.0
 20
902.0
 30
0.0
  0
POINT
  5
FF
330
F3
100
AcDbEntity
  8
Defpoints
100
AcDbPoint
 10
310.0
 20
902.0
 30
0.0
  0
POINT
  5
100
330
F3
100
AcDbEntity
  8
Defpoints
100
AcDbPoint
 10
310.0
 20
1072.0
 30
0.0
  0
ENDBLK
  5
F5
330
F3
100
AcDbEntity
  8
0
100
AcDbBlockEnd
  0
BLOCK
  5
103
330
102
100
AcDbEntity
  8
0
100
AcDbBlockBegin
  2
*D14
 70
1
 10
0.0
 20
0.0
 30
0.0
  3
*D14
  1

  0
LINE
  5
105
330
102
100
AcDbEntity
  8
0
 62
7
100
AcDbLine
 10
313.0
 20
12.0
 30
0.0
 11
322.0
 21
12.0
 31
0.0
  0
LINE
  5
106
330
102
100
AcDbEntity
  8
0
 62
7
100
AcDbLine
 10
313.0
 20
542.0
 30
0.0
 11
322.0
 21
542.0
 31
0.0
  0
INSERT
  5
107
330
102
100
AcDbEntity
  8
0
 62
7
100
AcDbBlockReference
  2
_CLOSEDFILLED
 10
319.0
 20
12.0
 30
0.0
 41
6.0
 42
6.0
 50
270.0
  0
INSERT
  5
109
330
102
100
AcDbEntity
  8
0
 62
7
100
AcDbBlockReference
  2
_CLOSEDFILLED
 10
319.0
 20
542.0
 30
0.0
 41
6.0
 42
6.0
 50
90.0
  0
LINE
  5
10B
330
102
100
AcDbEntity
  8
0
 62
7
100
AcDbLine
 10
319.0
 20
18.0
 30
0.0
 11
319.0
 21
536.0
 31
0.0
  0
MTEXT
  5
10C
330
102
100
AcDbEntity
  8
0
 62
7
100
AcDbMText
 10
313.375
 20
277.0
 30
0.0
 40
10.0
 71
5
  1
530
 50
90.0
  0
POINT
  5
10D
330
102
100
AcDbEntity
  8
Defpoints
100
AcDbPoint
 10
319.0
 20
12.0
 30
0.0
  0
POINT
  5
10E
330
102
100
AcDbEntity
  8
Defpoints
100
AcDbPoint
 10
310.0
 20
12.0
 30
0.0
  0
POINT
  5
10F
330
102
100
AcDbEntity
  8
Defpoints
100
AcDbPoint
 10
310.0
 20
542.0
 30
0.0
  0
ENDBLK
  5
104
330
102
100
AcDbEntity
  8
0
100
AcDbBlockEnd
  0
BLOCK
  5
112
330
111
100
AcDbEntity
  8
0
100
AcDbBlockBegin
  2
*D15
 70
1
 10
0.0
 20
0.0
 30
0.0
  3
*D15
  1

  0
LINE
  5
114
330
111
100
AcDbEntity
  8
0
 62
7
100
AcDbLine
 10
19.0
 20
545.0
 30
0.0
 11
19.0
 21
551.0
 31
0.0
  0
LINE
  5
115
330
111
100
AcDbEntity
  8
0
 62
7
100
AcDbLine
 10
49.0
 20
545.0
 30
0.0
 11
49.0
 21
551.0
 31
0.0
  0
INSERT
  5
116
330
111
100
AcDbEntity
  8
0
 62
7
100
AcDbBlockReference
  2
_CLOSEDFILLED
 10
19.0
 20
548.0
 30
0.0
 41
6.0
 42
6.0
 50
180.0
  0
INSERT
  5
118
330
111
100
AcDbEntity
  8
0
 62
7
100
AcDbBlockReference
  2
_CLOSEDFILLED
 10
49.0
 20
548.0
 30
0.0
 41
6.0
 42
6.0
  0
LINE
  5
11A
330
111
100
AcDbEntity
  8
0
 62
7
100
AcDbLine
 10
25.0
 20
548.0
 30
0.0
 11
43.0
 21
548.0
 31
0.0
  0
MTEXT
  5
11B
330
111
100
AcDbEntity
  8
0
 62
7
100
AcDbMText
 10
34.0
 20
553.625
 30
0.0
 40
10.0
 71
5
  1
30
  0
POINT
  5
11C
330
111
100
AcDbEntity
  8
Defpoints
100
AcDbPoint
 10
19.0
 20
548.0
 30
0.0
  0
POINT
  5
11D
330
111
100
AcDbEntity
  8
Defpoints
100
AcDbPoint
 10
19.0
 20
542.0
 30
0.0
  0
POINT
  5
11E
330
111
100
AcDbEntity
  8
Defpoints
100
AcDbPoint
 10
49.0
 20
542.0
 30
0.0
  0
ENDBLK
  5
113
330
111
100
AcDbEntity
  8
0
100
AcDbBlockEnd
  0
BLOCK
  5
121
330
120
100
AcDbEntity
  8
0
100
AcDbBlockBegin
  2
*D16
 70
1
 10
0.0
 20
0.0
 30
0.0
  3
*D16
  1

  0
LINE
  5
123
330
120
100
AcDbEntity
  8
0
 62
7
100
AcDbLine
 10
64.5
 20
598.0
 30
0.0
 11
70.5
 21
598.0
 31
0.0
  0
LINE
  5
124
330
120
100
AcDbEntity
  8
0
 62
7
100
AcDbLine
 10
64.5
 20
1072.0
 30
0.0
 11
70.5
 21
1072.0
 31
0.0
  0
INSERT
  5
125
330
120
100
AcDbEntity
  8
0
 62
7
100
AcDbBlockReference
  2
_CLOSEDFILLED
 10
67.5
 20
598.0
 30
0.0
 41
6.0
 42
6.0
 50
270.0
  0
INSERT
  5
127
330
120
100
AcDbEntity
  8
0
 62
7
100
AcDbBlockReference
  2
_CLOSEDFILLED
 10
67.5
 20
1072.0
 30
0.0
 41
6.0
 42
6.0
 50
90.0
  0
LINE
  5
129
330
120
100
AcDbEntity
  8
0
 62
7
100
AcDbLine
 10
67.5
 20
604.0
 30
0.0
 11
67.5
 21
1066.0
 31
0.0
  0
MTEXT
  5
12A
330
120
100
AcDbEntity
  8
0
 62
7
100
AcDbMText
 10
61.875
 20
835.0
 30
0.0
 40
10.0
 71
5
  1
474
 50
90.0
  0
POINT
  5
12B
330
120
100
AcDbEntity
  8
Defpoints
100
AcDbPoint
 10
67.5
 20
598.0
 30
0.0
  0
POINT
  5
12C
330
120
100
AcDbEntity
  8
Defpoints
100
AcDbPoint
 10
61.5
 20
598.0
 30
0.0
  0
POINT
  5
12D
330
120
100
AcDbEntity
  8
Defpoints
100
AcDbPoint
 10
61.5
 20
1072.0
 30
0.0
  0
ENDBLK
  5
122
330
120
100
AcDbEntity
  8
0
100
AcDbBlockEnd
  0
BLOCK
  5
130
330
12F
100
AcDbEntity
  8
0
100
AcDbBlockBegin
  2
*D17
 70
1
 10
0.0
 20
0.0
 30
0.0
  3
*D17
  1

  0
LINE
  5
132
330
12F
100
AcDbEntity
  8
0
 62
7
100
AcDbLine
 10
64.5
 20
12.0
 30
0.0
 11
70.5
 21
12.0
 31
0.0
  0
LINE
  5
133
330
12F
100
AcDbEntity
  8
0
 62
7
100
AcDbLine
 10
64.5
 20
486.0
 30
0.0
 11
70.5
 21
486.0
 31
0.0
  0
INSERT
  5
134
330
12F
100
AcDbEntity
  8
0
 62
7
100
AcDbBlockReference
  2
_CLOSEDFILLED
 10
67.5
 20
12.0
 30
0.0
 41
6.0
 42
6.0
 50
270.0
  0
INSERT
  5
136
330
12F
100
AcDbEntity
  8
0
 62
7
100
AcDbBlockReference
  2
_CLOSEDFILLED
 10
67.5
 20
486.0
 30
0.0
 41
6.0
 42
6.0
 50
90.0
  0
LINE
  5
138
330
12F
100
AcDbEntity
  8
0
 62
7
100
AcDbLine
 10
67.5
 20
18.0
 30
0.0
 11
67.5
 21
480.0
 31
0.0
  0
MTEXT
  5
139
330
12F
100
AcDbEntity
  8
0
 62
7
100
AcDbMText
 10
61.875
 20
249.0
 30
0.0
 40
10.0
 71
5
  1
474
 50
90.0
  0
POINT
  5
13A
330
12F
100
AcDbEntity
  8
Defpoints
100
AcDbPoint
 10
67.5
 20
12.0
 30
0.0
  0
POINT
  5
13B
330
12F
100
AcDbEntity
  8
Defpoints
100
AcDbPoint
 10
61.5
 20
12.0
 30
0.0
  0
POINT
  5
13C
330
12F
100
AcDbEntity
  8
Defpoints
100
AcDbPoint
 10
61.5
 20
486.0
 30
0.0
  0
ENDBLK
  5
131
330
12F
100
AcDbEntity
  8
0
100
AcDbBlockEnd
  0
BLOCK
  5
13F
330
13E
100
AcDbEntity
  8
0
100
AcDbBlockBegin
  2
*D18
 70
1
 10
0.0
 20
0.0
 30
0.0
  3
*D18
  1

  0
LINE
  5
141
330
13E
100
AcDbEntity
  8
0
 62
7
100
AcDbLine
 10
19.0
 20
85.0
 30
0.0
 11
19.0
 21
91.0
 31
0.0
  0
LINE
  5
142
330
13E
100
AcDbEntity
  8
0
 62
7
100
AcDbLine
 10
275.0
 20
85.0
 30
0.0
 11
275.0
 21
91.0
 31
0.0
  0
INSERT
  5
143
330
13E
100
AcDbEntity
  8
0
 62
7
100
AcDbBlockReference
  2
_CLOSEDFILLED
 10
19.0
 20
88.0
 30
0.0
 41
6.0
 42
6.0
 50
180.0
  0
INSERT
  5
145
330
13E
100
AcDbEntity
  8
0
 62
7
100
AcDbBlockReference
  2
_CLOSEDFILLED
 10
275.0
 20
88.0
 30
0.0
 41
6.0
 42
6.0
  0
LINE
  5
147
330
13E
100
AcDbEntity
  8
0
 62
7
100
AcDbLine
 10
25.0
 20
88.0
 30
0.0
 11
269.0
 21
88.0
 31
0.0
  0
MTEXT
  5
148
330
13E
100
AcDbEntity
  8
0
 62
7
100
AcDbMText
 10
147.0
 20
93.625
 30
0.0
 40
10.0
 71
5
  1
256
  0
POINT
  5
149
330
13E
100
AcDbEntity
  8
Defpoints
100
AcDbPoint
 10
19.0
 20
88.0
 30
0.0
  0
POINT
  5
14A
330
13E
100
AcDbEntity
  8
Defpoints
100
AcDbPoint
 10
19.0
 20
82.0
 30
0.0
  0
POINT
  5
14B
330
13E
100
AcDbEntity
  8
Defpoints
100
AcDbPoint
 10
275.0
 20
82.0
 30
0.0
  0
ENDBLK
  5
140
330
13E
100
AcDbEntity
  8
0
100
AcDbBlockEnd
  0
BLOCK
  5
14E
330
14D
100
AcDbEntity
  8
0
100
AcDbBlockBegin
  2
*D19
 70
1
 10
0.0
 20
0.0
 30
0.0
  3
*D19
  1

  0
LINE
  5
150
330
14D
100
AcDbEntity
  8
0
 62
7
100
AcDbLine
 10
345.0
 20
85.0
 30
0.0
 11
345.0
 21
91.0
 31
0.0
  0
LINE
  5
151
330
14D
100
AcDbEntity
  8
0
 62
7
100
AcDbLine
 10
601.0
 20
85.0
 30
0.0
 11
601.0
 21
91.0
 31
0.0
  0
INSERT
  5
152
330
14D
100
AcDbEntity
  8
0
 62
7
100
AcDbBlockReference
  2
_CLOSEDFILLED
 10
345.0
 20
88.0
 30
0.0
 41
6.0
 42
6.0
 50
180.0
  0
INSERT
  5
154
330
14D
100
AcDbEntity
  8
0
 62
7
100
AcDbBlockReference
  2
_CLOSEDFILLED
 10
601.0
 20
88.0
 30
0.0
 41
6.0
 42
6.0
  0
LINE
  5
156
330
14D
100
AcDbEntity
  8
0
 62
7
100
AcDbLine
 10
351.0
 20
88.0
 30
0.0
 11
595.0
 21
88.0
 31
0.0
  0
MTEXT
  5
157
330
14D
100
AcDbEntity
  8
0
 62
7
100
AcDbMText
 10
473.0
 20
93.625
 30
0.0
 40
10.0
 71
5
  1
256
  0
POINT
  5
158
330
14D
100
AcDbEntity
  8
Defpoints
100
AcDbPoint
 10
345.0
 20
88.0
 30
0.0
  0
POINT
  5
159
330
14D
100
AcDbEntity
  8
Defpoints
100
AcDbPoint
 10
345.0
 20
82.0
 30
0.0
  0
POINT
  5
15A
330
14D
100
AcDbEntity
  8
Defpoints
100
AcDbPoint
 10
601.0
 20
82.0
 30
0.0
  0
ENDBLK
  5
14F
330
14D
100
AcDbEntity
  8
0
100
AcDbBlockEnd
  0
BLOCK
  5
15D
330
15C
100
AcDbEntity
  8
0
100
AcDbBlockBegin
  2
*D20
 70
1
 10
0.0
 20
0.0
 30
0.0
  3
*D20
  1

  0
LINE
  5
15F
330
15C
100
AcDbEntity
  8
0
 62
7
100
AcDbLine
 10
313.0
 20
12.0
 30
0.0
 11
319.0
 21
12.0
 31
0.0
  0
LINE
  5
160
330
15C
100
AcDbEntity
  8
0
 62
7
100
AcDbLine
 10
313.0
 20
62.0
 30
0.0
 11
319.0
 21
62.0
 31
0.0
  0
INSERT
  5
161
330
15C
100
AcDbEntity
  8
0
 62
7
100
AcDbBlockReference
  2
_CLOSEDFILLED
 10
316.0
 20
12.0
 30
0.0
 41
6.0
 42
6.0
 50
270.0
  0
INSERT
  5
163
330
15C
100
AcDbEntity
  8
0
 62
7
100
AcDbBlockReference
  2
_CLOSEDFILLED
 10
316.0
 20
62.0
 30
0.0
 41
6.0
 42
6.0
 50
90.0
  0
LINE
  5
165
330
15C
100
AcDbEntity
  8
0
 62
7
100
AcDbLine
 10
316.0
 20
18.0
 30
0.0
 11
316.0
 21
56.0
 31
0.0
  0
MTEXT
  5
166
330
15C
100
AcDbEntity
  8
0
 62
7
100
AcDbMText
 10
310.375
 20
37.0
 30
0.0
 40
10.0
 71
5
  1
50
 50
90.0
  0
POINT
  5
167
330
15C
100
AcDbEntity
  8
Defpoints
100
AcDbPoint
 10
316.0
 20
12.0
 30
0.0
  0
POINT
  5
168
330
15C
100
AcDbEntity
  8
Defpoints
100
AcDbPoint
 10
310.0
 20
12.0
 30
0.0
  0
POINT
  5
169
330
15C
100
AcDbEntity
  8
Defpoints
100
AcDbPoint
 10
310.0
 20
62.0
 30
0.0
  0
ENDBLK
  5
15E
330
15C
100
AcDbEntity
  8
0
100
AcDbBlockEnd
  0
BLOCK
  5
16C
330
16B
100
AcDbEntity
  8
0
100
AcDbBlockBegin
  2
*D21
 70
1
 10
0.0
 20
0.0
 30
0.0
  3
*D21
  1

  0
INSERT
  5
16E
330
16B
100
AcDbEntity
  8
0
100
AcDbBlockReference
  2
_CLOSEDFILLED
 10
51.22182540694798
 20
914.221825406948
 30
0.0
 41
0.25
 42
0.25
 50
44.99999999999983
  0
INSERT
  5
170
330
16B
100
AcDbEntity
  8
0
100
AcDbBlockReference
  2
_CLOSEDFILLED
 10
66.77817459305203
 20
929.778174593052
 30
0.0
 41
0.25
 42
0.25
 50
44.99999999999983
  0
LINE
  5
172
330
16B
100
AcDbEntity
  8
0
100
AcDbLine
 10
51.04504871165134
 20
914.0450487116514
 30
0.0
 11
66.60139789775539
 21
929.6013978977553
 31
0.0
  0
LINE
  5
173
330
16B
100
AcDbEntity
  8
0
100
AcDbLine
 10
50.603106973409766
 20
913.6031069734098
 30
0.0
 11
51.04504871165134
 21
914.0450487116514
 31
0.0
  0
MTEXT
  5
174
330
16B
100
AcDbEntity
  8
0
100
AcDbMText
 10
49.54244680162992
 20
912.54244680163
 30
0.0
 40
1.0
 71
5
  1
%%c22
 50
44.99999999999983
  0
POINT
  5
175
330
16B
100
AcDbEntity
  8
Defpoints
100
AcDbPoint
 10
59.0
 20
922.0
 30
0.0
  0
POINT
  5
176
330
16B
100
AcDbEntity
  8
Defpoints
100
AcDbPoint
 10
51.22182540694798
 20
914.221825406948
 30
0.0
  0
ENDBLK
  5
16D
330
16B
100
AcDbEntity
  8
0
100
AcDbBlockEnd
  0
BLOCK
  5
179
330
178
100
AcDbEntity
  8
0
100
AcDbBlockBegin
  2
*D22
 70
1
 10
0.0
 20
0.0
 30
0.0
  3
*D22
  1

  0
LINE
  5
17B
330
178
100
AcDbEntity
  8
0
 62
7
100
AcDbLine
 10
19.0
 20
925.0
 30
0.0
 11
19.0
 21
931.0
 31
0.0
  0
LINE
  5
17C
330
178
100
AcDbEntity
  8
0
 62
7
100
AcDbLine
 10
59.0
 20
925.0
 30
0.0
 11
59.0
 21
931.0
 31
0.0
  0
INSERT
  5
17D
330
178
100
AcDbEntity
  8
0
 62
7
100
AcDbBlockReference
  2
_CLOSEDFILLED
 10
19.0
 20
928.0
 30
0.0
 41
6.0
 42
6.0
 50
180.0
  0
INSERT
  5
17F
330
178
100
AcDbEntity
  8
0
 62
7
100
AcDbBlockReference
  2
_CLOSEDFILLED
 10
59.0
 20
928.0
 30
0.0
 41
6.0
 42
6.0
  0
LINE
  5
181
330
178
100
AcDbEntity
  8
0
 62
7
100
AcDbLine
 10
25.0
 20
928.0
 30
0.0
 11
53.0
 21
928.0
 31
0.0
  0
MTEXT
  5
182
330
178
100
AcDbEntity
  8
0
 62
7
100
AcDbMText
 10
39.0
 20
933.625
 30
0.0
 40
10.0
 71
5
  1
40
  0
POINT
  5
183
330
178
100
AcDbEntity
  8
Defpoints
100
AcDbPoint
 10
19.0
 20
928.0
 30
0.0
  0
POINT
  5
184
330
178
100
AcDbEntity
  8
Defpoints
100
AcDbPoint
 10
19.0
 20
922.0
 30
0.0
  0
POINT
  5
185
330
178
100
AcDbEntity
  8
Defpoints
100
AcDbPoint
 10
59.0
 20
922.0
 30
0.0
  0
ENDBLK
  5
17A
330
178
100
AcDbEntity
  8
0
100
AcDbBlockEnd
  0
BLOCK
  5
188
330
187
100
AcDbEntity
  8
0
100
AcDbBlockBegin
  2
*D23
 70
1
 10
0.0
 20
0.0
 30
0.0
  3
*D23
  1

  0
LINE
  5
18A
330
187
100
AcDbEntity
  8
0
 62
7
100
AcDbLine
 10
56.0
 20
922.0
 30
0.0
 11
50.0
 21
922.0
 31
0.0
  0
LINE
  5
18B
330
187
100
AcDbEntity
  8
0
 62
7
100
AcDbLine
 10
56.0
 20
1072.0
 30
0.0
 11
50.0
 21
1072.0
 31
0.0
  0
INSERT
  5
18C
330
187
100
AcDbEntity
  8
0
 62
7
100
AcDbBlockReference
  2
_CLOSEDFILLED
 10
53.0
 20
922.0
 30
0.0
 41
6.0
 42
6.0
 50
270.0
  0
INSERT
  5
18E
330
187
100
AcDbEntity
  8
0
 62
7
100
AcDbBlockReference
  2
_CLOSEDFILLED
 10
53.0
 20
1072.0
 30
0.0
 41
6.0
 42
6.0
 50
90.0
  0
LINE
  5
190
330
187
100
AcDbEntity
  8
0
 62
7
100
AcDbLine
 10
53.0
 20
928.0
 30
0.0
 11
53.0
 21
1066.0
 31
0.0
  0
MTEXT
  5
191
330
187
100
AcDbEntity
  8
0
 62
7
100
AcDbMText
 10
47.375
 20
997.0
 30
0.0
 40
10.0
 71
5
  1
150
 50
90.0
  0
POINT
  5
192
330
187
100
AcDbEntity
  8
Defpoints
100
AcDbPoint
 10
53.0
 20
922.0
 30
0.0
  0
POINT
  5
193
330
187
100
AcDbEntity
  8
Defpoints
100
AcDbPoint
 10
59.0
 20
922.0
 30
0.0
  0
POINT
  5
194
330
187
100
AcDbEntity
  8
Defpoints
100
AcDbPoint
 10
59.0
 20
1072.0
 30
0.0
  0
ENDBLK
  5
189
330
187
100
AcDbEntity
  8
0
100
AcDbBlockEnd
  0
BLOCK
  5
197
330
196
100
AcDbEntity
  8
0
100
AcDbBlockBegin
  2
*D24
 70
1
 10
0.0
 20
0.0
 30
0.0
  3
*D24
  1

  0
INSERT
  5
199
330
196
100
AcDbEntity
  8
0
100
AcDbBlockReference
  2
_CLOSEDFILLED
 10
51.22182540694798
 20
154.22182540694797
 30
0.0
 41
0.25
 42
0.25
 50
45.00000000000003
  0
INSERT
  5
19B
330
196
100
AcDbEntity
  8
0
100
AcDbBlockReference
  2
_CLOSEDFILLED
 10
66.77817459305203
 20
169.77817459305203
 30
0.0
 41
0.25
 42
0.25
 50
45.00000000000003
  0
LINE
  5
19D
330
196
100
AcDbEntity
  8
0
100
AcDbLine
 10
51.04504871165134
 20
154.04504871165133
 30
0.0
 11
66.60139789775539
 21
169.6013978977554
 31
0.0
  0
LINE
  5
19E
330
196
100
AcDbEntity
  8
0
100
AcDbLine
 10
50.60310697340976
 20
153.60310697340975
 30
0.0
 11
51.04504871165134
 21
154.04504871165133
 31
0.0
  0
MTEXT
  5
19F
330
196
100
AcDbEntity
  8
0
100
AcDbMText
 10
49.54244680162993
 20
152.54244680162992
 30
0.0
 40
1.0
 71
5
  1
%%c22
 50
45.00000000000003
  0
POINT
  5
1A0
330
196
100
AcDbEntity
  8
Defpoints
100
AcDbPoint
 10
59.0
 20
162.0
 30
0.0
  0
POINT
  5
1A1
330
196
100
AcDbEntity
  8
Defpoints
100
AcDbPoint
 10
51.22182540694798
 20
154.22182540694797
 30
0.0
  0
ENDBLK
  5
198
330
196
100
AcDbEntity
  8
0
100
AcDbBlockEnd
  0
BLOCK
  5
1A4
330
1A3
100
AcDbEntity
  8
0
100
AcDbBlockBegin
  2
*D25
 70
1
 10
0.0
 20
0.0
 30
0.0
  3
*D25
  1

  0
LINE
  5
1A6
330
1A3
100
AcDbEntity
  8
0
 62
7
100
AcDbLine
 10
19.0
 20
165.0
 30
0.0
 11
19.0
 21
171.0
 31
0.0
  0
LINE
  5
1A7
330
1A3
100
AcDbEntity
  8
0
 62
7
100
AcDbLine
 10
59.0
 20
165.0
 30
0.0
 11
59.0
 21
171.0
 31
0.0
  0
INSERT
  5
1A8
330
1A3
100
AcDbEntity
  8
0
 62
7
100
AcDbBlockReference
  2
_CLOSEDFILLED
 10
19.0
 20
168.0
 30
0.0
 41
6.0
 42
6.0
 50
180.0
  0
INSERT
  5
1AA
330
1A3
100
AcDbEntity
  8
0
 62
7
100
AcDbBlockReference
  2
_CLOSEDFILLED
 10
59.0
 20
168.0
 30
0.0
 41
6.0
 42
6.0
  0
LINE
  5
1AC
330
1A3
100
AcDbEntity
  8
0
 62
7
100
AcDbLine
 10
25.0
 20
168.0
 30
0.0
 11
53.0
 21
168.0
 31
0.0
  0
MTEXT
  5
1AD
330
1A3
100
AcDbEntity
  8
0
 62
7
100
AcDbMText
 10
39.0
 20
173.625
 30
0.0
 40
10.0
 71
5
  1
40
  0
POINT
  5
1AE
330
1A3
100
AcDbEntity
  8
Defpoints
100
AcDbPoint
 10
19.0
 20
168.0
 30
0.0
  0
POINT
  5
1AF
330
1A3
100
AcDbEntity
  8
Defpoints
100
AcDbPoint
 10
19.0
 20
162.0
 30
0.0
  0
POINT
  5
1B0
330
1A3
100
AcDbEntity
  8
Defpoints
100
AcDbPoint
 10
59.0
 20
162.0
 30
0.0
  0
ENDBLK
  5
1A5
330
1A3
100
AcDbEntity
  8
0
100
AcDbBlockEnd
  0
BLOCK
  5
1B3
330
1B2
100
AcDbEntity
  8
0
100
AcDbBlockBegin
  2
*D26
 70
1
 10
0.0
 20
0.0
 30
0.0
  3
*D26
  1

  0
LINE
  5
1B5
330
1B2
100
AcDbEntity
  8
0
 62
7
100
AcDbLine
 10
56.0
 20
12.0
 30
0.0
 11
50.0
 21
12.0
 31
0.0
  0
LINE
  5
1B6
330
1B2
100
AcDbEntity
  8
0
 62
7
100
AcDbLine
 10
56.0
 20
162.0
 30
0.0
 11
50.0
 21
162.0
 31
0.0
  0
INSERT
  5
1B7
330
1B2
100
AcDbEntity
  8
0
 62
7
100
AcDbBlockReference
  2
_CLOSEDFILLED
 10
53.0
 20
12.0
 30
0.0
 41
6.0
 42
6.0
 50
270.0
  0
INSERT
  5
1B9
330
1B2
100
AcDbEntity
  8
0
 62
7
100
AcDbBlockReference
  2
_CLOSEDFILLED
 10
53.0
 20
162.0
 30
0.0
 41
6.0
 42
6.0
 50
90.0
  0
LINE
  5
1BB
330
1B2
100
AcDbEntity
  8
0
 62
7
100
AcDbLine
 10
53.0
 20
18.0
 30
0.0
 11
53.0
 21
156.0
 31
0.0
  0
MTEXT
  5
1BC
330
1B2
100
AcDbEntity
  8
0
 62
7
100
AcDbMText
 10
47.375
 20
87.0
 30
0.0
 40
10.0
 71
5
  1
150
 50
90.0
  0
POINT
  5
1BD
330
1B2
100
AcDbEntity
  8
Defpoints
100
AcDbPoint
 10
53.0
 20
12.0
 30
0.0
  0
POINT
  5
1BE
330
1B2
100
AcDbEntity
  8
Defpoints
100
AcDbPoint
 10
59.0
 20
12.0
 30
0.0
  0
POINT
  5
1BF
330
1B2
100
AcDbEntity
  8
Defpoints
100
AcDbPoint
 10
59.0
 20
162.0
 30
0.0
  0
ENDBLK
  5
1B4
330
1B2
100
AcDbEntity
  8
0
100
AcDbBlockEnd
  0
BLOCK
  5
1C2
330
1C1
100
AcDbEntity
  8
0
100
AcDbBlockBegin
  2
*D27
 70
1
 10
0.0
 20
0.0
 30
0.0
  3
*D27
  1

  0
LINE
  5
1C4
330
1C1
100
AcDbEntity
  8
0
 62
7
100
AcDbLine
 10
0.0
 20
53.0
 30
0.0
 11
0.0
 21
59.0
 31
0.0
  0
LINE
  5
1C5
330
1C1
100
AcDbEntity
  8
0
 62
7
100
AcDbLine
 10
19.0
 20
53.0
 30
0.0
 11
19.0
 21
59.0
 31
0.0
  0
INSERT
  5
1C6
330
1C1
100
AcDbEntity
  8
0
 62
7
100
AcDbBlockReference
  2
_CLOSEDFILLED
 10
0.0
 20
56.0
 30
0.0
 41
6.0
 42
6.0
 50
180.0
  0
INSERT
  5
1C8
330
1C1
100
AcDbEntity
  8
0
 62
7
100
AcDbBlockReference
  2
_CLOSEDFILLED
 10
19.0
 20
56.0
 30
0.0
 41
6.0
 42
6.0
  0
LINE
  5
1CA
330
1C1
100
AcDbEntity
  8
0
 62
7
100
AcDbLine
 10
6.0
 20
56.0
 30
0.0
 11
13.0
 21
56.0
 31
0.0
  0
MTEXT
  5
1CB
330
1C1
100
AcDbEntity
  8
0
 62
7
100
AcDbMText
 10
9.5
 20
64.625
 30
0.0
 40
10.0
 71
5
  1
19
  0
POINT
  5
1CC
330
1C1
100
AcDbEntity
  8
Defpoints
100
AcDbPoint
 10
0.0
 20
56.0
 30
0.0
  0
POINT
  5
1CD
330
1C1
100
AcDbEntity
  8
Defpoints
100
AcDbPoint
 10
0.0
 20
50.0
 30
0.0
  0
POINT
  5
1CE
330
1C1
100
AcDbEntity
  8
Defpoints
100
AcDbPoint
 10
19.0
 20
50.0
 30
0.0
  0
ENDBLK
  5
1C3
330
1C1
100
AcDbEntity
  8
0
100
AcDbBlockEnd
  0
BLOCK
  5
1D1
330
1D0
100
AcDbEntity
  8
0
100
AcDbBlockBegin
  2
*D28
 70
1
 10
0.0
 20
0.0
 30
0.0
  3
*D28
  1

  0
LINE
  5
1D3
330
1D0
100
AcDbEntity
  8
0
 62
7
100
AcDbLine
 10
601.0
 20
1031.0
 30
0.0
 11
601.0
 21
1005.0
 31
0.0
  0
LINE
  5
1D4
330
1D0
100
AcDbEntity
  8
0
 62
7
100
AcDbLine
 10
613.0
 20
1031.0
 30
0.0
 11
613.0
 21
1005.0
 31
0.0
  0
INSERT
  5
1D5
330
1D0
100
AcDbEntity
  8
0
 62
7
100
AcDbBlockReference
  2
_CLOSEDFILLED
 10
601.0
 20
1008.0
 30
0.0
 41
6.0
 42
6.0
  0
INSERT
  5
1D7
330
1D0
100
AcDbEntity
  8
0
 62
7
100
AcDbBlockReference
  2
_CLOSEDFILLED
 10
613.0
 20
1008.0
 30
0.0
 41
6.0
 42
6.0
 50
180.0
  0
LINE
  5
1D9
330
1D0
100
AcDbEntity
  8
0
 62
7
100
AcDbLine
 10
595.0
 20
1008.0
 30
0.0
 11
589.0
 21
1008.0
 31
0.0
  0
LINE
  5
1DA
330
1D0
100
AcDbEntity
  8
0
 62
7
100
AcDbLine
 10
619.0
 20
1008.0
 30
0.0
 11
625.0
 21
1008.0
 31
0.0
  0
LINE
  5
1DB
330
1D0
100
AcDbEntity
  8
0
 62
7
100
AcDbLine
 10
601.0
 20
1008.0
 30
0.0
 11
613.0
 21
1008.0
 31
0.0
  0
MTEXT
  5
1DC
330
1D0
100
AcDbEntity
  8
0
 62
7
100
AcDbMText
 10
607.0
 20
1016.625
 30
0.0
 40
10.0
 71
5
  1
12
  0
POINT
  5
1DD
330
1D0
100
AcDbEntity
  8
Defpoints
100
AcDbPoint
 10
601.0
 20
1008.0
 30
0.0
  0
POINT
  5
1DE
330
1D0
100
AcDbEntity
  8
Defpoints
100
AcDbPoint
 10
601.0
 20
1034.0
 30
0.0
  0
POINT
  5
1DF
330
1D0
100
AcDbEntity
  8
Defpoints
100
AcDbPoint
 10
613.0
 20
1034.0
 30
0.0
  0
ENDBLK
  5
1D2
330
1D0
100
AcDbEntity
  8
0
100
AcDbBlockEnd
  0
BLOCK
  5
1E2
330
1E1
100
AcDbEntity
  8
0
100
AcDbBlockBegin
  2
*D29
 70
1
 10
0.0
 20
0.0
 30
0.0
  3
*D29
  1

  0
LINE
  5
1E4
330
1E1
100
AcDbEntity
  8
0
 62
7
100
AcDbLine
 10
566.0
 20
1072.0
 30
0.0
 11
592.0
 21
1072.0
 31
0.0
  0
LINE
  5
1E5
330
1E1
100
AcDbEntity
  8
0
 62
7
100
AcDbLine
 10
566.0
 20
1084.0
 30
0.0
 11
592.0
 21
1084.0
 31
0.0
  0
INSERT
  5
1E6
330
1E1
100
AcDbEntity
  8
0
 62
7
100
AcDbBlockReference
  2
_CLOSEDFILLED
 10
589.0
 20
1072.0
 30
0.0
 41
6.0
 42
6.0
 50
90.0
  0
INSERT
  5
1E8
330
1E1
100
AcDbEntity
  8
0
 62
7
100
AcDbBlockReference
  2
_CLOSEDFILLED
 10
589.0
 20
1084.0
 30
0.0
 41
6.0
 42
6.0
 50
270.0
  0
LINE
  5
1EA
330
1E1
100
AcDbEntity
  8
0
 62
7
100
AcDbLine
 10
589.0
 20
1066.0
 30
0.0
 11
589.0
 21
1060.0
 31
0.0
  0
LINE
  5
1EB
330
1E1
100
AcDbEntity
  8
0
 62
7
100
AcDbLine
 10
589.0
 20
1090.0
 30
0.0
 11
589.0
 21
1096.0
 31
0.0
  0
LINE
  5
1EC
330
1E1
100
AcDbEntity
  8
0
 62
7
100
AcDbLine
 10
589.0
 20
1072.0
 30
0.0
 11
589.0
 21
1084.0
 31
0.0
  0
MTEXT
  5
1ED
330
1E1
100
AcDbEntity
  8
0
 62
7
100
AcDbMText
 10
580.375
 20
1078.0
 30
0.0
 40
10.0
 71
5
  1
12
 50
90.0
  0
POINT
  5
1EE
330
1E1
100
AcDbEntity
  8
Defpoints
100
AcDbPoint
 10
589.0
 20
1072.0
 30
0.0
  0
POINT
  5
1EF
330
1E1
100
AcDbEntity
  8
Defpoints
100
AcDbPoint
 10
563.0
 20
1072.0
 30
0.0
  0
POINT
  5
1F0
330
1E1
100
AcDbEntity
  8
Defpoints
100
AcDbPoint
 10
563.0
 20
1084.0
 30
0.0
  0
ENDBLK
  5
1E3
330
1E1
100
AcDbEntity
  8
0
100
AcDbBlockEnd
  0
BLOCK
  5
1F3
330
1F2
100
AcDbEntity
  8
0
100
AcDbBlockBegin
  2
*D30
 70
1
 10
0.0
 20
0.0
 30
0.0
  3
*D30
  1

  0
LINE
  5
1F5
330
1F2
100
AcDbEntity
  8
0
 62
7
100
AcDbLine
 10
560.0
 20
0.0
 30
0.0
 11
534.0
 21
0.0
 31
0.0
  0
LINE
  5
1F6
330
1F2
100
AcDbEntity
  8
0
 62
7
100
AcDbLine
 10
560.0
 20
12.0
 30
0.0
 11
534.0
 21
12.0
 31
0.0
  0
INSERT
  5
1F7
330
1F2
100
AcDbEntity
  8
0
 62
7
100
AcDbBlockReference
  2
_CLOSEDFILLED
 10
537.0
 20
0.0
 30
0.0
 41
6.0
 42
6.0
 50
90.0
  0
INSERT
  5
1F9
330
1F2
100
AcDbEntity
  8
0
 62
7
100
AcDbBlockReference
  2
_CLOSEDFILLED
 10
537.0
 20
12.0
 30
0.0
 41
6.0
 42
6.0
 50
270.0
  0
LINE
  5
1FB
330
1F2
100
AcDbEntity
  8
0
 62
7
100
AcDbLine
 10
537.0
 20
-6.0
 30
0.0
 11
537.0
 21
-12.0
 31
0.0
  0
LINE
  5
1FC
330
1F2
100
AcDbEntity
  8
0
 62
7
100
AcDbLine
 10
537.0
 20
18.0
 30
0.0
 11
537.0
 21
24.0
 31
0.0
  0
LINE
  5
1FD
330
1F2
100
AcDbEntity
  8
0
 62
7
100
AcDbLine
 10
537.0
 20
0.0
 30
0.0
 11
537.0
 21
12.0
 31
0.0
  0
MTEXT
  5
1FE
330
1F2
100
AcDbEntity
  8
0
 62
7
100
AcDbMText
 10
528.375
 20
6.0
 30
0.0
 40
10.0
 71
5
  1
12
 50
90.0
  0
POINT
  5
1FF
330
1F2
100
AcDbEntity
  8
Defpoints
100
AcDbPoint
 10
537.0
 20
0.0
 30
0.0
  0
POINT
  5
200
330
1F2
100
AcDbEntity
  8
Defpoints
100
AcDbPoint
 10
563.0
 20
0.0
 30
0.0
  0
POINT
  5
201
330
1F2
100
AcDbEntity
  8
Defpoints
100
AcDbPoint
 10
563.0
 20
12.0
 30
0.0
  0
ENDBLK
  5
1F4
330
1F2
100
AcDbEntity
  8
0
100
AcDbBlockEnd
  0
ENDSEC
  0
SECTION
  2
ENTITIES
  0
LWPOLYLINE
  5
33
330
17
100
AcDbEntity
  8
CUT
100
AcDbPolyline
 90
5
 70
0
 10
0.0
 20
12.0
 10
613.0
 20
12.0
 10
613.0
 20
1072.0
 10
0.0
 20
1072.0
 10
0.0
 20
12.0
  0
LWPOLYLINE
  5
34
330
17
100
AcDbEntity
  8
CUT
100
AcDbPolyline
 90
5
 70
0
 10
19.0
 20
0.0
 10
601.0
 20
0.0
 10
601.0
 20
1084.0
 10
19.0
 20
1084.0
 10
19.0
 20
0.0
  0
LWPOLYLINE
  5
35
330
17
100
AcDbEntity
  8
CUT
100
AcDbPolyline
 90
5
 70
0
 10
49.0
 20
486.0
 10
74.0
 20
486.0
 10
74.0
 20
598.0
 10
49.0
 20
598.0
 10
49.0
 20
486.0
  0
LWPOLYLINE
  5
36
330
17
100
AcDbEntity
  8
CUT
100
AcDbPolyline
 90
37
 70
0
 10
229.0
 20
902.0
 10
391.0
 20
902.0
 10
394.90180644032256
 20
901.6157056080646
 10
398.6536686473018
 20
900.4775906502257
 10
402.11140466039205
 20
898.6293922460509
 10
405.14213562373095
 20
896.142135623731
 10
407.6293922460509
 20
893.111404660392
 10
409.47759065022575
 20
889.6536686473017
 10
410.6157056080646
 20
885.9018064403226
 10
411.0
 20
882.0
 10
411.0
 20
562.0
 10
410.6157056080646
 20
558.0981935596774
 10
409.47759065022575
 20
554.3463313526983
 10
407.6293922460509
 20
550.888595339608
 10
405.14213562373095
 20
547.857864376269
 10
402.11140466039205
 20
545.3706077539491
 10
398.6536686473018
 20
543.5224093497743
 10
394.90180644032256
 20
542.3842943919354
 10
391.0
 20
542.0
 10
229.0
 20
542.0
 10
225.09819355967744
 20
542.3842943919354
 10
221.3463313526982
 20
543.5224093497743
 10
217.88859533960795
 20
545.3706077539491
 10
214.85786437626905
 20
547.857864376269
 10
212.3706077539491
 20
550.888595339608
 10
210.52240934977425
 20
554.3463313526983
 10
209.38429439193538
 20
558.0981935596774
 10
209.0
 20
562.0
 10
209.0
 20
882.0
 10
209.38429439193538
 20
885.9018064403226
 10
210.52240934977425
 20
889.6536686473017
 10
212.3706077539491
 20
893.111404660392
 10
214.85786437626905
 20
896.142135623731
 10
217.88859533960795
 20
898.6293922460509
 10
221.3463313526982
 20
900.4775906502257
 10
225.09819355967744
 20
901.6157056080646
 10
229.0
 20
902.0
  0
LWPOLYLINE
  5
37
330
17
100
AcDbEntity
  8
CUT
100
AcDbPolyline
 90
5
 70
0
 10
275.0
 20
62.0
 10
345.0
 20
62.0
 10
345.0
 20
102.0
 10
275.0
 20
102.0
 10
275.0
 20
62.0
  0
CIRCLE
  5
38
330
17
100
AcDbEntity
  8
CUT
100
AcDbCircle
 10
59.0
 20
922.0
 30
0.0
 40
11.0
  0
CIRCLE
  5
39
330
17
100
AcDbEntity
  8
CUT
100
AcDbCircle
 10
59.0
 20
162.0
 30
0.0
 40
11.0
  0
DIMENSION
  5
3A
330
17
100
AcDbEntity
  8
DIMENSIONS
100
AcDbDimension
280
0
  2
*D1
  3
DoorDimStyle
 10
0.0
 20
7.0
 30
0.0
 11
306.5
 21
12.625
 31
0.0
 70
160
 71
5
  1
<>
100
AcDbAlignedDimension
 13
0.0
 23
12.0
 33
0.0
 14
613.0
 24
12.0
 34
0.0
 50
0.0
100
AcDbRotatedDimension
1001
ACAD
1000
DSTYLE
1002
{
1070
140
1040
10.0
1070
41
1040
6.0
1070
44
1040
3.0
1070
42
1040
3.0
1070
77
1070
1
1070
172
1070
1
1002
}
  0
DIMENSION
  5
4D
330
17
100
AcDbEntity
  8
DIMENSIONS
100
AcDbDimension
280
0
  2
*D2
  3
DoorDimStyle
 10
-5.0
 20
12.0
 30
0.0
 11
-10.625
 21
542.0
 31
0.0
 70
160
 71
5
  1
<>
100
AcDbAlignedDimension
 13
0.0
 23
12.0
 33
0.0
 14
0.0
 24
1072.0
 34
0.0
 50
90.0
100
AcDbRotatedDimension
1001
ACAD
1000
DSTYLE
1002
{
1070
140
1040
10.0
1070
41
1040
6.0
1070
44
1040
3.0
1070
42
1040
3.0
1070
77
1070
1
1070
172
1070
1
1002
}
  0
DIMENSION
  5
5C
330
17
100
AcDbEntity
  8
DIMENSIONS
100
AcDbDimension
280
0
  2
*D3
  3
DoorDimStyle
 10
19.0
 20
1089.0
 30
0.0
 11
310.0
 21
1094.625
 31
0.0
 70
160
 71
5
  1
<>
100
AcDbAlignedDimension
 13
19.0
 23
1084.0
 33
0.0
 14
601.0
 24
1084.0
 34
0.0
 50
0.0
100
AcDbRotatedDimension
1001
ACAD
1000
DSTYLE
1002
{
1070
140
1040
10.0
1070
41
1040
6.0
1070
44
1040
3.0
1070
42
1040
3.0
1070
77
1070
1
1070
172
1070
1
1002
}
  0
DIMENSION
  5
6B
330
17
100
AcDbEntity
  8
DIMENSIONS
100
AcDbDimension
280
0
  2
*D4
  3
DoorDimStyle
 10
606.0
 20
0.0
 30
0.0
 11
600.375
 21
542.0
 31
0.0
 70
160
 71
5
  1
<>
100
AcDbAlignedDimension
 13
601.0
 23
0.0
 33
0.0
 14
601.0
 24
1084.0
 34
0.0
 50
90.0
100
AcDbRotatedDimension
1001
ACAD
1000
DSTYLE
1002
{
1070
140
1040
10.0
1070
41
1040
6.0
1070
44
1040
3.0
1070
42
1040
3.0
1070
77
1070
1
1070
172
1070
1
1002
}
  0
DIMENSION
  5
7A
330
17
100
AcDbEntity
  8
DIMENSIONS
100
AcDbDimension
280
0
  2
*D5
  3
DoorDimStyle
 10
49.0
 20
492.0
 30
0.0
 11
61.5
 21
497.625
 31
0.0
 70
160
 71
5
  1
<>
100
AcDbAlignedDimension
 13
49.0
 23
486.0
 33
0.0
 14
74.0
 24
486.0
 34
0.0
 50
0.0
100
AcDbRotatedDimension
1001
ACAD
1000
DSTYLE
1002
{
1070
140
1040
10.0
1070
41
1040
6.0
1070
44
1040
3.0
1070
42
1040
3.0
1070
77
1070
1
1070
172
1070
1
1002
}
  0
DIMENSION
  5
89
330
17
100
AcDbEntity
  8
DIMENSIONS
100
AcDbDimension
280
0
  2
*D6
  3
DoorDimStyle
 10
80.0
 20
486.0
 30
0.0
 11
74.375
 21
542.0
 31
0.0
 70
160
 71
5
  1
<>
100
AcDbAlignedDimension
 13
74.0
 23
486.0
 33
0.0
 14
74.0
 24
598.0
 34
0.0
 50
90.0
100
AcDbRotatedDimension
1001
ACAD
1000
DSTYLE
1002
{
1070
140
1040
10.0
1070
41
1040
6.0
1070
44
1040
3.0
1070
42
1040
3.0
1070
77
1070
1
1070
172
1070
1
1002
}
  0
DIMENSION
  5
98
330
17
100
AcDbEntity
  8
DIMENSIONS
100
AcDbDimension
280
0
  2
*D7
  3
DoorDimStyle
 10
209.0
 20
551.0
 30
0.0
 11
310.0
 21
556.625
 31
0.0
 70
160
 71
5
  1
<>
100
AcDbAlignedDimension
 13
209.0
 23
542.0
 33
0.0
 14
411.0
 24
542.0
 34
0.0
 50
0.0
100
AcDbRotatedDimension
1001
ACAD
1000
DSTYLE
1002
{
1070
140
1040
10.0
1070
41
1040
6.0
1070
44
1040
3.0
1070
42
1040
3.0
1070
77
1070
1
1070
172
1070
1
1002
}
  0
DIMENSION
  5
A7
330
17
100
AcDbEntity
  8
DIMENSIONS
100
AcDbDimension
280
0
  2
*D8
  3
DoorDimStyle
 10
420.0
 20
542.0
 30
0.0
 11
414.375
 21
722.0
 31
0.0
 70
160
 71
5
  1
<>
100
AcDbAlignedDimension
 13
411.0
 23
542.0
 33
0.0
 14
411.0
 24
902.0
 34
0.0
 50
90.0
100
AcDbRotatedDimension
1001
ACAD
1000
DSTYLE
1002
{
1070
140
1040
10.0
1070
41
1040
6.0
1070
44
1040
3.0
1070
42
1040
3.0
1070
77
1070
1
1070
172
1070
1
1002
}
  0
DIMENSION
  5
B6
330
17
100
AcDbEntity
  8
DIMENSIONS
100
AcDbDimension
280
0
  2
*D9
  3
DoorDimStyle
 10
275.0
 20
74.0
 30
0.0
 11
310.0
 21
79.625
 31
0.0
 70
160
 71
5
  1
<>
100
AcDbAlignedDimension
 13
275.0
 23
62.0
 33
0.0
 14
345.0
 24
62.0
 34
0.0
 50
0.0
100
AcDbRotatedDimension
1001
ACAD
1000
DSTYLE
1002
{
1070
140
1040
10.0
1070
41
1040
6.0
1070
44
1040
3.0
1070
42
1040
3.0
1070
77
1070
1
1070
172
1070
1
1002
}
  0
DIMENSION
  5
C5
330
17
100
AcDbEntity
  8
DIMENSIONS
100
AcDbDimension
280
0
  2
*D10
  3
DoorDimStyle
 10
357.0
 20
62.0
 30
0.0
 11
351.375
 21
82.0
 31
0.0
 70
160
 71
5
  1
<>
100
AcDbAlignedDimension
 13
345.0
 23
62.0
 33
0.0
 14
345.0
 24
102.0
 34
0.0
 50
90.0
100
AcDbRotatedDimension
1001
ACAD
1000
DSTYLE
1002
{
1070
140
1040
10.0
1070
41
1040
6.0
1070
44
1040
3.0
1070
42
1040
3.0
1070
77
1070
1
1070
172
1070
1
1002
}
  0
DIMENSION
  5
D4
330
17
100
AcDbEntity
  8
DIMENSIONS
100
AcDbDimension
280
0
  2
*D11
  3
DoorDimStyle
 10
19.0
 20
713.0
 30
0.0
 11
114.0
 21
718.625
 31
0.0
 70
160
 71
5
  1
<>
100
AcDbAlignedDimension
 13
19.0
 23
722.0
 33
0.0
 14
209.0
 24
722.0
 34
0.0
 50
0.0
100
AcDbRotatedDimension
1001
ACAD
1000
DSTYLE
1002
{
1070
140
1040
10.0
1070
41
1040
6.0
1070
44
1040
3.0
1070
42
1040
3.0
1070
77
1070
1
1070
172
1070
1
1002
}
  0
DIMENSION
  5
E3
330
17
100
AcDbEntity
  8
DIMENSIONS
100
AcDbDimension
280
0
  2
*D12
  3
DoorDimStyle
 10
411.0
 20
713.0
 30
0.0
 11
506.0
 21
718.625
 31
0.0
 70
160
 71
5
  1
<>
100
AcDbAlignedDimension
 13
411.0
 23
722.0
 33
0.0
 14
601.0
 24
722.0
 34
0.0
 50
0.0
100
AcDbRotatedDimension
1001
ACAD
1000
DSTYLE
1002
{
1070
140
1040
10.0
1070
41
1040
6.0
1070
44
1040
3.0
1070
42
1040
3.0
1070
77
1070
1
1070
172
1070
1
1002
}
  0
DIMENSION
  5
F2
330
17
100
AcDbEntity
  8
DIMENSIONS
100
AcDbDimension
280
0
  2
*D13
  3
DoorDimStyle
 10
319.0
 20
902.0
 30
0.0
 11
313.375
 21
987.0
 31
0.0
 70
160
 71
5
  1
<>
100
AcDbAlignedDimension
 13
310.0
 23
902.0
 33
0.0
 14
310.0
 24
1072.0
 34
0.0
 50
90.0
100
AcDbRotatedDimension
1001
ACAD
1000
DSTYLE
1002
{
1070
140
1040
10.0
1070
41
1040
6.0
1070
44
1040
3.0
1070
42
1040
3.0
1070
77
1070
1
1070
172
1070
1
1002
}
  0
DIMENSION
  5
101
330
17
100
AcDbEntity
  8
DIMENSIONS
100
AcDbDimension
280
0
  2
*D14
  3
DoorDimStyle
 10
319.0
 20
12.0
 30
0.0
 11
313.375
 21
277.0
 31
0.0
 70
160
 71
5
  1
<>
100
AcDbAlignedDimension
 13
310.0
 23
12.0
 33
0.0
 14
310.0
 24
542.0
 34
0.0
 50
90.0
100
AcDbRotatedDimension
1001
ACAD
1000
DSTYLE
1002
{
1070
140
1040
10.0
1070
41
1040
6.0
1070
44
1040
3.0
1070
42
1040
3.0
1070
77
1070
1
1070
172
1070
1
1002
}
  0
DIMENSION
  5
110
330
17
100
AcDbEntity
  8
DIMENSIONS
100
AcDbDimension
280
0
  2
*D15
  3
DoorDimStyle
 10
19.0
 20
548.0
 30
0.0
 11
34.0
 21
553.625
 31
0.0
 70
160
 71
5
  1
<>
100
AcDbAlignedDimension
 13
19.0
 23
542.0
 33
0.0
 14
49.0
 24
542.0
 34
0.0
 50
0.0
100
AcDbRotatedDimension
1001
ACAD
1000
DSTYLE
1002
{
1070
140
1040
10.0
1070
41
1040
6.0
1070
44
1040
3.0
1070
42
1040
3.0
1070
77
1070
1
1070
172
1070
1
1002
}
  0
DIMENSION
  5
11F
330
17
100
AcDbEntity
  8
DIMENSIONS
100
AcDbDimension
280
0
  2
*D16
  3
DoorDimStyle
 10
67.5
 20
598.0
 30
0.0
 11
61.875
 21
835.0
 31
0.0
 70
160
 71
5
  1
<>
100
AcDbAlignedDimension
 13
61.5
 23
598.0
 33
0.0
 14
61.5
 24
1072.0
 34
0.0
 50
90.0
100
AcDbRotatedDimension
1001
ACAD
1000
DSTYLE
1002
{
1070
140
1040
10.0
1070
41
1040
6.0
1070
44
1040
3.0
1070
42
1040
3.0
1070
77
1070
1
1070
172
1070
1
1002
}
  0
DIMENSION
  5
12E
330
17
100
AcDbEntity
  8
DIMENSIONS
100
AcDbDimension
280
0
  2
*D17
  3
DoorDimStyle
 10
67.5
 20
12.0
 30
0.0
 11
61.875
 21
249.0
 31
0.0
 70
160
 71
5
  1
<>
100
AcDbAlignedDimension
 13
61.5
 23
12.0
 33
0.0
 14
61.5
 24
486.0
 34
0.0
 50
90.0
100
AcDbRotatedDimension
1001
ACAD
1000
DSTYLE
1002
{
1070
140
1040
10.0
1070
41
1040
6.0
1070
44
1040
3.0
1070
42
1040
3.0
1070
77
1070
1
1070
172
1070
1
1002
}
  0
DIMENSION
  5
13D
330
17
100
AcDbEntity
  8
DIMENSIONS
100
AcDbDimension
280
0
  2
*D18
  3
DoorDimStyle
 10
19.0
 20
88.0
 30
0.0
 11
147.0
 21
93.625
 31
0.0
 70
160
 71
5
  1
<>
100
AcDbAlignedDimension
 13
19.0
 23
82.0
 33
0.0
 14
275.0
 24
82.0
 34
0.0
 50
0.0
100
AcDbRotatedDimension
1001
ACAD
1000
DSTYLE
1002
{
1070
140
1040
10.0
1070
41
1040
6.0
1070
44
1040
3.0
1070
42
1040
3.0
1070
77
1070
1
1070
172
1070
1
1002
}
  0
DIMENSION
  5
14C
330
17
100
AcDbEntity
  8
DIMENSIONS
100
AcDbDimension
280
0
  2
*D19
  3
DoorDimStyle
 10
345.0
 20
88.0
 30
0.0
 11
473.0
 21
93.625
 31
0.0
 70
160
 71
5
  1
<>
100
AcDbAlignedDimension
 13
345.0
 23
82.0
 33
0.0
 14
601.0
 24
82.0
 34
0.0
 50
0.0
100
AcDbRotatedDimension
1001
ACAD
1000
DSTYLE
1002
{
1070
140
1040
10.0
1070
41
1040
6.0
1070
44
1040
3.0
1070
42
1040
3.0
1070
77
1070
1
1070
172
1070
1
1002
}
  0
DIMENSION
  5
15B
330
17
100
AcDbEntity
  8
DIMENSIONS
100
AcDbDimension
280
0
  2
*D20
  3
DoorDimStyle
 10
316.0
 20
12.0
 30
0.0
 11
310.375
 21
37.0
 31
0.0
 70
160
 71
5
  1
<>
100
AcDbAlignedDimension
 13
310.0
 23
12.0
 33
0.0
 14
310.0
 24
62.0
 34
0.0
 50
90.0
100
AcDbRotatedDimension
1001
ACAD
1000
DSTYLE
1002
{
1070
140
1040
10.0
1070
41
1040
6.0
1070
44
1040
3.0
1070
42
1040
3.0
1070
77
1070
1
1070
172
1070
1
1002
}
  0
DIMENSION
  5
16A
330
17
100
AcDbEntity
  8
DIMENSIONS
100
AcDbDimension
280
0
  2
*D21
  3
Standard
 10
66.77817459305203
 20
929.778174593052
 30
0.0
 11
49.54244680162992
 21
912.54244680163
 31
0.0
 70
35
 71
5
  1
<>
100
AcDbDiametricDimension
 15
51.22182540694798
 25
914.221825406948
 35
0.0
1001
ACAD
1000
DSTYLE
1002
{
1070
73
1070
1
1002
}
  0
DIMENSION
  5
177
330
17
100
AcDbEntity
  8
DIMENSIONS
100
AcDbDimension
280
0
  2
*D22
  3
DoorDimStyle
 10
19.0
 20
928.0
 30
0.0
 11
39.0
 21
933.625
 31
0.0
 70
160
 71
5
  1
<>
100
AcDbAlignedDimension
 13
19.0
 23
922.0
 33
0.0
 14
59.0
 24
922.0
 34
0.0
 50
0.0
100
AcDbRotatedDimension
1001
ACAD
1000
DSTYLE
1002
{
1070
140
1040
10.0
1070
41
1040
6.0
1070
44
1040
3.0
1070
42
1040
3.0
1070
77
1070
1
1070
172
1070
1
1002
}
  0
DIMENSION
  5
186
330
17
100
AcDbEntity
  8
DIMENSIONS
100
AcDbDimension
280
0
  2
*D23
  3
DoorDimStyle
 10
53.0
 20
922.0
 30
0.0
 11
47.375
 21
997.0
 31
0.0
 70
160
 71
5
  1
<>
100
AcDbAlignedDimension
 13
59.0
 23
922.0
 33
0.0
 14
59.0
 24
1072.0
 34
0.0
 50
90.0
100
AcDbRotatedDimension
1001
ACAD
1000
DSTYLE
1002
{
1070
140
1040
10.0
1070
41
1040
6.0
1070
44
1040
3.0
1070
42
1040
3.0
1070
77
1070
1
1070
172
1070
1
1002
}
  0
DIMENSION
  5
195
330
17
100
AcDbEntity
  8
DIMENSIONS
100
AcDbDimension
280
0
  2
*D24
  3
Standard
 10
66.77817459305203
 20
169.77817459305203
 30
0.0
 11
49.54244680162993
 21
152.54244680162992
 31
0.0
 70
35
 71
5
  1
<>
100
AcDbDiametricDimension
 15
51.22182540694798
 25
154.22182540694797
 35
0.0
1001
ACAD
1000
DSTYLE
1002
{
1070
73
1070
1
1002
}
  0
DIMENSION
  5
1A2
330
17
100
AcDbEntity
  8
DIMENSIONS
100
AcDbDimension
280
0
  2
*D25
  3
DoorDimStyle
 10
19.0
 20
168.0
 30
0.0
 11
39.0
 21
173.625
 31
0.0
 70
160
 71
5
  1
<>
100
AcDbAlignedDimension
 13
19.0
 23
162.0
 33
0.0
 14
59.0
 24
162.0
 34
0.0
 50
0.0
100
AcDbRotatedDimension
1001
ACAD
1000
DSTYLE
1002
{
1070
140
1040
10.0
1070
41
1040
6.0
1070
44
1040
3.0
1070
42
1040
3.0
1070
77
1070
1
1070
172
1070
1
1002
}
  0
DIMENSION
  5
1B1
330
17
100
AcDbEntity
  8
DIMENSIONS
100
AcDbDimension
280
0
  2
*D26
  3
DoorDimStyle
 10
53.0
 20
12.0
 30
0.0
 11
47.375
 21
87.0
 31
0.0
 70
160
 71
5
  1
<>
100
AcDbAlignedDimension
 13
59.0
 23
12.0
 33
0.0
 14
59.0
 24
162.0
 34
0.0
 50
90.0
100
AcDbRotatedDimension
1001
ACAD
1000
DSTYLE
1002
{
1070
140
1040
10.0
1070
41
1040
6.0
1070
44
1040
3.0
1070
42
1040
3.0
1070
77
1070
1
1070
172
1070
1
1002
}
  0
DIMENSION
  5
1C0
330
17
100
AcDbEntity
  8
DIMENSIONS
100
AcDbDimension
280
0
  2
*D27
  3
DoorDimStyle
 10
0.0
 20
56.0
 30
0.0
 11
9.5
 21
64.625
 31
0.0
 70
160
 71
5
  1
<>
100
AcDbAlignedDimension
 13
0.0
 23
50.0
 33
0.0
 14
19.0
 24
50.0
 34
0.0
 50
0.0
100
AcDbRotatedDimension
1001
ACAD
1000
DSTYLE
1002
{
1070
140
1040
10.0
1070
41
1040
6.0
1070
44
1040
3.0
1070
42
1040
3.0
1070
77
1070
1
1070
172
1070
1
1002
}
  0
DIMENSION
  5
1CF
330
17
100
AcDbEntity
  8
DIMENSIONS
100
AcDbDimension
280
0
  2
*D28
  3
DoorDimStyle
 10
601.0
 20
1008.0
 30
0.0
 11
607.0
 21
1016.625
 31
0.0
 70
160
 71
5
  1
<>
100
AcDbAlignedDimension
 13
601.0
 23
1034.0
 33
0.0
 14
613.0
 24
1034.0
 34
0.0
 50
0.0
100
AcDbRotatedDimension
1001
ACAD
1000
DSTYLE
1002
{
1070
140
1040
10.0
1070
41
1040
6.0
1070
44
1040
3.0
1070
42
1040
3.0
1070
77
1070
1
1070
172
1070
1
1002
}
  0
DIMENSION
  5
1E0
330
17
100
AcDbEntity
  8
DIMENSIONS
100
AcDbDimension
280
0
  2
*D29
  3
DoorDimStyle
 10
589.0
 20
1072.0
 30
0.0
 11
580.375
 21
1078.0
 31
0.0
 70
160
 71
5
  1
<>
100
AcDbAlignedDimension
 13
563.0
 23
1072.0
 33
0.0
 14
563.0
 24
1084.0
 34
0.0
 50
90.0
100
AcDbRotatedDimension
1001
ACAD
1000
DSTYLE
1002
{
1070
140
1040
10.0
1070
41
1040
6.0
1070
44
1040
3.0
1070
42
1040
3.0
1070
77
1070
1
1070
172
1070
1
1002
}
  0
DIMENSION
  5
1F1
330
17
100
AcDbEntity
  8
DIMENSIONS
100
AcDbDimension
280
0
  2
*D30
  3
DoorDimStyle
 10
537.0
 20
0.0
 30
0.0
 11
528.375
 21
6.0
 31
0.0
 70
160
 71
5
  1
<>
100
AcDbAlignedDimension
 13
563.0
 23
0.0
 33
0.0
 14
563.0
 24
12.0
 34
0.0
 50
90.0
100
AcDbRotatedDimension
1001
ACAD
1000
DSTYLE
1002
{
1070
140
1040
10.0
1070
41
1040
6.0
1070
44
1040
3.0
1070
42
1040
3.0
1070
77
1070
1
1070
172
1070
1
1002
}
  0
TEXT
  5
202
330
17
100
AcDbEntity
  8
DIMENSIONS
100
AcDbText
 10
563.0
 20
530.0
 30
0.0
 40
8.0
  1
SingleFireTop
 50
90.0
 72
2
 11
563.0
 21
530.0
 31
0.0
100
AcDbText
 73
2
  0
ENDSEC
  0
SECTION
  2
OBJECTS
  0
DICTIONARY
  5
A
330
0
100
AcDbDictionary
281
1
  3
ACAD_COLOR
350
B
  3
ACAD_GROUP
350
C
  3
ACAD_LAYOUT
350
D
  3
ACAD_MATERIAL
350
E
  3
ACAD_MLEADERSTYLE
350
F
  3
ACAD_MLINESTYLE
350
10
  3
ACAD_PLOTSETTINGS
350
11
  3
ACAD_PLOTSTYLENAME
350
12
  3
ACAD_SCALELIST
350
14
  3
ACAD_TABLESTYLE
350
15
  3
ACAD_VISUALSTYLE
350
16
  3
EZDXF_META
350
2D
  0
DICTIONARY
  5
B
330
A
100
AcDbDictionary
281
1
  0
DICTIONARY
  5
C
330
A
100
AcDbDictionary
281
1
  0
DICTIONARY
  5
D
330
A
100
AcDbDictionary
281
1
  3
Model
350
1A
  3
Layout1
350
1E
  0
DICTIONARY
  5
E
330
A
100
AcDbDictionary
281
1
  3
ByBlock
350
1F
  3
ByLayer
350
20
  3
Global
350
21
  0
DICTIONARY
  5
F
330
A
100
AcDbDictionary
281
1
  3
Standard
350
2C
  0
DICTIONARY
  5
10
330
A
100
AcDbDictionary
281
1
  3
Standard
350
22
  0
DICTIONARY
  5
11
330
A
100
AcDbDictionary
281
1
  0
ACDBDICTIONARYWDFLT
  5
12
330
A
100
AcDbDictionary
281
1
  3
Normal
350
13
100
AcDbDictionaryWithDefault
340
13
  0
ACDBPLACEHOLDER
  5
13
330
12
  0
DICTIONARY
  5
14
330
A
100
AcDbDictionary
281
1
  0
DICTIONARY
  5
15
330
A
100
AcDbDictionary
281
1
  0
DICTIONARY
  5
16
330
A
100
AcDbDictionary
281
1
  0
LAYOUT
  5
1A
330
D
100
AcDbPlotSettings
  1

  4
A3
  6

 40
7.5
 41
20.0
 42
7.5
 43
20.0
 44
420.0
 45
297.0
 46
0.0
 47
0.0
 48
0.0
 49
0.0
140
0.0
141
0.0
142
1.0
143
1.0
 70
1024
 72
1
 73
0
 74
5
  7

 75
16
 76
0
 77
2
 78
300
147
1.0
148
0.0
149
0.0
100
AcDbLayout
  1
Model
 70
1
 71
0
 10
0.0
 20
0.0
 11
420.0
 21
297.0
 12
0.0
 22
0.0
 32
0.0
 14
1e+20
 24
1e+20
 34
1e+20
 15
-1e+20
 25
-1e+20
 35
-1e+20
146
0.0
 13
0.0
 23
0.0
 33
0.0
 16
1.0
 26
0.0
 36
0.0
 17
0.0
 27
1.0
 37
0.0
 76
1
330
17
  0
LAYOUT
  5
1E
330
D
100
AcDbPlotSettings
  1

  4
A3
  6

 40
7.5
 41
20.0
 42
7.5
 43
20.0
 44
420.0
 45
297.0
 46
0.0
 47
0.0
 48
0.0
 49
0.0
140
0.0
141
0.0
142
1.0
143
1.0
 70
0
 72
1
 73
0
 74
5
  7

 75
16
 76
0
 77
2
 78
300
147
1.0
148
0.0
149
0.0
100
AcDbLayout
  1
Layout1
 70
1
 71
1
 10
0.0
 20
0.0
 11
420.0
 21
297.0
 12
0.0
 22
0.0
 32
0.0
 14
1e+20
 24
1e+20
 34
1e+20
 15
-1e+20
 25
-1e+20
 35
-1e+20
146
0.0
 13
0.0
 23
0.0
 33
0.0
 16
1.0
 26
0.0
 36
0.0
 17
0.0
 27
1.0
 37
0.0
 76
1
330
1B
  0
MATERIAL
  5
1F
102
{ACAD_REACTORS
330
E
102
}
330
E
100
AcDbMaterial
  1
ByBlock
  2

 70
0
 40
1.0
 71
1
 41
1.0
 91
-1023410177
 42
1.0
 72
1
  3

 73
1
 74
1
 75
1
 44
0.5
 73
0
 45
1.0
 46
1.0
 77
1
  4

 78
1
 79
1
170
1
 48
1.0
171
1
  6

172
1
173
1
174
1
140
1.0
141
1.0
175
1
  7

176
1
177
1
178
1
143
1.0
179
1
  8

270
1
271
1
272
1
145
1.0
146
1.0
273
1
  9

274
1
275
1
276
1
 42
1.0
 72
1
  3

 73
1
 74
1
 75
1
 94
63
  0
MATERIAL
  5
20
102
{ACAD_REACTORS
330
E
102
}
330
E
100
AcDbMaterial
  1
ByLayer
  2

 70
0
 40
1.0
 71
1
 41
1.0
 91
-1023410177
 42
1.0
 72
1
  3

 73
1
 74
1
 75
1
 44
0.5
 73
0
 45
1.0
 46
1.0
 77
1
  4

 78
1
 79
1
170
1
 48
1.0
171
1
  6

172
1
173
1
174
1
140
1.0
141
1.0
175
1
  7

176
1
177
1
178
1
143
1.0
179
1
  8

270
1
271
1
272
1
145
1.0
146
1.0
273
1
  9

274
1
275
1
276
1
 42
1.0
 72
1
  3

 73
1
 74
1
 75
1
 94
63
  0
MATERIAL
  5
21
102
{ACAD_REACTORS
330
E
102
}
330
E
100
AcDbMaterial
  1
Global
  2

 70
0
 40
1.0
 71
1
 41
1.0
 91
-1023410177
 42
1.0
 72
1
  3

 73
1
 74
1
 75
1
 44
0.5
 73
0
 45
1.0
 46
1.0
 77
1
  4

 78
1
 79
1
170
1
 48
1.0
171
1
  6

172
1
173
1
174
1
140
1.0
141
1.0
175
1
  7

176
1
177
1
178
1
143
1.0
179
1
  8

270
1
271
1
272
1
145
1.0
146
1.0
273
1
  9

274
1
275
1
276
1
 42
1.0
 72
1
  3

 73
1
 74
1
 75
1
 94
63
  0
MLINESTYLE
  5
22
102
{ACAD_REACTORS
330
10
102
}
330
10
100
AcDbMlineStyle
  2
Standard
 70
0
  3

 62
256
 51
90.0
 52
90.0
 71
2
 49
0.5
 62
256
  6
BYLAYER
 49
-0.5
 62
256
  6
BYLAYER
  0
MLEADERSTYLE
  5
2C
102
{ACAD_REACTORS
330
F
102
}
330
F
100
AcDbMLeaderStyle
179
2
170
2
171
1
172
0
 90
2
 40
0.0
 41
0.0
173
1
 91
-1056964608
 92
-2
290
1
 42
2.0
291
1
 43
8.0
  3
Standard
 44
4.0
300

342
29
174
1
175
1
176
0
178
1
 93
-1056964608
 45
4.0
292
0
297
0
 46
4.0
 94
-1056964608
 47
1.0
 49
1.0
140
1.0
294
1
141
0.0
177
0
142
1.0
295
0
296
0
143
3.75
271
0
272
9
273
9
  0
DICTIONARY
  5
2D
330
A
100
AcDbDictionary
280
1
281
1
  3
CREATED_BY_EZDXF
350
2E
  3
WRITTEN_BY_EZDXF
350
205
  0
DICTIONARYVAR
  5
2E
330
2D
100
DictionaryVariables
280
0
  1
1.4.3 @ 2025-12-18T12:08:01.662170+00:00
  0
DICTIONARYVAR
  5
205
330
2D
100
DictionaryVariables
280
0
  1
1.4.3 @ 2025-12-18T12:08:01.727809+00:00
  0
ENDSEC
  0
EOF
